<svg xmlns="http://www.w3.org/2000/svg" width="25.2" height="25.2" viewBox="0 0 25.2 25.2">
  <path id="Icon_awesome-exclamation-circle" data-name="Icon awesome-exclamation-circle" d="M24.563,12.563a12,12,0,1,1-12-12A12,12,0,0,1,24.563,12.563Zm-12,2.419a2.226,2.226,0,1,0,2.226,2.226A2.226,2.226,0,0,0,12.563,14.982Zm-2.113-8,.359,6.581a.581.581,0,0,0,.58.549h2.349a.581.581,0,0,0,.58-.549l.359-6.581a.581.581,0,0,0-.58-.612H11.029A.581.581,0,0,0,10.449,6.981Z" transform="translate(0.038 0.037)" fill="none" stroke="#000" stroke-width="1.2"/>
</svg>
