<svg width="144" height="148" viewBox="0 0 144 148" fill="none" xmlns="http://www.w3.org/2000/svg">
<path d="M103.98 121.586C104.094 122.189 103.781 122.483 103.274 122.771C100.262 124.481 97.1054 125.88 93.8739 127.109C89.0528 128.943 84.0647 130.194 78.9645 130.899C76.8029 131.197 74.5891 131.26 72.3999 131.406C69.9426 131.57 67.5118 131.398 65.0856 131.27C62.8244 131.152 60.56 130.872 58.3165 130.366C56.569 129.972 54.8172 129.585 53.0879 129.12C51.3704 128.658 49.6968 128.052 48.0184 127.455C46.3619 126.866 44.7489 126.197 43.1287 125.526C41.0496 124.665 39.1211 123.524 37.1588 122.449C35.1992 121.375 33.3875 120.063 31.5367 118.813C29.1631 117.208 26.986 115.369 24.9303 113.404C23.7562 112.282 22.6449 111.058 21.5143 109.89C18.1936 106.461 15.5737 102.559 13.2117 98.4757C10.7541 94.2273 8.88741 89.7128 7.45819 85.0045C6.2388 80.9873 5.45577 76.9012 4.92485 72.7504C4.52903 69.656 4.48022 66.5471 4.60732 63.4453C4.74895 59.9895 5.15025 56.5612 5.77425 53.1406C6.6729 48.2143 8.21695 43.5019 10.02 38.8651C10.7512 36.9845 11.7763 35.2163 12.7035 33.4127C14.6325 29.6605 17.0414 26.2468 19.7102 23.0166C20.8959 21.5814 21.9061 19.9544 23.4929 18.8713C23.9575 18.684 24.3199 18.7064 24.4008 19.3103C24.3768 19.7111 24.0928 19.9574 23.8568 20.2367C18.647 26.4007 15.1527 33.3963 13.529 41.3123C12.6634 45.5321 12.4829 49.8082 12.7686 54.0684C13.1202 59.3113 14.5007 64.3353 16.717 69.1322C18.798 73.6362 21.5156 77.7121 24.8047 81.4041C28.1661 85.1772 32.0862 88.2774 36.5508 90.6785C40.7591 92.9419 45.1969 94.5618 49.9081 95.4053C52.802 95.9235 55.7291 96.3191 58.6612 96.2553C65.0563 96.116 71.2301 94.8516 77.0797 92.1782C78.4445 91.5545 79.817 90.9514 81.0932 90.1596C81.6488 89.8148 82.088 89.8686 82.5622 90.327C84.3873 92.0908 86.0843 93.9773 87.8064 95.8356C88.8648 96.9778 90.0576 97.9953 91.0083 99.2371C91.6865 100.123 91.6832 100.148 90.9127 100.998C89.212 102.875 88.6667 105.035 89.4789 107.443C90.1132 109.323 91.5158 110.443 93.4219 110.929C94.0286 111.083 94.5883 111.27 95.021 111.752C97.553 114.572 100.2 117.282 102.89 119.952C103.356 120.415 103.903 120.852 103.98 121.586Z" fill="#E4F0FA"/>
<path d="M37.4504 8.42951C38.9323 7.49079 40.5278 6.76188 42.1261 6.06367C44.3725 5.08228 46.6194 4.10341 48.9953 3.42289C50.2806 3.0548 51.5764 2.70205 52.8524 2.2944C54.3342 1.82101 55.8678 1.5883 57.388 1.30035C59.6585 0.870236 61.9366 0.474295 64.2449 0.298052C67.4404 0.05407 70.6318 -0.139606 73.8432 0.132043C75.9677 0.311756 78.1012 0.405686 80.2092 0.731805C83.9089 1.30416 87.5448 2.15008 91.1409 3.20623C94.1238 4.08233 96.9794 5.27422 99.8012 6.52865C101.839 7.43467 103.749 8.63654 105.685 9.75879C110.831 12.7408 115.359 16.4982 119.394 20.8415C121.31 22.9046 123.09 25.0755 124.625 27.4618C125.388 28.6471 126.286 29.7704 127.03 30.9807C129.08 34.3159 130.824 37.8049 132.233 41.4598C133.156 43.8554 133.948 46.2965 134.594 48.7754C135.351 51.6818 135.869 54.6386 136.332 57.6114C136.932 61.4627 136.927 65.3244 136.802 69.1863C136.696 72.4614 136.26 75.7112 135.678 78.9473C135.242 81.3698 134.682 83.7632 133.997 86.1103C133.101 89.1843 132.018 92.2009 130.609 95.1097C129.476 97.4502 128.354 99.7867 126.999 102.005C126.164 103.372 125.29 104.716 124.395 106.045C124.09 106.498 123.638 106.823 123.056 106.893C122.598 107.114 122.388 106.733 122.185 106.481C121.183 105.24 120.012 104.163 118.869 103.062C116.602 100.878 114.544 98.4924 112.285 96.3021C111.814 95.8462 111.628 95.3216 111.599 94.6723C111.387 89.9826 106.202 87.6341 102.724 90.2118C102.155 90.6328 101.773 90.6143 101.241 90.0912C98.5374 87.4362 96.0106 84.6117 93.3114 81.9538C92.3889 81.0455 92.3468 80.7674 93.1941 79.8029C95.3844 77.3097 97.1807 74.56 98.7519 71.6485C101.363 66.8098 102.939 61.6461 103.711 56.2218C104.081 53.6171 104.177 50.9952 104.063 48.3749C103.901 44.6457 103.286 40.9832 102.208 37.3997C99.7695 29.2871 95.42 22.3205 89.2237 16.5846C83.2204 11.0274 76.2434 7.17265 68.1204 5.53972C64.5374 4.81948 60.9376 4.34149 57.2839 4.47965C53.0537 4.63959 48.8826 5.21689 44.8312 6.5113C42.7304 7.18253 40.6576 7.91639 38.6862 8.91357C38.3859 9.06544 38.0769 9.20664 37.7211 9.14723C37.3327 9.01947 37.2516 8.77662 37.4504 8.42951Z" fill="#E4F0FA"/>
<path d="M37.8402 8.9907C40.3129 7.86464 42.8079 6.79764 45.4311 6.05719C53.3657 3.81747 61.3473 3.61044 69.3638 5.55717C79.0233 7.90297 86.9476 13.049 93.3328 20.5749C99.4436 27.7775 103.097 36.0957 104.086 45.4794C105.156 55.6271 102.985 65.1198 97.775 73.9107C96.4333 76.1749 94.8864 78.294 93.1123 80.24C92.7009 80.6912 92.667 80.9655 93.1225 81.4266C95.9343 84.2732 98.718 87.1477 101.496 90.0271C101.807 90.3489 101.958 90.5042 102.41 90.1365C104.224 88.6637 106.301 88.5095 108.359 89.436C110.533 90.4143 111.752 92.2005 111.829 94.6182C111.851 95.2906 112.066 95.7269 112.524 96.1925C115.865 99.5912 119.174 103.02 122.498 106.436C122.664 106.607 122.869 106.742 123.056 106.893C127.279 111.251 131.512 115.601 135.72 119.974C137.45 121.772 139.328 123.444 140.547 125.681C143.288 130.707 141.943 136.907 137.343 140.287C136.953 140.573 136.521 140.803 135.874 141.205C137.358 141.205 138.61 141.192 139.862 141.209C140.756 141.221 141.374 141.662 141.631 142.521C141.88 143.356 141.428 144.195 140.586 144.493C140.272 144.604 139.935 144.647 139.608 144.722C139.253 145.044 138.808 144.993 138.387 144.993C125.844 144.999 113.301 145 100.759 144.996C100.667 144.996 100.575 144.994 100.483 144.99C98.639 144.915 97.9993 144.149 98.2444 142.312C98.6892 141.375 99.4862 141.182 100.445 141.184C107.876 141.202 115.308 141.196 122.739 141.198C122.859 141.198 122.978 141.198 123.236 141.198C122.278 140.229 121.391 139.343 120.516 138.446C115.293 133.096 110.072 127.742 104.848 122.392C104.573 122.11 104.27 121.853 103.98 121.585C101.352 118.824 98.7229 116.062 96.0942 113.3C95.8837 113.078 95.6484 112.875 95.4678 112.632C94.8488 111.798 94.0809 111.361 93.0229 111.081C88.7148 109.941 87.3983 104.193 90.6889 100.948C91.4252 100.222 91.3749 99.8886 90.6999 99.1967C87.8851 96.3114 85.1323 93.3656 82.3666 90.4328C82.0713 90.1197 81.8891 89.9425 81.3995 90.2307C75.8161 93.5162 69.7799 95.4923 63.341 96.1674C52.686 97.2845 42.6958 95.124 33.7465 89.2696C22.1271 81.6683 15.0421 70.8597 12.927 57.1568C11.0208 44.8064 13.9477 33.4373 21.2232 23.2153C22.1792 21.8722 23.2327 20.6101 24.2527 19.3194C24.3502 18.9162 24.6253 18.6356 24.8986 18.3432C28.2616 14.7437 32.1846 11.8764 36.4858 9.49835C36.9168 9.26018 37.3734 9.11881 37.8402 8.9907Z" fill="#184462"/>
<path d="M135.015 13.1756C135.015 13.8158 134.977 14.4591 135.024 15.0958C135.097 16.0647 135.817 16.4427 136.628 15.9694C137.524 15.4463 138.402 14.891 139.31 14.3902C140.136 13.9349 140.821 14.0928 141.218 14.7644C141.612 15.4318 141.402 16.1173 140.585 16.599C139.614 17.1722 138.612 17.6935 137.625 18.2405C137.046 18.5615 137.047 18.8656 137.632 19.1993C138.612 19.7588 139.582 20.3369 140.549 20.9182C141.435 21.4507 141.642 22.0013 141.244 22.708C140.845 23.4177 140.127 23.5942 139.28 23.1304C138.398 22.647 137.55 22.1008 136.674 21.6051C135.755 21.085 135.071 21.4468 135.023 22.5118C134.977 23.5465 135.021 24.585 135.009 25.6216C134.998 26.5495 134.464 27.1444 133.683 27.1313C132.915 27.1184 132.457 26.583 132.441 25.6382C132.426 24.6628 132.463 23.6859 132.429 22.7112C132.386 21.4965 131.67 21.1138 130.608 21.7146C129.758 22.1958 128.93 22.7176 128.068 23.177C127.293 23.5902 126.591 23.3951 126.264 22.7413C125.908 22.0271 126.144 21.3344 126.903 20.9111C127.889 20.3609 128.879 19.8184 129.87 19.2771C130.385 18.9963 130.476 18.7164 129.908 18.3858C128.931 17.8183 127.957 17.2469 126.992 16.662C126.128 16.139 125.889 15.3819 126.34 14.6778C126.758 14.0257 127.394 13.936 128.269 14.4382C129.09 14.9087 129.883 15.4267 130.711 15.8843C131.684 16.4229 132.437 15.9482 132.442 14.8161C132.447 13.749 132.428 12.6815 132.444 11.6145C132.458 10.6489 132.962 10.0756 133.752 10.0752C134.566 10.0748 135.008 10.6078 135.021 11.6204C135.028 12.1387 135.022 12.6571 135.022 13.1755C135.02 13.1756 135.018 13.1756 135.015 13.1756Z" fill="#203C51"/>
<path d="M21.1375 7.12941C21.156 7.88529 20.774 8.305 20.1764 8.49312C17.9195 9.20382 16.3978 10.6394 15.6446 12.8903C15.428 13.5375 14.9704 14.0266 14.2537 14.045C13.5043 14.0643 13.0992 13.5174 12.8972 12.8775C12.199 10.6653 10.6979 9.29185 8.53006 8.55739C7.92093 8.35105 7.49501 7.9578 7.46978 7.22421C7.44299 6.44881 7.94103 6.12035 8.53432 5.92008C10.7062 5.18683 12.2055 3.8167 12.8882 1.59207C13.0901 0.934194 13.559 0.503562 14.3092 0.512842C15.016 0.521603 15.4357 0.930034 15.6564 1.55443C16.4393 3.76926 17.9637 5.22916 20.1609 6.03171C20.6945 6.2266 21.1561 6.52817 21.1375 7.12941Z" fill="#184462"/>
<path d="M29.5688 131.841C27.2542 131.52 25.4997 133.638 25.723 135.396C25.7533 135.635 25.7525 135.89 25.7031 136.125C25.5698 136.757 25.1884 137.164 24.5143 137.185C23.8291 137.206 23.4337 136.81 23.3106 136.171C23.2188 135.695 23.2119 135.202 23.1535 134.718C22.9543 133.068 21.3936 131.735 19.7294 131.79C19.2107 131.807 18.6921 131.864 18.1773 131.739C17.4541 131.564 17.214 131.061 17.2357 130.377C17.2566 129.717 17.6453 129.365 18.2571 129.293C18.8009 129.23 19.3583 129.214 19.9046 129.251C21.5866 129.368 23.4658 127.609 23.211 125.979C23.1608 125.658 23.2316 125.31 23.2904 124.982C23.408 124.327 23.8078 123.97 24.4889 123.955C25.1821 123.939 25.5695 124.321 25.7169 124.952C25.7851 125.243 25.776 125.556 25.7773 125.86C25.7858 127.945 27.1156 129.253 29.227 129.251C29.6849 129.251 30.1462 129.235 30.6001 129.282C31.2948 129.353 31.7502 129.76 31.7642 130.46C31.7777 131.139 31.3891 131.61 30.6941 131.736C30.2767 131.812 29.8461 131.817 29.5688 131.841Z" fill="#213C51"/>
<path d="M11.1771 105.659C11.1574 106.115 10.9075 106.464 10.605 106.771C10.026 107.358 9.46534 107.972 8.82959 108.493C8.17531 109.029 8.2603 109.46 8.81524 109.982C9.43785 110.567 10.0389 111.177 10.6226 111.802C11.2852 112.51 11.342 113.137 10.7744 113.636C10.1121 114.218 9.55677 113.92 9.03916 113.363C8.5199 112.804 7.97305 112.271 7.43387 111.73C6.4986 110.793 6.49964 110.797 5.59448 111.713C4.95046 112.364 4.32011 113.032 3.64164 113.646C3.28636 113.967 2.81677 114.073 2.36527 113.793C1.93683 113.527 1.75762 113.127 1.83 112.619C1.87219 112.323 2.07375 112.132 2.26436 111.937C2.98832 111.194 3.70158 110.439 4.45103 109.723C4.83276 109.358 4.81327 109.087 4.44546 108.738C3.78118 108.107 3.13951 107.452 2.49698 106.799C1.66967 105.958 1.57737 105.4 2.15805 104.848C2.73038 104.304 3.33116 104.445 4.09932 105.256C4.72845 105.921 5.39613 106.549 6.03257 107.208C6.38272 107.57 6.64779 107.58 7.01456 107.187C7.76349 106.384 8.56965 105.635 9.34781 104.859C9.69605 104.512 10.1188 104.459 10.5321 104.641C10.9432 104.823 11.205 105.165 11.1771 105.659Z" fill="#349DD7"/>
<path d="M141.099 60.7244C141.099 59.1686 141.093 57.6128 141.102 56.0571C141.108 55.036 141.727 54.2576 142.52 54.2443C143.373 54.23 144 54.994 144 56.0786C144.001 59.2511 143.987 62.4238 143.992 65.5963C143.993 66.251 143.822 66.813 143.259 67.1803C142.284 67.8162 141.137 67.0827 141.104 65.7575C141.062 64.0808 141.094 62.4022 141.094 60.7245C141.096 60.7244 141.097 60.7244 141.099 60.7244Z" fill="#213F53"/>
<path d="M112.629 0.912688C114.425 0.899504 115.901 2.33425 115.927 4.11776C115.953 5.9605 114.361 7.52752 112.471 7.5185C110.788 7.51043 109.297 5.99276 109.279 4.27162C109.261 2.39063 110.721 0.926652 112.629 0.912688Z" fill="#213E52"/>
<path d="M43.4964 137.387C43.5212 135.474 44.8945 134.16 46.855 134.173C48.6181 134.185 50.115 135.703 50.1083 137.472C50.1018 139.207 48.501 140.723 46.6784 140.721C44.9212 140.719 43.4728 139.201 43.4964 137.387Z" fill="#1F3D53"/>
<path d="M2.15663 28.0259C3.42743 28.0091 4.40716 28.9506 4.38689 30.1692C4.36888 31.2546 3.3347 32.2002 2.13245 32.2304C1.09201 32.2566 0.00797839 31.1958 6.19665e-05 30.1439C-0.00872439 28.9522 0.917843 28.0422 2.15663 28.0259Z" fill="#ABD6E5"/>
<path d="M142.404 106.05C142.395 107.2 141.466 108.085 140.28 108.074C139.097 108.062 138.219 107.162 138.233 105.975C138.246 104.752 139.107 103.922 140.331 103.949C141.517 103.975 142.413 104.884 142.404 106.05Z" fill="#213D4F"/>
<path d="M37.8389 8.99094C34.9625 10.5842 32.1547 12.279 29.5696 14.3259C27.6538 15.8429 25.9715 17.5992 24.2516 19.3195C24.2203 18.7966 23.7573 19.0008 23.4922 18.8714C24.6624 17.3652 26.2263 16.2872 27.6395 15.042C28.8313 13.9919 30.1273 13.0648 31.3709 12.0957C32.1622 11.4791 33.1049 10.9151 34.0311 10.4096C35.1867 9.77883 36.3116 9.09225 37.4496 8.42969C37.4512 8.70515 37.4676 8.97039 37.8389 8.99094Z" fill="#E4F0FA"/>
<path d="M57.9664 148C56.981 148.016 56.3666 147.415 56.3691 146.438C56.3716 145.472 56.9657 144.903 57.9925 144.885C58.6183 144.874 59.6437 145.755 59.6489 146.308C59.6573 147.205 58.882 147.984 57.9664 148Z" fill="#BDDEE8"/>
<path d="M73.6379 124.922C73.6794 125.45 73.3738 125.783 72.9717 125.935C72.5159 126.108 72.0092 126.135 71.6054 125.727C70.4237 124.534 69.2239 123.359 68.0716 122.138C67.8024 121.853 67.5305 121.57 67.2592 121.285C66.2527 120.23 66.2268 120.195 65.256 121.307C64.0522 122.687 62.7356 123.954 61.453 125.256C61.3032 125.408 61.1589 125.57 60.9887 125.697C60.3439 126.175 59.602 126.15 59.1914 125.597C58.7502 125.002 58.8071 124.409 59.3413 123.878C60.8354 122.393 62.3289 120.907 63.8233 119.422C64.7239 118.527 64.7183 118.534 63.7956 117.58C62.2924 116.026 60.6923 114.566 59.2864 112.917C58.8725 112.432 58.7422 111.904 59.191 111.452C59.6731 110.967 60.3312 110.793 60.9226 111.285C61.5077 111.771 62.0771 112.298 62.5525 112.888C63.514 114.081 64.6916 115.061 65.7055 116.198C66.128 116.672 66.42 116.694 66.8686 116.215C68.303 114.68 69.7828 113.188 71.2338 111.668C71.5455 111.342 71.8687 111.147 72.3467 111.157C72.8468 111.168 73.2333 111.277 73.4829 111.751C73.7543 112.266 73.6414 112.736 73.2613 113.087C71.7406 114.492 70.4369 116.118 68.8238 117.424C67.8505 118.212 67.8162 118.429 68.6793 119.322C70.1618 120.858 71.6409 122.396 73.121 123.934C73.3952 124.219 73.7172 124.48 73.6379 124.922Z" fill="#349DD7"/>
<path d="M40.3889 101.822C40.4056 105.233 37.6413 108.052 34.2695 108.063C30.8864 108.074 27.9339 105.192 27.9355 101.88C27.9373 98.5244 30.7718 95.6184 34.0649 95.5963C37.5896 95.5728 40.3719 98.3118 40.3889 101.822Z" fill="#233C4F"/>
<path d="M49.2192 107.721C48.1766 107.705 47.5093 106.988 47.5157 105.889C47.5219 104.809 48.2301 104.085 49.2677 104.096C50.3159 104.108 51.1111 104.858 51.1087 105.832C51.1058 106.956 50.324 107.738 49.2192 107.721Z" fill="#213D50"/>
<path d="M42.8577 112.93C42.8679 114.021 42.1272 114.79 41.0452 114.813C40.0267 114.835 39.3119 114.095 39.2952 113C39.2787 111.92 40.0392 111.171 41.1412 111.182C42.1511 111.192 42.848 111.902 42.8577 112.93Z" fill="#223E50"/>
<path d="M20.6277 94.7018C19.7028 94.6978 19.0583 94.0578 19.0868 93.1718C19.1131 92.3555 19.8865 91.5863 20.6726 91.5948C21.5743 91.6045 22.2297 92.3034 22.2178 93.2425C22.2065 94.1321 21.5812 94.7059 20.6277 94.7018Z" fill="#349DD7"/>
<path d="M127.31 66.167C127.321 68.5865 125.181 70.6654 122.687 70.6589C120.344 70.6528 118.291 68.5399 118.297 66.1396C118.302 63.7326 120.326 61.7454 122.772 61.7441C125.305 61.7428 127.3 63.6863 127.31 66.167Z" fill="#213C51"/>
<path d="M118.534 80.1872C118.507 82.103 116.867 83.6755 114.902 83.6703C113.081 83.6655 111.464 81.9613 111.493 80.0762C111.522 78.1177 113.112 76.5562 115.066 76.5665C116.962 76.5763 118.561 78.2454 118.534 80.1872Z" fill="#223F52"/>
<path d="M111.897 65.2141C110.619 65.2052 109.823 64.3832 109.83 63.0792C109.837 61.8552 110.717 60.9963 111.963 60.998C113.311 60.9999 114.089 61.8035 114.07 63.1746C114.052 64.432 113.209 65.2232 111.897 65.2141Z" fill="#349DD7"/>
<path d="M105.805 79.9366C105.805 80.9434 105.081 81.6936 104.121 81.6814C103.261 81.6705 102.485 80.889 102.488 80.0391C102.492 79.1826 103.268 78.3989 104.119 78.3931C105.183 78.3859 105.804 78.9546 105.805 79.9366Z" fill="#FAFBF8"/>
<path d="M103.947 18.5522C103.955 17.6806 104.506 17.1377 105.376 17.1446C106.159 17.1508 106.912 17.8618 106.882 18.5681C106.846 19.4381 106.201 19.972 105.183 19.9751C104.313 19.9778 103.939 19.547 103.947 18.5522Z" fill="#349DD7"/>
<path d="M105.333 21.8037C106.209 21.803 106.903 22.3382 106.873 22.9922C106.839 23.738 106.051 24.5347 105.335 24.5463C104.573 24.5587 103.945 23.8877 103.951 23.0682C103.958 22.1623 104.349 21.8045 105.333 21.8037Z" fill="#349DD7"/>
<path d="M16.8791 58.6218C16.0697 55.1812 15.8307 51.6892 16.0497 48.1738C16.5009 40.9319 18.5041 34.1483 22.383 27.9834C28.868 17.6764 38.0775 11.1459 50.0381 8.66345C58.898 6.82461 67.5673 7.71606 75.7434 11.6065C86.8723 16.9019 94.5294 25.4128 98.504 37.1203C99.339 39.5798 100.006 42.0792 100.304 44.6663C100.418 45.6904 100.418 45.6904 99.4611 45.4267C98.3835 45.1299 97.3395 45.8281 97.2638 47.0048C97.1935 48.0988 97.0449 49.1953 97.0549 50.2861C97.0987 55.0594 95.9398 59.5872 94.3307 64.0261C92.6861 68.5631 90.0471 72.482 86.8955 76.119C84.3606 79.0443 81.4031 81.4596 78.1034 83.3812C73.5532 86.0311 68.5996 87.6539 63.3476 88.3855C58.4209 89.0718 53.5734 88.6809 48.7914 87.4986C42.9358 86.0509 37.6945 83.3521 33.1768 79.3351C28.4675 75.1475 24.851 70.1832 22.5662 64.2902C22.3567 63.7497 22.0991 63.2294 21.8899 62.6878C21.7121 62.227 21.4781 62.0559 21.0258 62.499C20.0266 63.478 19.5813 63.4087 18.6075 62.3924C17.5845 61.3246 17.3548 59.9235 16.8791 58.6218Z" fill="#FBFDFD"/>
<path d="M16.8789 58.6215C17.6314 59.7899 17.8277 61.2397 18.8265 62.2952C19.7252 63.2447 20.1807 63.2498 20.945 62.1562C21.3123 61.6306 21.7107 61.665 22.0207 62.3079C22.3352 62.9605 22.5897 63.643 22.8493 64.3205C24.5831 68.8451 27.2478 72.7602 30.4874 76.3543C33.573 79.7775 37.1998 82.4501 41.2872 84.4857C45.1456 86.4072 49.2388 87.6476 53.5551 88.1283C55.6513 88.3618 57.7443 88.5395 59.8495 88.4604C62.5632 88.3585 65.2313 87.931 67.8619 87.2483C70.3088 86.6134 72.6967 85.7993 74.9853 84.7456C77.8383 83.4322 80.4477 81.7046 82.8781 79.7156C85.853 77.2812 88.282 74.3442 90.4293 71.1989C92.0409 68.8384 93.2879 66.2582 94.2686 63.5521C95.0579 61.374 95.6903 59.1512 96.1334 56.8936C96.4874 55.0903 96.8512 53.2689 96.8139 51.397C96.785 49.9402 96.8884 48.4787 96.9782 47.0221C97.0787 45.3919 98.5368 44.7001 100.231 45.4782C100.256 45.1999 100.28 44.933 100.303 44.666C100.778 46.8893 100.771 49.148 100.695 51.3964C100.269 63.9287 95.2053 74.3343 85.8732 82.6254C79.1674 88.5833 71.2264 91.9863 62.2553 92.685C49.2083 93.7011 37.8701 89.7356 28.5747 80.4744C22.5947 74.5164 18.7093 67.343 16.927 59.0734C16.8953 58.9261 16.8942 58.7723 16.8789 58.6215Z" fill="#E4F0FA"/>
<path d="M137.025 135.546C135.148 138.348 131.5 139.867 128.717 136.704C128.476 136.429 128.199 136.186 127.945 135.923C125.767 133.662 123.66 131.328 121.395 129.158C119.185 127.039 117.144 124.757 114.919 122.648C113.613 121.411 112.384 120.035 111.136 118.713C110.06 117.572 108.931 116.455 107.871 115.302C105.747 112.992 103.391 110.905 101.384 108.486C101.004 108.028 101.017 107.767 101.43 107.364C103.104 105.731 104.924 104.249 106.507 102.521C107.112 101.861 107.74 101.222 108.358 100.574C108.622 100.781 108.603 101.163 108.858 101.375C108.989 101.541 109.144 101.693 109.158 101.922C109.032 102.27 108.806 102.502 108.414 102.477C108.07 102.455 107.842 102.642 107.605 102.841C106.021 104.179 106.046 104.943 107.503 106.428C109.083 108.038 110.667 109.645 112.219 111.284C114.904 114.118 117.639 116.907 120.37 119.698C121.501 120.854 122.602 122.041 123.751 123.18C126.289 125.695 128.691 128.342 131.234 130.855C132.609 132.213 134.06 132.841 135.933 132.057C136.108 131.984 136.29 131.965 136.446 132.119C137.081 132.931 137.102 133.883 137.066 134.846C137.058 135.079 136.927 135.306 137.025 135.546Z" fill="#165076"/>
<path d="M109.074 101.903C108.958 101.758 108.842 101.614 108.726 101.469C108.462 100.962 108.433 100.567 109.12 100.367C109.658 100.21 109.838 99.4457 110.521 99.488C112.939 101.592 115.059 103.995 117.296 106.278C123.013 112.112 128.695 117.98 134.363 123.861C135.438 124.976 136.646 126.004 137.382 127.397C138.848 130.169 138.675 132.897 137.025 135.546C136.686 135.268 136.827 134.879 136.823 134.543C136.815 133.672 136.661 132.841 136.297 132.049C135.674 131.108 135.623 129.899 134.851 129.02C134.55 128.678 134.296 128.295 133.975 127.966C130.439 124.339 126.926 120.688 123.417 117.035C119.908 113.383 116.339 109.787 112.867 106.099C111.947 105.122 111.028 104.144 110.071 103.202C109.682 102.819 109.294 102.422 109.074 101.903Z" fill="#E4F0FA"/>
<path d="M130.15 140.852C128.299 140.848 127.048 139.868 125.84 138.775C123.467 136.632 121.332 134.253 119.069 132C115.666 128.613 112.325 125.163 108.947 121.751C108.174 120.97 107.449 120.152 106.804 119.264C106.418 118.732 105.809 118.463 105.368 117.996C103.217 115.72 101.052 113.459 98.9111 111.173C98.5678 110.807 98.1055 110.465 98.7452 109.834C99.8492 108.744 100.191 108.75 100.817 109.322C102.02 110.423 103.116 111.641 104.179 112.885C104.929 113.762 105.697 114.642 106.566 115.395C108.003 116.641 109.14 118.16 110.499 119.476C112.422 121.337 114.24 123.305 116.109 125.22C118.603 127.775 121.128 130.3 123.593 132.882C125.712 135.101 127.82 137.327 130.175 139.306C130.511 139.588 130.863 140.016 130.926 140.421C131.046 141.192 130.312 140.628 130.15 140.852Z" fill="#165076"/>
<path d="M106.171 97.8192C103.734 100.375 101.114 102.745 98.5848 105.207C97.8865 105.887 97.2066 106.59 96.4633 107.217C95.4349 108.086 94.0752 108.015 93.1435 107.114C92.2304 106.232 92.1446 105.062 92.9158 104.011C93.8726 104.696 93.8452 104.666 94.7647 103.825C97.8464 101.007 100.806 98.0619 103.856 95.2108C104.32 94.7773 104.864 94.7325 105.384 94.9784C106.015 95.2766 106.278 95.8769 106.314 96.5507C106.336 96.9753 106.214 97.3953 106.171 97.8192Z" fill="#BDD6E4"/>
<path d="M106.171 97.8192C105.792 97.5511 106.031 97.1993 106.078 96.901C106.196 96.16 105.954 95.5113 105.355 95.1724C104.75 94.8298 104.262 95.156 103.725 95.6792C100.613 98.7113 97.4353 101.676 94.2555 104.638C93.3961 105.438 93.2719 104.418 92.916 104.011C93.7799 102.855 94.9679 102.029 95.9857 101.029C98.4655 98.5924 100.995 96.2058 103.507 93.8025C103.816 93.5076 104.123 93.2051 104.466 92.954C105.515 92.1858 106.861 92.3687 107.753 93.3761C108.612 94.3456 108.604 95.5199 107.676 96.4917C107.216 96.9735 106.675 97.3791 106.171 97.8192Z" fill="#F6F9FB"/>
<path d="M92.2071 93.6132C93.4782 92.3903 94.7591 91.1774 96.0132 89.9375C96.3246 89.6297 96.5007 89.7314 96.7399 89.9908C97.5041 90.8198 98.2755 91.6426 99.0559 92.4565C99.2685 92.6783 99.3957 92.8068 99.0819 93.0932C97.7562 94.3038 96.464 95.5507 95.1596 96.7843C94.1283 96.1682 93.2695 95.3592 92.5411 94.4136C92.3651 94.1851 92.0978 93.9703 92.2071 93.6132Z" fill="#FAFDFC"/>
<path d="M89.6203 91.2123C89.4891 91.377 89.355 91.5396 89.227 91.7068C88.8958 92.1399 88.6283 92.1641 88.2415 91.7045C87.299 90.5846 86.3124 89.5002 85.3125 88.4304C85.0185 88.116 85.0633 87.977 85.3792 87.7324C86.9749 86.4973 88.4272 85.101 89.8526 83.6783C90.094 83.4373 90.2246 83.3458 90.4885 83.6484C91.0482 84.2903 91.6453 84.8997 92.227 85.5224C91.2338 86.5917 90.1606 87.5818 89.1397 88.6236C88.3225 89.4574 88.3201 89.4528 89.0959 90.2915C89.3413 90.557 89.6377 90.7968 89.6203 91.2123Z" fill="#B7D1E0"/>
<path d="M89.6194 91.2123C89.227 90.792 88.8384 90.3681 88.4408 89.9528C88.2094 89.7113 88.0391 89.4419 88.3203 89.1607C89.5422 87.9384 90.6801 86.6291 92.0487 85.5582C92.0911 85.525 92.1663 85.5335 92.2262 85.5225C93.8072 87.109 93.8182 87.1197 92.2641 88.6846C91.4051 89.5495 90.5023 90.3711 89.6194 91.2123Z" fill="#F8FAFA"/>
<path d="M92.2068 93.6133C92.8793 94.5538 93.6301 95.4175 94.5763 96.1019C94.8181 96.2769 95.0552 96.4809 95.1593 96.7846C95.0993 96.8858 95.0548 97.0013 94.9768 97.086C94.1636 97.969 94.1645 97.9653 93.3289 97.0739C92.7705 96.4781 92.2332 95.858 91.632 95.3081C91.0743 94.7981 91.0312 94.4147 91.7251 94.024C91.9056 93.9223 92.0473 93.752 92.2068 93.6133Z" fill="#BBD0DB"/>
<path d="M110.522 99.4878C109.919 99.7847 109.707 100.578 108.898 100.666C108.573 100.701 108.801 101.194 108.727 101.469C108.282 101.302 108.305 100.944 108.358 100.574C108.837 100.162 109.333 99.7682 109.788 99.3316C110.147 98.9873 110.351 99.0932 110.522 99.4878Z" fill="#C2E1F5"/>
<path d="M134.997 18.7067C135.002 19.3275 134.336 19.9888 133.704 19.9919C133.076 19.995 132.428 19.3406 132.42 18.6965C132.412 18.0324 133.032 17.4103 133.694 17.417C134.3 17.4232 134.992 18.1084 134.997 18.7067Z" fill="#F0F7F9"/>
<path d="M17.3068 7.21226C15.9765 7.95835 15.0391 8.891 14.3052 10.1233C13.4835 8.92075 12.5975 7.94013 11.3066 7.16855C12.5549 6.47321 13.4632 5.51697 14.1864 4.29932C15.0459 5.46745 15.9211 6.50391 17.3068 7.21226Z" fill="#C2E1F5"/>
<path d="M24.6388 132.252C23.9454 131.49 23.4755 130.987 23.0288 130.464C22.9739 130.4 24.4514 129.085 24.5165 129.144C25.0187 129.598 25.9217 130.083 25.9022 130.523C25.8767 131.1 25.1199 131.645 24.6388 132.252Z" fill="#C2E1F5"/>
<path d="M113.721 4.15593C113.734 4.78865 113.21 5.36014 112.59 5.31608C111.889 5.26638 111.473 4.85613 111.471 4.14526C111.469 3.46206 111.879 3.09119 112.547 3.04297C113.19 2.99656 113.707 3.50768 113.721 4.15593Z" fill="#C2E1F5"/>
<path d="M45.672 137.126C45.6802 136.705 46.1237 136.337 46.769 136.341C47.4453 136.346 47.7927 136.857 47.8733 137.483C47.9432 138.026 47.326 138.635 46.7896 138.63C46.1713 138.625 45.6636 138.079 45.672 137.126Z" fill="#C2E1F5"/>
<path d="M34.2592 98.335C36.1169 98.3466 37.6882 99.9718 37.6931 101.887C37.6981 103.866 36.149 105.344 34.0971 105.319C32.2814 105.297 30.6322 103.571 30.6645 101.728C30.6975 99.8558 32.3214 98.323 34.2592 98.335Z" fill="#C2E1F5"/>
<path d="M124.719 66.2412C124.717 67.2534 123.83 68.1226 122.782 68.1395C121.771 68.1558 120.875 67.2651 120.862 66.2301C120.847 65.1109 121.69 64.2801 122.822 64.2976C123.83 64.3132 124.72 65.2252 124.719 66.2412Z" fill="#C2E1F5"/>
<path d="M113.711 80.1063C113.73 79.4132 114.255 78.8801 114.914 78.8853C115.682 78.8914 116.29 79.4754 116.263 80.1823C116.238 80.8784 115.626 81.4682 114.96 81.4402C114.306 81.4128 113.693 80.758 113.711 80.1063Z" fill="#C2E1F5"/>
<path d="M21.5108 50.4673C21.5528 30.1229 38.2862 13.4702 58.6337 13.5231C78.8228 13.5756 95.3278 30.3232 95.215 50.7294C95.1093 69.866 79.7259 87.1162 58.2452 87.1342C35.9894 87.1527 21.3663 68.3602 21.5108 50.4673Z" fill="#184462"/>
<path d="M109.074 101.903C110.225 103.064 111.388 104.213 112.526 105.387C115.789 108.755 119.043 112.132 122.298 115.507C126.296 119.653 130.303 123.79 134.282 127.953C135.373 129.094 136.083 130.459 136.297 132.048C134.787 133.028 132.979 132.875 131.625 131.517C128.269 128.149 124.956 124.738 121.631 121.339C120.381 120.062 119.142 118.775 117.904 117.486C115.239 114.713 112.592 111.92 109.908 109.166C108.747 107.974 107.505 106.86 106.479 105.544C105.96 104.879 106.009 104.106 106.603 103.511C107.033 103.081 107.488 102.675 107.947 102.275C108.264 101.998 108.842 102.466 109.074 101.903Z" fill="#184462"/>
<path d="M49.5558 82.2625C47.3189 81.7282 45.1652 80.9767 43.1617 79.8322C41.7029 78.8565 40.5688 77.5291 39.3305 76.3147C35.9307 72.9807 33.6213 68.9573 31.8787 64.5778C30.6436 61.4737 29.6763 58.2938 29.4357 54.9459C29.2104 51.8113 29.1254 48.6728 29.696 45.555C30.3383 42.0448 31.4368 38.7045 33.2693 35.6161C35.4791 31.8917 38.4665 28.9462 42.113 26.6284C46.8673 23.6065 52.0891 21.8646 57.6368 21.1207C61.4059 20.6153 65.2027 20.485 68.9301 21.5205C72.7082 22.57 76.0448 24.4616 78.9564 27.0526C81.7285 29.5195 83.8755 32.4634 85.3204 35.9022C86.3397 38.3283 86.8036 40.8765 86.9139 43.4718C87.1007 47.8723 86.8325 52.2472 85.8391 56.5617C84.6038 61.9264 82.2771 66.7152 78.5716 70.8392C74.8825 74.9449 70.307 77.6441 65.1807 79.5276C60.9561 81.0798 56.5513 81.7778 52.1064 82.2752C51.2641 82.3693 50.4056 82.3602 49.5558 82.2625Z" fill="#C2E5EF"/>
<path d="M49.5558 82.2623C52.4249 81.94 55.3037 81.7013 58.1453 81.1551C61.7148 80.4689 65.1522 79.408 68.4641 77.8926C71.632 76.4432 74.4747 74.5286 76.9939 72.1619C78.5444 70.7053 79.8713 69.0244 81.0646 67.2531C83.5099 63.6233 85.0217 59.6138 85.8419 55.3428C86.665 51.0568 86.905 46.7388 86.5417 42.3755C86.3143 39.6452 85.6943 37.0508 84.4557 34.6148C82.5447 30.8564 79.8521 27.7748 76.3834 25.3468C74.5216 24.0437 72.5114 23.0405 70.4089 22.2332C68.5586 21.5228 66.6138 21.1267 64.6189 21.0772C61.3812 20.9969 58.155 21.0802 54.9765 21.8058C50.7091 22.7798 46.6212 24.1609 42.8536 26.4769C40.8104 27.7329 38.8928 29.1399 37.2345 30.8139C35.2216 32.8459 33.6041 35.2154 32.3545 37.8246C31.0557 40.5366 30.2671 43.4025 29.8102 46.336C29.3651 49.1931 29.4552 52.0917 29.7047 54.9826C30.0868 59.4108 31.5414 63.514 33.4282 67.4834C34.0918 68.8794 34.9196 70.1953 35.7309 71.5207C37.3615 74.1847 39.6926 76.2019 41.7513 78.4721C42.1915 78.9574 42.9551 79.1077 43.1617 79.8321C40.6779 78.7901 38.5864 77.1624 36.5738 75.4234C30.2706 69.9768 26.6534 63.0383 25.4021 54.8919C24.5228 49.167 25.3418 43.5758 27.5283 38.217C31.2663 29.0559 37.8061 22.6403 47.0534 19.1396C61.0236 13.8508 76.8966 18.9469 85.4 31.1856C89.5571 37.1688 91.6747 43.7513 91.6335 51.0078C91.5606 63.8402 83.1461 76.1176 71.2298 80.9692C66.4232 82.9262 61.4673 83.8871 56.281 83.5085C53.9989 83.342 51.7329 83.0238 49.5558 82.2623Z" fill="#8CBED2"/>
<path d="M31.7363 52.5737C31.926 49.0776 32.2304 45.9034 33.311 42.813C35.0416 37.8636 37.9108 33.7524 41.9387 30.4193C45.0722 27.8264 48.5442 25.8543 52.5088 24.8383C55.0993 24.1744 56.8069 24.7718 58.0293 26.656C59.1286 28.3505 58.8459 30.9559 57.5225 32.5065C56.2601 33.9856 54.4955 34.7108 52.9344 35.7306C49.658 37.8711 46.8135 40.4189 44.5747 43.6512C42.6495 46.4305 41.2709 49.4273 40.6335 52.7387C40.3536 54.1924 40.3256 55.6948 40.0376 57.1464C39.5768 59.4696 38.2383 60.3186 36.0535 60.4157C34.2271 60.4969 32.4331 58.8348 32.1512 56.9193C31.9263 55.391 31.8523 53.8408 31.7363 52.5737Z" fill="#FCFCFC"/>
<path d="M66.2255 31.514C64.0081 31.4476 62.3992 29.6867 62.3 27.5704C62.2049 25.538 64.2722 23.4237 66.6342 23.5991C68.8858 23.7663 70.5517 25.3786 70.5201 27.6813C70.4915 29.7726 68.8282 31.6111 66.2255 31.514Z" fill="#FCFEFD"/>
</svg>
