<svg width="20" height="20" viewBox="0 0 20 20" fill="none" xmlns="http://www.w3.org/2000/svg">
<path d="M12.9921 18.0501C12.8337 18.0501 12.6754 17.9917 12.5504 17.8667C12.3087 17.6251 12.3087 17.2251 12.5504 16.9834L14.9004 14.6334C15.1421 14.3917 15.5421 14.3917 15.7837 14.6334C16.0254 14.8751 16.0254 15.2751 15.7837 15.5167L13.4337 17.8667C13.3087 17.9917 13.1504 18.0501 12.9921 18.0501Z" fill="#349DD7"/>
<path d="M15.3421 18.0501C15.1837 18.0501 15.0254 17.9917 14.9004 17.8667L12.5504 15.5167C12.3087 15.2751 12.3087 14.8751 12.5504 14.6334C12.7921 14.3917 13.1921 14.3917 13.4337 14.6334L15.7837 16.9834C16.0254 17.2251 16.0254 17.6251 15.7837 17.8667C15.6587 17.9917 15.5004 18.0501 15.3421 18.0501Z" fill="#349DD7"/>
<path d="M10.1331 9.68341C10.1081 9.68341 10.0915 9.68341 10.0665 9.68341C10.0248 9.67508 9.96647 9.67508 9.91647 9.68341C7.4998 9.60841 5.6748 7.70841 5.6748 5.36675C5.6748 2.98341 7.61647 1.04175 9.9998 1.04175C12.3831 1.04175 14.3248 2.98341 14.3248 5.36675C14.3165 7.70841 12.4831 9.60841 10.1581 9.68341C10.1498 9.68341 10.1415 9.68341 10.1331 9.68341ZM9.9998 2.29175C8.30814 2.29175 6.92481 3.67508 6.92481 5.36675C6.92481 7.03341 8.2248 8.37508 9.88314 8.43341C9.93314 8.42508 10.0415 8.42508 10.1498 8.43341C11.7831 8.35841 13.0665 7.01675 13.0748 5.36675C13.0748 3.67508 11.6915 2.29175 9.9998 2.29175Z" fill="#349DD7"/>
<path d="M10.0003 18.8001C8.30026 18.8001 6.69193 18.3584 5.47526 17.5417C4.31693 16.7667 3.68359 15.7084 3.68359 14.5667C3.68359 13.4251 4.32526 12.3751 5.47526 11.6084C7.96693 9.94173 12.0169 9.94173 14.5086 11.6084C14.7919 11.8001 14.8753 12.1917 14.6836 12.4751C14.4919 12.7667 14.1003 12.8417 13.8169 12.6501C11.7419 11.2667 8.24193 11.2667 6.16693 12.6501C5.36693 13.1834 4.93359 13.8584 4.93359 14.5667C4.93359 15.2751 5.37526 15.9667 6.16693 16.5001C7.17526 17.1751 8.53359 17.5417 9.99193 17.5417C10.3336 17.5417 10.6169 17.8251 10.6169 18.1667C10.6169 18.5084 10.3419 18.8001 10.0003 18.8001Z" fill="#349DD7"/>
</svg>
