<svg xmlns="http://www.w3.org/2000/svg" width="47" height="47" viewBox="0 0 47 47">
  <g id="Group_52439" data-name="Group 52439" transform="translate(-219 -661)">
    <g id="Group_25" data-name="Group 25" transform="translate(58 -18)">
      <g id="Group_23" data-name="Group 23" transform="translate(77 -12)">
        <circle id="Ellipse_1" data-name="Ellipse 1" cx="23.5" cy="23.5" r="23.5" transform="translate(84 691)"/>
      </g>
    </g>
    <path id="Icon_awesome-apple" data-name="Icon awesome-apple" d="M17.836,14.933a4.973,4.973,0,0,1,2.789-4.544A6.065,6.065,0,0,0,15.9,8c-1.98-.15-4.145,1.109-4.937,1.109-.837,0-2.756-1.056-4.262-1.056C3.589,8.1.281,10.437.281,15.19a12.883,12.883,0,0,0,.8,4.351c.714,1.966,3.291,6.789,5.98,6.708,1.406-.032,2.4-.959,4.228-.959,1.774,0,2.694.959,4.262.959,2.711-.038,5.043-4.42,5.723-6.392a5.279,5.279,0,0,1-3.442-4.924Zm-3.157-8.8A4.91,4.91,0,0,0,16.017,2.25,6,6,0,0,0,12.23,4.12,5.007,5.007,0,0,0,10.8,7.972a4.756,4.756,0,0,0,3.877-1.838Z" transform="translate(231.719 669.75)" fill="#fff"/>
  </g>
</svg>
