<svg id="vuesax_linear_bag-happy" data-name="vuesax/linear/bag-happy" xmlns="http://www.w3.org/2000/svg" width="24" height="24" viewBox="0 0 24 24">
  <g id="bag-happy">
    <path id="Vector" d="M7,0A3.517,3.517,0,0,1,3.5,3.5,3.517,3.517,0,0,1,0,0" transform="translate(8.5 14.25)" fill="none" stroke="#76787b" stroke-linecap="round" stroke-linejoin="round" stroke-width="1.5"/>
    <path id="Vector-2" data-name="Vector" d="M0,0,3.62,3.63" transform="translate(15.19 2)" fill="none" stroke="#76787b" stroke-linecap="round" stroke-linejoin="round" stroke-width="1.5"/>
    <path id="Vector-3" data-name="Vector" d="M3.62,0,0,3.63" transform="translate(5.19 2)" fill="none" stroke="#76787b" stroke-linecap="round" stroke-linejoin="round" stroke-width="1.5"/>
    <path id="Vector-4" data-name="Vector" d="M20,2c0-1.85-.99-2-2.22-2H2.22C.99,0,0,.15,0,2,0,4.15.99,4,2.22,4H17.78C19.01,4,20,4.15,20,2Z" transform="translate(2 5.85)" fill="none" stroke="#76787b" stroke-width="1.5"/>
    <path id="Vector-5" data-name="Vector" d="M17,0,15.59,8.64C15.27,10.58,14.5,12,11.64,12H5.61C2.5,12,2.04,10.64,1.68,8.76L0,0" transform="translate(3.5 10)" fill="none" stroke="#76787b" stroke-linecap="round" stroke-width="1.5"/>
    <path id="Vector-6" data-name="Vector" d="M24,0H0V24H24Z" fill="none" opacity="0"/>
  </g>
</svg>
