<svg id="menu" xmlns="http://www.w3.org/2000/svg" width="21" height="21" viewBox="0 0 21 21">
  <g id="Group_10427" data-name="Group 10427">
    <g id="Group_10426" data-name="Group 10426">
      <path id="Path_11765" data-name="Path 11765" d="M7.086,0H2.373A2.376,2.376,0,0,0,0,2.373V7.086A2.376,2.376,0,0,0,2.373,9.459H7.086A2.376,2.376,0,0,0,9.459,7.086V2.373A2.376,2.376,0,0,0,7.086,0Zm.77,7.086a.771.771,0,0,1-.77.77H2.373a.771.771,0,0,1-.77-.77V2.373a.771.771,0,0,1,.77-.77H7.086a.771.771,0,0,1,.77.77Z" fill="#8b8b8b"/>
    </g>
  </g>
  <g id="Group_10429" data-name="Group 10429" transform="translate(11.541)">
    <g id="Group_10428" data-name="Group 10428">
      <path id="Path_11766" data-name="Path 11766" d="M283.054,0H278.4A2.407,2.407,0,0,0,276,2.4V7.054a2.407,2.407,0,0,0,2.4,2.4h4.649a2.407,2.407,0,0,0,2.4-2.4V2.4A2.407,2.407,0,0,0,283.054,0Zm.8,7.054a.8.8,0,0,1-.8.8H278.4a.8.8,0,0,1-.8-.8V2.4a.8.8,0,0,1,.8-.8h4.649a.8.8,0,0,1,.8.8Z" transform="translate(-276)" fill="#8b8b8b"/>
    </g>
  </g>
  <g id="Group_10431" data-name="Group 10431" transform="translate(0 11.541)">
    <g id="Group_10430" data-name="Group 10430">
      <path id="Path_11767" data-name="Path 11767" d="M7.086,276H2.373A2.376,2.376,0,0,0,0,278.373v4.713a2.376,2.376,0,0,0,2.373,2.373H7.086a2.376,2.376,0,0,0,2.373-2.373v-4.713A2.376,2.376,0,0,0,7.086,276Zm.77,7.086a.771.771,0,0,1-.77.77H2.373a.771.771,0,0,1-.77-.77v-4.713a.771.771,0,0,1,.77-.77H7.086a.771.771,0,0,1,.77.77Z" transform="translate(0 -276)" fill="#8b8b8b"/>
    </g>
  </g>
  <g id="Group_10433" data-name="Group 10433" transform="translate(11.541 11.541)">
    <g id="Group_10432" data-name="Group 10432">
      <path id="Path_11768" data-name="Path 11768" d="M283.054,276H278.4a2.407,2.407,0,0,0-2.4,2.4v4.649a2.407,2.407,0,0,0,2.4,2.4h4.649a2.407,2.407,0,0,0,2.4-2.4V278.4A2.407,2.407,0,0,0,283.054,276Zm.8,7.054a.8.8,0,0,1-.8.8H278.4a.8.8,0,0,1-.8-.8V278.4a.8.8,0,0,1,.8-.8h4.649a.8.8,0,0,1,.8.8Z" transform="translate(-276 -276)" fill="#8b8b8b"/>
    </g>
  </g>
</svg>
