<svg width="200" height="148" viewBox="0 0 200 148" fill="none" xmlns="http://www.w3.org/2000/svg">
<path d="M72.452 133.427C72.452 133.427 127.059 135.277 130.525 133.427C133.992 131.576 152.376 95.1734 152.376 95.1734L149.1 87.3823L107.562 90.636L69.1816 125.632L72.452 133.427Z" fill="#1A75AF"/>
<path fill-rule="evenodd" clip-rule="evenodd" d="M69.1819 125.632C68.0063 123.022 107.563 90.636 107.563 90.636C107.563 90.636 148.033 85.7834 149.1 87.3823C150.166 88.9812 130.575 124.472 127.251 125.632C123.927 126.792 70.3576 128.243 69.1819 125.632Z" fill="#4FADE1"/>
<path d="M80.4063 122.318C80.0063 122.318 79.6076 122.157 79.3151 121.838C78.7594 121.233 78.7972 120.29 79.3997 119.732L108.96 92.3495C109.562 91.7913 110.501 91.8295 111.057 92.4345C111.613 93.0395 111.575 93.9823 110.972 94.5405L81.4122 121.923C81.1269 122.188 80.7661 122.318 80.4063 122.318Z" fill="#E4F0FA"/>
<path d="M183.367 107.309C180.186 111.218 173.787 113.719 164.561 114.728L166.041 111.551C175.527 110.247 179.454 107.407 181.068 105.424C183.019 103.026 183.149 100.141 181.452 96.8496C180.317 94.649 178.409 92.4238 175.93 90.3373L177.233 87.5405C180.307 90.0158 182.667 92.7244 184.087 95.4784C186.315 99.8005 186.059 104.002 183.367 107.309Z" fill="#184462"/>
<path d="M158.56 112.178L157.15 115.202C156.248 115.223 155.327 115.234 154.385 115.234C152.64 115.234 150.831 115.197 148.953 115.12C127.541 114.255 98.4378 108.595 62.4529 98.3011C61.6645 98.0756 61.2076 97.2513 61.4322 96.4595C61.6567 95.6676 62.4775 95.2089 63.2659 95.4344C99.0249 105.664 127.895 111.286 149.073 112.142C152.596 112.285 155.745 112.287 158.56 112.178Z" fill="#184462"/>
<path d="M177.234 87.5403L175.931 90.337C174.34 88.9983 172.515 87.7178 170.51 86.5398C169.108 85.7168 167.618 84.9431 166.058 84.2342C157.852 80.5083 148.385 78.8041 139.398 79.4352C138.582 79.4935 137.871 78.8741 137.814 78.0524C137.756 77.2321 138.373 76.5193 139.191 76.4623C148.658 75.7974 158.635 77.5924 167.28 81.5179C168.854 82.2333 170.357 83.0056 171.776 83.826C173.773 84.9794 175.605 86.2262 177.234 87.5403Z" fill="#184462"/>
<path d="M199.985 67.7054C199.807 73.2353 197.94 78.4076 194.435 83.0809C190.806 87.9188 185.531 92.0815 178.753 95.4536C176.696 96.4774 174.519 97.4183 172.229 98.2762L174.027 94.4168C181.804 91.1263 187.985 86.7252 192.064 81.2872C198.515 72.6871 198.682 62.3595 192.548 51.4188C192.147 50.7021 192.4 49.7936 193.114 49.3893C193.827 48.985 194.733 49.2403 195.134 49.9569C198.537 56.0247 200.17 61.9966 199.985 67.7054Z" fill="#184462"/>
<path d="M165.438 97.4211L163.808 100.918C160.962 101.654 157.983 102.282 154.88 102.801C147.92 103.962 140.511 104.54 132.773 104.54C118.961 104.54 104.098 102.701 88.825 99.0579C88.0275 98.8674 87.5345 98.0639 87.7242 97.2643C87.9139 96.4633 88.714 95.9683 89.5115 96.1575C118.166 102.991 145.451 103.127 165.438 97.4211Z" fill="#184462"/>
<path d="M100.527 114.478C100.41 114.478 100.292 114.464 100.174 114.435L68.8298 106.753C68.0336 106.558 67.5457 105.752 67.7399 104.952C67.9342 104.153 68.7372 103.663 69.5335 103.858L100.877 111.54C101.674 111.735 102.161 112.541 101.967 113.341C101.802 114.022 101.195 114.478 100.527 114.478Z" fill="#184462"/>
<path fill-rule="evenodd" clip-rule="evenodd" d="M90.5185 92.5997C88.2697 97.9519 21.3902 120.887 16.7165 119.504C12.0428 118.12 -2.21113 78.8678 0.292647 74.0646C2.79642 69.2614 68.7762 45.7518 74.0947 47.1609C79.4132 48.57 92.7673 87.2475 90.5185 92.5997Z" fill="#1A75AF"/>
<path d="M19.9243 116.509C19.6626 116.509 19.3977 116.44 19.1575 116.294C18.4561 115.868 18.2317 114.952 18.6559 114.247L41.5495 76.245C41.911 75.6449 42.6401 75.3792 43.3006 75.6065L72.2309 85.5684C73.0062 85.8353 73.4192 86.6829 73.1533 87.4615C72.8875 88.2402 72.0433 88.6549 71.2682 88.3879L43.4696 78.8159L21.1954 115.79C20.9164 116.253 20.4264 116.509 19.9243 116.509Z" fill="#184462"/>
<path d="M54.7537 94.3623C59.0619 90.0357 59.0619 83.0209 54.7537 78.6943C50.4455 74.3677 43.4605 74.3677 39.1523 78.6943C34.8441 83.0209 34.8441 90.0357 39.1523 94.3623C43.4605 98.6889 50.4455 98.6889 54.7537 94.3623Z" fill="#165076"/>
<path fill-rule="evenodd" clip-rule="evenodd" d="M74.0947 48.002L47.9929 91.3307L0.292969 74.9056L74.0947 48.002Z" fill="#1A75AF"/>
<path d="M47.9927 92.8214C47.8324 92.8214 47.6701 92.7952 47.5116 92.7406L9.61635 79.6921C8.84103 79.4251 8.42808 78.5775 8.69392 77.7989C8.95963 77.0203 9.80373 76.6053 10.579 76.8725L47.3425 89.5314L70.4796 51.1249C70.9039 50.4205 71.8164 50.1952 72.5175 50.6212C73.2188 51.0473 73.4433 51.9635 73.0191 52.6678L49.2626 92.1024C48.988 92.5584 48.5007 92.8214 47.9927 92.8214Z" fill="#184462"/>
<path fill-rule="evenodd" clip-rule="evenodd" d="M176.068 53.0667L145.124 45.6355C152.455 20.9277 85.4847 10.8268 80.7357 37.3866L45.2335 34.4862C35.1033 7.61146 55.1895 -10.0735 119.325 6.3116C184.796 23.0388 192.856 30.2302 176.068 53.0667Z" fill="#1A75AF"/>
<path d="M80.7336 37.3864C81.3065 33.0756 73.7675 28.5081 63.8946 27.1847C54.0217 25.8613 45.5537 28.2831 44.9808 32.594C44.4078 36.9048 51.9469 41.4722 61.8198 42.7956C71.6927 44.119 80.1607 41.6972 80.7336 37.3864Z" fill="#165E8E"/>
<path d="M176.681 51.9069C177.306 48.731 170.748 44.7548 162.033 43.0257C153.318 41.2967 145.746 42.4696 145.121 45.6455C144.497 48.8214 151.055 52.7977 159.77 54.5267C168.485 56.2557 176.057 55.0828 176.681 51.9069Z" fill="#165E8E"/>
<path d="M159.678 69.7716L137.793 39.3676L90.4817 31.2646L76.3663 49.4716L61.8789 90.6604L138.643 84.1278L159.678 69.7716Z" fill="#165E8E"/>
<path fill-rule="evenodd" clip-rule="evenodd" d="M159.678 69.7716L74.3848 77.0301L90.4817 31.2646L137.793 39.3676L159.678 69.7716Z" fill="#1A75AF"/>
<path d="M99.416 46.851C99.416 57.4205 107.948 65.9888 118.473 65.9888C123.377 65.9888 127.848 64.1285 131.225 61.0723L131.227 61.0702L134.456 58.1479L134.458 58.1458C138.327 54.6432 140.759 49.5703 140.759 43.9271C140.759 39.6933 139.39 35.7806 137.073 32.6111C133.604 27.8685 128.012 24.79 121.704 24.79C116.801 24.79 112.33 26.6495 108.954 29.7044C108.953 29.705 108.952 29.7057 108.951 29.7063L105.725 32.6257L105.722 32.6276L105.72 32.6297C101.849 36.1326 99.416 41.2065 99.416 46.851Z" fill="#165076"/>
<path d="M121.704 63.064C132.229 63.064 140.76 54.496 140.76 43.9268C140.76 33.3576 132.229 24.7896 121.704 24.7896C111.18 24.7896 102.648 33.3576 102.648 43.9268C102.648 54.496 111.18 63.064 121.704 63.064Z" fill="#E4F0FA"/>
<path d="M114.633 41.8706C114.633 47.1604 118.903 51.4486 124.17 51.4486C126.425 51.4486 128.497 50.6627 130.13 49.349L131.934 47.8968C134.114 46.1415 135.511 43.4437 135.511 40.4186C135.511 38.4989 134.949 36.7111 133.981 35.2123C132.281 32.5812 129.33 30.8408 125.974 30.8408C123.72 30.8408 121.648 31.6264 120.016 32.9399C120.016 32.9399 120.015 32.9402 120.015 32.9404L118.212 34.3913C116.031 36.1467 114.633 38.8453 114.633 41.8706Z" fill="#4FADE1"/>
<path d="M132.715 47.1919C136.44 43.4516 136.44 37.3873 132.715 33.647C128.991 29.9066 122.952 29.9066 119.228 33.647C115.504 37.3873 115.504 43.4516 119.228 47.1919C122.953 50.9322 128.991 50.9322 132.715 47.1919Z" fill="#8CCAED"/>
<path d="M22.2847 59.1846C18.4742 59.1848 15.1388 57.4204 13.7264 56.1226C9.11153 51.8823 8.61328 45.5108 8.61328 42.9682C8.61328 41.0646 8.95384 36.1714 12.1081 31.86C13.6299 29.7799 15.5932 28.1468 17.9437 27.0062C20.628 25.7035 23.8312 25.043 27.4641 25.043C32.3246 25.043 36.4192 26.9136 39.3055 30.4526C41.6374 33.3118 43.0995 37.2666 43.3171 41.3031C43.6443 47.3753 41.2088 51.9065 37.3944 52.3224C35.6421 52.5137 34.1235 51.9711 33.0027 50.7536C31.9674 49.6291 31.2786 47.9217 30.9414 45.6525C29.6506 48.1209 27.9087 50.4093 25.5838 51.7418C23.506 52.9328 20.7929 52.6751 18.8325 51.1008C17.6271 50.1329 15.0167 47.2472 16.8059 41.3733C18.944 34.3534 23.4397 33.68 24.7666 33.6409C26.9712 33.5762 28.8871 34.6962 29.528 36.4293C29.8133 37.2009 29.4219 38.0588 28.6536 38.3453C27.8853 38.6318 27.0312 38.2388 26.7457 37.4671C26.5834 37.0283 25.8303 36.5909 24.8539 36.6205C24.0262 36.6448 21.2044 37.1227 19.6441 42.2453C18.7591 45.1511 19.1389 47.5303 20.6862 48.773C21.7047 49.591 23.0817 49.7438 24.1125 49.1532C28.3473 46.726 30.5138 39.2806 31.208 35.5499C31.3057 34.8927 31.3808 34.4891 31.389 34.4454C31.5383 33.6506 32.2909 33.1203 33.0866 33.2508C33.8815 33.3812 34.4276 34.1247 34.3173 34.926C34.3052 35.0142 34.2445 35.4389 34.1192 36.1027C33.4803 40.3116 33.2714 46.6569 35.1822 48.731C35.6655 49.2556 36.249 49.4492 37.0738 49.3596C39.1735 49.1306 40.5832 45.7365 40.353 41.4646C40.084 36.4726 37.0665 28.0241 27.4639 28.0241C12.347 28.0241 11.5812 40.473 11.5812 42.9686C11.5812 45.1164 11.9854 50.4834 15.7297 53.9239C16.9225 55.0198 19.9923 56.4404 23.0819 56.1697C25.4745 55.9595 27.5027 54.7878 29.1105 52.687C29.6102 52.0345 30.5418 51.9121 31.1915 52.4135C31.8414 52.9152 31.9634 53.8508 31.4638 54.5034C29.3585 57.2543 26.5496 58.8573 23.3405 59.1392C22.9855 59.1699 22.6329 59.1846 22.2847 59.1846Z" fill="#184462"/>
<path d="M74.3862 78.5202C73.9291 78.5202 73.4945 78.3081 73.2121 77.9412C72.904 77.5407 72.8193 77.0107 72.9871 76.5335L86.0548 39.3807C86.3277 38.6046 87.1758 38.1974 87.9483 38.4719C88.7212 38.746 89.1264 39.5974 88.8533 40.3735L76.5511 75.3499L151.205 68.9969C152.021 68.9267 152.74 69.536 152.809 70.3561C152.878 71.1763 152.272 71.8975 151.456 71.967L74.5116 78.5149C74.4697 78.5184 74.4277 78.5202 74.3862 78.5202Z" fill="#184462"/>
<path d="M79.4148 35.245C78.995 35.2452 78.578 35.0672 78.2845 34.7212C75.897 31.9074 70.1725 29.5286 63.7007 28.6611C55.437 27.5534 49.4212 29.2242 47.3292 31.2454C46.7386 31.8161 45.7991 31.7977 45.2309 31.2046C44.6627 30.6114 44.6809 29.6679 45.2716 29.0973C48.537 25.9426 55.9252 24.6115 64.0935 25.7065C71.3608 26.6807 77.6641 29.3942 80.5438 32.788C81.0754 33.4145 81.0006 34.3551 80.3767 34.889C80.0973 35.1281 79.7552 35.245 79.4148 35.245Z" fill="#184462"/>
<path d="M175.886 50.9021C175.447 50.9021 175.012 50.707 174.719 50.3333C173.203 48.3984 168.604 45.8371 161.748 44.477C156.734 43.4822 151.93 43.4447 148.897 44.376C148.113 44.6166 147.283 44.1739 147.044 43.3867C146.804 42.5995 147.245 41.7663 148.029 41.5256C151.508 40.4572 156.852 40.4674 162.323 41.5526C169.11 42.899 174.754 45.5572 177.052 48.4899C177.558 49.1368 177.447 50.0738 176.803 50.5827C176.531 50.7979 176.207 50.9021 175.886 50.9021Z" fill="#184462"/>
<path d="M83.6196 32.3315C83.1295 32.3315 82.6497 32.0879 82.3668 31.642C77.0605 23.2819 58.0766 20.4583 49.6958 24.9265C48.9718 25.3126 48.0734 25.0359 47.6892 24.309C47.3048 23.582 47.5802 22.6798 48.3041 22.2939C52.8713 19.859 60.3037 19.1869 67.7012 20.539C75.709 22.0029 81.9666 25.4659 84.8697 30.04C85.3103 30.7339 85.1071 31.6554 84.416 32.0977C84.1687 32.256 83.8925 32.3315 83.6196 32.3315Z" fill="#184462"/>
<path d="M179.19 50.0229C178.516 50.0229 177.906 49.5592 177.746 48.872C177.099 46.0975 174.298 43.6267 169.859 41.9149C165.579 40.2641 160.165 39.4714 155.006 39.7398C154.186 39.7835 153.49 39.1505 153.447 38.3286C153.405 37.5065 154.034 36.8057 154.853 36.763C160.41 36.4733 166.269 37.3373 170.923 39.1322C176.386 41.2391 179.745 44.372 180.636 48.1924C180.823 48.9939 180.327 49.7957 179.529 49.9833C179.415 50.01 179.302 50.0229 179.19 50.0229Z" fill="#184462"/>
<path d="M118.474 67.4789C107.148 67.4789 97.9336 58.2251 97.9336 46.8507C97.9336 43.3827 98.8074 39.9523 100.461 36.9306C100.855 36.2094 101.758 35.9457 102.476 36.3423C103.194 36.7386 103.457 37.6447 103.062 38.3662C101.649 40.9493 100.902 43.8833 100.902 46.8508C100.902 56.5817 108.785 64.4983 118.474 64.4983C121.062 64.4983 123.554 63.947 125.88 62.8594C126.623 62.5117 127.506 62.8355 127.852 63.5817C128.198 64.3279 127.876 65.2145 127.133 65.5618C124.411 66.8338 121.498 67.4789 118.474 67.4789Z" fill="#165E8E"/>
<path d="M11.6584 73.9999C11.0533 73.9999 10.4851 73.6256 10.2648 73.022C9.98285 72.249 10.3781 71.393 11.1476 71.1099L52.3911 55.9342C53.1607 55.6509 54.0131 56.048 54.2951 56.8209C54.5771 57.5937 54.1818 58.4498 53.4123 58.733L12.1688 73.9087C12.0004 73.9705 11.828 73.9999 11.6584 73.9999Z" fill="#E4F0FA"/>
<path d="M12.2911 103.298C11.6837 103.298 11.1138 102.921 10.8953 102.314L4.42478 84.3418C4.14604 83.5678 4.54505 82.7133 5.31585 82.4335C6.08652 82.1535 6.93733 82.5543 7.21608 83.3284L13.6866 101.301C13.9654 102.075 13.5664 102.929 12.7956 103.209C12.629 103.269 12.4586 103.298 12.2911 103.298Z" fill="#E4F0FA"/>
<path d="M83.2737 70.4475C83.1146 70.4475 82.9527 70.4216 82.7938 70.367C82.0182 70.1009 81.6042 69.2538 81.8691 68.4749L93.0902 35.4908C93.3552 34.7119 94.199 34.2965 94.9743 34.5622C95.7499 34.8283 96.1638 35.6754 95.8988 36.4543L84.6777 69.4384C84.4674 70.0578 83.8909 70.4475 83.2737 70.4475Z" fill="#E4F0FA"/>
<path d="M148.324 39.6893C147.616 39.6893 146.99 39.1795 146.864 38.4557C146.752 37.8157 145.989 34.4292 141.909 30.6037C137.468 26.4389 130.939 23.4319 122.504 21.6661C110.446 19.1421 101.756 20.1774 96.5897 21.4904C91.0102 22.9083 88.23 24.9452 88.2027 24.9655C87.5459 25.4543 86.6168 25.3192 86.1278 24.6614C85.6388 24.0035 85.7692 23.0741 86.4225 22.5806C86.5484 22.4854 89.576 20.2321 95.652 18.6545C101.152 17.2263 110.381 16.0833 123.11 18.7482C132.084 20.6269 139.091 23.8828 143.935 28.4252C148.587 32.7869 149.59 36.8121 149.788 37.9419C149.929 38.7527 149.389 39.5251 148.581 39.6669C148.495 39.682 148.409 39.6893 148.324 39.6893Z" fill="#184462"/>
<path d="M109.402 52.9392C108.866 52.9392 108.348 52.6461 108.084 52.1349C105.317 46.7791 105.472 40.4707 108.499 35.2597C111.414 30.2409 116.508 27.1234 122.125 26.9204C122.943 26.8905 123.632 27.5337 123.661 28.3563C123.691 29.1788 123.051 29.8697 122.232 29.8992C117.638 30.0653 113.462 32.6306 111.063 36.7616C108.551 41.0847 108.423 46.3185 110.719 50.7619C111.096 51.4925 110.812 52.3921 110.085 52.7712C109.866 52.8853 109.633 52.9392 109.402 52.9392Z" fill="#8CCAED"/>
<path fill-rule="evenodd" clip-rule="evenodd" d="M188.979 62.3414L177.233 87.5405L175.93 90.3372L174.028 94.4169L172.229 98.2763L166.041 111.551L164.561 114.728L159.288 126.038L153.391 123.265L157.15 115.202L158.559 112.178L163.807 100.918L165.437 97.421L170.509 86.54L171.775 83.8262L183.082 59.5693L188.979 62.3414Z" fill="#349DD7"/>
<path fill-rule="evenodd" clip-rule="evenodd" d="M192.002 48.1436L190.918 53.2332L188.805 52.2396L192.002 48.1436Z" fill="#393941"/>
<path fill-rule="evenodd" clip-rule="evenodd" d="M188.805 52.2397L190.918 53.2334L188.979 62.3416L183.082 59.5692L188.805 52.2397Z" fill="#4FADE1"/>
<path fill-rule="evenodd" clip-rule="evenodd" d="M148.445 133.937C147.938 131.857 153.391 123.265 153.391 123.265L159.288 126.038C159.288 126.038 156.145 136.422 154.343 136.71C152.541 136.998 148.953 136.017 148.445 133.937Z" fill="#165076"/>
<path d="M157.583 122.318C157.375 122.318 157.164 122.274 156.962 122.181C156.218 121.836 155.893 120.951 156.236 120.203L178.92 70.8201C179.263 70.0726 180.145 69.7461 180.889 70.0911C181.633 70.4359 181.958 71.3213 181.615 72.0687L158.932 121.452C158.681 121.997 158.144 122.318 157.583 122.318Z" fill="#E4F0FA"/>
<path d="M174.027 94.417L172.228 98.2764C169.57 99.2717 166.761 100.153 163.807 100.918L165.437 97.4211C168.477 96.5541 171.347 95.5523 174.027 94.417Z" fill="#184462"/>
<path d="M166.042 111.551L164.562 114.727C162.265 114.979 159.792 115.137 157.15 115.202L158.56 112.178C161.375 112.07 163.856 111.851 166.042 111.551Z" fill="#184462"/>
<path d="M91.939 129.444C92.8371 137.699 93.2194 144.766 91.939 148C88.6693 146.32 86.294 143.959 84.8543 140.885C83.2553 144.338 80.7056 146.443 77.7696 148C76.3438 143.78 76.4888 137.395 77.7696 129.444H91.939Z" fill="#165076"/>
<path d="M129.19 130.935H74.9176C74.0981 130.935 73.4336 130.267 73.4336 129.444C73.4336 128.621 74.0981 127.954 74.9176 127.954H128.345L134.624 117.306C135.042 116.598 135.952 116.364 136.657 116.784C137.362 117.203 137.596 118.117 137.178 118.825L130.467 130.204C130.2 130.657 129.715 130.935 129.19 130.935Z" fill="#165E8E"/>
<path d="M47.5173 18.6324C47.4327 18.6324 47.3472 18.6252 47.2611 18.6102C46.4537 18.469 45.9129 17.6973 46.0535 16.8864C46.5935 13.7706 48.915 10.623 52.4226 8.25113C59.7826 3.27444 75.8948 -1.06217 110.857 6.54199C111.658 6.71617 112.167 7.50957 111.993 8.31398C111.82 9.11853 111.029 9.62979 110.229 9.45509C95.232 6.1935 82.4924 4.89416 72.3644 5.59269C64.4603 6.13804 58.3087 7.86428 54.0802 10.7236C50.0457 13.4518 49.1676 16.2996 48.9774 17.3974C48.852 18.1218 48.2252 18.6324 47.5173 18.6324Z" fill="#E4F0FA"/>
</svg>
