<svg id="Iconly_Light_Edit_Square" data-name="Iconly/Light/Edit Square" xmlns="http://www.w3.org/2000/svg" width="20" height="20" viewBox="0 0 20 20">
  <g id="Edit_Square" data-name="Edit Square" transform="translate(2.292 2.292)">
    <path id="Stroke_1" data-name="Stroke 1" d="M7.285,0H4.169A4.042,4.042,0,0,0,0,4.382v6.928a4.038,4.038,0,0,0,4.169,4.383h7.353a4.039,4.039,0,0,0,4.17-4.383V7.954" transform="translate(0 0.032)" fill="none" stroke="#76787b" stroke-linecap="round" stroke-linejoin="round" stroke-miterlimit="10" stroke-width="1.5"/>
    <path id="Stroke_3" data-name="Stroke 3" d="M.607,6.809,6.835.581a1.988,1.988,0,0,1,2.809,0L10.658,1.6a1.986,1.986,0,0,1,0,2.809L4.4,10.662a1.809,1.809,0,0,1-1.279.53H0l.078-3.15A1.809,1.809,0,0,1,.607,6.809Z" transform="translate(4.457 0)" fill="none" stroke="#76787b" stroke-linecap="round" stroke-linejoin="round" stroke-miterlimit="10" stroke-width="1.5"/>
    <path id="Stroke_5" data-name="Stroke 5" d="M0,0,3.8,3.8" transform="translate(10.346 1.543)" fill="none" stroke="#76787b" stroke-linecap="round" stroke-linejoin="round" stroke-miterlimit="10" stroke-width="1.5"/>
  </g>
</svg>
