<svg xmlns="http://www.w3.org/2000/svg" width="232.287" height="232.287" viewBox="0 0 232.287 232.287">
  <g id="Group_10821" data-name="Group 10821" transform="translate(-207.064 -120.454)">
    <circle id="Ellipse_496" data-name="Ellipse 496" cx="96.238" cy="96.238" r="96.238" transform="translate(207.064 307.548) rotate(-76.42)" fill="#f5f5f5"/>
    <path id="heart" d="M50.253,87.943a5.951,5.951,0,0,1-3.885-1.436c-4.06-3.492-7.975-6.773-11.428-9.667l-.018-.015C24.8,68.338,16.052,61.009,9.969,53.79,3.168,45.719,0,38.066,0,29.707a30.6,30.6,0,0,1,7.973-21.1A27.238,27.238,0,0,1,28.077,0,25.552,25.552,0,0,1,43.869,5.361a32.015,32.015,0,0,1,6.384,6.557,32.018,32.018,0,0,1,6.385-6.557A25.552,25.552,0,0,1,72.43,0a27.24,27.24,0,0,1,20.1,8.606,30.6,30.6,0,0,1,7.972,21.1c0,8.36-3.167,16.012-9.968,24.082-6.084,7.22-14.827,14.548-24.951,23.034-3.46,2.9-7.38,6.186-11.45,9.686a5.956,5.956,0,0,1-3.885,1.434ZM28.077,5.791A21.37,21.37,0,0,0,12.3,12.531,24.891,24.891,0,0,0,5.887,29.707c0,7.031,2.657,13.319,8.614,20.388,5.758,6.833,14.322,14.011,24.239,22.323l.018.015c3.467,2.906,7.4,6.2,11.487,9.717,4.115-3.524,8.051-6.824,11.524-9.734C71.685,64.105,80.248,56.929,86.006,50.1c5.957-7.069,8.614-13.358,8.614-20.388a24.891,24.891,0,0,0-6.414-17.176A21.369,21.369,0,0,0,72.43,5.791,19.736,19.736,0,0,0,60.239,9.941a28.228,28.228,0,0,0-6.794,7.732,3.748,3.748,0,0,1-6.384,0,28.2,28.2,0,0,0-6.794-7.732,19.735,19.735,0,0,0-12.19-4.151Zm0,0" transform="translate(273.311 192.626)" fill="#455a64" stroke="#455a64" stroke-width="0.4"/>
  </g>
</svg>
