<svg xmlns="http://www.w3.org/2000/svg" xmlns:xlink="http://www.w3.org/1999/xlink" width="232.287" height="232.287" viewBox="0 0 232.287 232.287">
  <defs>
    <clipPath id="clip-path">
      <path id="Shape" d="M35.53,86.68a4.229,4.229,0,0,1,3.656-6.351H53.811a4.23,4.23,0,0,1,3.66,6.351,12.681,12.681,0,0,1-21.941,0ZM4.226,71.874c-5.635,0-5.635-8.455,0-8.455a8.456,8.456,0,0,0,8.454-8.459V33.823a33.819,33.819,0,1,1,67.638,0V54.961a8.456,8.456,0,0,0,8.454,8.459c5.638,0,5.638,8.455,0,8.455Z" fill="none" stroke="#455a64" stroke-width="5"/>
    </clipPath>
  </defs>
  <g id="Group_10828" data-name="Group 10828" transform="translate(-71 -252)">
    <g id="Group_10821" data-name="Group 10821" transform="translate(-136.064 131.546)">
      <circle id="Ellipse_496" data-name="Ellipse 496" cx="96.238" cy="96.238" r="96.238" transform="translate(207.064 307.548) rotate(-76.42)" fill="#f5f5f5"/>
      <path id="Path_12295" data-name="Path 12295" d="M156.154,104.331v2a.19.19,0,0,1-.19.185.179.179,0,0,1-.185-.185V104.65l-.134.078a.168.168,0,0,1-.1,0,.187.187,0,0,1-.1-.347l.419-.252h.1Z" transform="translate(172.296 110.566)" fill="#fff"/>
    </g>
    <g id="bell" transform="translate(140 321)">
      <g id="Group_225" data-name="Group 225" transform="translate(1 1)">
        <path id="Shape-2" data-name="Shape" d="M35.53,86.68a4.229,4.229,0,0,1,3.656-6.351H53.811a4.23,4.23,0,0,1,3.66,6.351,12.681,12.681,0,0,1-21.941,0ZM4.226,71.874c-5.635,0-5.635-8.455,0-8.455a8.456,8.456,0,0,0,8.454-8.459V33.823a33.819,33.819,0,1,1,67.638,0V54.961a8.456,8.456,0,0,0,8.454,8.459c5.638,0,5.638,8.455,0,8.455Z" fill="none" stroke="#455a64" stroke-width="5"/>
        <g id="Mask_Group_225" data-name="Mask Group 225" clip-path="url(#clip-path)">
          <g id="COLOR_black" data-name="COLOR/ black" transform="translate(-4 -4)">
            <g id="Rectangle" fill="none" stroke="#455a64" stroke-miterlimit="10" stroke-width="5">
              <rect width="101" height="101" stroke="none"/>
              <rect x="2.5" y="2.5" width="96" height="96" fill="none"/>
            </g>
          </g>
        </g>
      </g>
    </g>
    <circle id="Ellipse_497" data-name="Ellipse 497" cx="24.398" cy="24.398" r="24.398" transform="translate(195.679 354.009) rotate(-79.97)" fill="#006e6c"/>
    <text id="Article" transform="translate(224 343)" fill="#fff" font-size="28" font-family="Tajawal-Bold, Tajawal" font-weight="700"><tspan x="-7.882" y="0">0</tspan></text>
  </g>
</svg>
