<svg xmlns="http://www.w3.org/2000/svg" width="33" height="32" viewBox="0 0 33 32">
  <g id="Group_11499" data-name="Group 11499" transform="translate(0.339 0.162)">
    <g id="Group_140" data-name="Group 140" transform="translate(-0.069 -0.162)">
      <g id="Group_11471" data-name="Group 11471">
        <g id="Group_11472" data-name="Group 11472">
          <g id="Path_11772" data-name="Path 11772" transform="translate(-0.27)" fill="none">
            <path d="M16.5,0A16.256,16.256,0,0,1,33,16,16.256,16.256,0,0,1,16.5,32,16.256,16.256,0,0,1,0,16,16.256,16.256,0,0,1,16.5,0Z" stroke="none"/>
            <path d="M 16.5 1 C 12.3540096282959 1 8.457719802856445 2.564109802246094 5.528879165649414 5.404190063476562 C 2.608390808105469 8.236190795898438 1 11.99917984008789 1 16 C 1 20.00082015991211 2.608390808105469 23.76380920410156 5.528879165649414 26.59580993652344 C 8.457719802856445 29.43589019775391 12.3540096282959 31 16.5 31 C 20.6459903717041 31 24.54228019714355 29.43589019775391 27.47111892700195 26.59580993652344 C 30.39160919189453 23.76380920410156 32 20.00082015991211 32 16 C 32 11.99917984008789 30.39160919189453 8.236190795898438 27.47111892700195 5.404190063476562 C 24.54228019714355 2.564109802246094 20.6459903717041 1 16.5 1 M 16.5 0 C 25.61269950866699 0 33 7.163440704345703 33 16 C 33 24.8365592956543 25.61269950866699 32 16.5 32 C 7.387300491333008 32 0 24.8365592956543 0 16 C 0 7.163440704345703 7.387300491333008 0 16.5 0 Z" stroke="none" fill="#349dd8"/>
          </g>
        </g>
      </g>
      <path id="Icon_awesome-facebook-square" data-name="Icon awesome-facebook-square" d="M16.683,2.25H2a2,2,0,0,0-2,2V18.933a2,2,0,0,0,2,2H7.726V14.583H5.1v-2.99H7.726V9.314A3.649,3.649,0,0,1,11.633,5.29a15.918,15.918,0,0,1,2.316.2V8.036h-1.3a1.5,1.5,0,0,0-1.686,1.615v1.942h2.869l-.459,2.99h-2.41v6.353h5.724a2,2,0,0,0,2-2V4.252A2,2,0,0,0,16.683,2.25Z" transform="translate(7.016 4.496)" fill="#349dd8"/>
    </g>
  </g>
</svg>
