<svg width="16" height="20" viewBox="0 0 16 20" fill="none" xmlns="http://www.w3.org/2000/svg">
<path d="M15.9974 19.9999C15.9974 12.1658 16.3831 3.37048 8.00012 3.37048C-0.38283 3.37048 0.00286065 12.1658 0.00286065 19.9999H15.9974Z" fill="#393941"/>
<path d="M11.3015 4.75635C11.7427 2.98595 10.6217 1.20362 8.79765 0.775406C6.97359 0.347194 5.13725 1.43525 4.69606 3.20566C4.25487 4.97606 5.37591 6.75839 7.19996 7.1866C9.02402 7.61481 10.8604 6.52675 11.3015 4.75635Z" fill="#393941"/>
<path d="M8.1091 18.8828C10.8029 18.8828 12.9866 16.7633 12.9866 14.1488V10.3909C12.9866 7.7764 10.8029 5.65686 8.1091 5.65686C5.41534 5.65686 3.23157 7.7764 3.23157 10.3909V14.1488C3.23139 16.7633 5.41517 18.8828 8.1091 18.8828Z" fill="#FEEAC7"/>
<path d="M2.63047 14.8862C3.36727 14.8862 3.96456 14.3065 3.96456 13.5914C3.96456 12.8762 3.36727 12.2965 2.63047 12.2965C1.89367 12.2965 1.29639 12.8762 1.29639 13.5914C1.29639 14.3065 1.89367 14.8862 2.63047 14.8862Z" fill="#FEEAC7"/>
<path d="M1.67787 13.6753C1.63015 13.6753 1.59143 13.6377 1.59143 13.5914C1.59143 13.0352 2.05768 12.5826 2.63076 12.5826C2.67848 12.5826 2.7172 12.6202 2.7172 12.6665C2.7172 12.7128 2.67848 12.7504 2.63076 12.7504C2.15293 12.7504 1.76431 13.1276 1.76431 13.5914C1.76431 13.6377 1.72558 13.6753 1.67787 13.6753Z" fill="#393941"/>
<path d="M13.3695 14.8862C14.1063 14.8862 14.7036 14.3065 14.7036 13.5914C14.7036 12.8762 14.1063 12.2965 13.3695 12.2965C12.6327 12.2965 12.0354 12.8762 12.0354 13.5914C12.0354 14.3065 12.6327 14.8862 13.3695 14.8862Z" fill="#FEEAC7"/>
<path d="M14.3225 13.6753C14.2748 13.6753 14.236 13.6377 14.236 13.5914C14.236 13.1276 13.8474 12.7504 13.3698 12.7504C13.322 12.7504 13.2833 12.7128 13.2833 12.6665C13.2833 12.6202 13.322 12.5826 13.3698 12.5826C13.9427 12.5826 14.4089 13.0352 14.4089 13.5914C14.4089 13.6377 14.3704 13.6753 14.3225 13.6753Z" fill="#393941"/>
<path d="M1.62314 14.9536C1.58286 14.9536 1.54224 14.94 1.50939 14.912C1.43748 14.8511 1.43022 14.7451 1.49314 14.6753L1.86811 14.2593C1.93087 14.1897 2.04029 14.1825 2.11204 14.2435C2.18395 14.3044 2.19122 14.4105 2.12829 14.4803L1.75332 14.8964C1.71927 14.9342 1.67138 14.9536 1.62314 14.9536Z" fill="white"/>
<path d="M2.5668 15.2985C2.47137 15.2985 2.39392 15.2233 2.39392 15.1307V14.6074C2.39392 14.5147 2.47137 14.4396 2.5668 14.4396C2.66223 14.4396 2.73967 14.5147 2.73967 14.6074V15.1307C2.73967 15.2233 2.66223 15.2985 2.5668 15.2985Z" fill="white"/>
<path d="M14.3771 14.9537C14.329 14.9537 14.2809 14.9342 14.2469 14.8963L13.8719 14.4802C13.809 14.4105 13.8163 14.3045 13.8882 14.2434C13.9599 14.1823 14.0692 14.1896 14.1321 14.2592L14.5071 14.6751C14.57 14.7449 14.5627 14.8508 14.4908 14.9119C14.458 14.9399 14.4174 14.9537 14.3771 14.9537Z" fill="white"/>
<path d="M13.4336 15.2984C13.3382 15.2984 13.2607 15.2232 13.2607 15.1306V14.6072C13.2607 14.5146 13.3382 14.4395 13.4336 14.4395C13.529 14.4395 13.6065 14.5146 13.6065 14.6072V15.1306C13.6065 15.2232 13.529 15.2984 13.4336 15.2984Z" fill="white"/>
<path d="M13.4786 11.1248H6.99678L5.8812 9.70525L4.79174 11.1248H2.73987V10.0281C2.73987 7.14979 5.14389 4.81665 8.10923 4.81665C11.0748 4.81665 13.4786 7.14996 13.4786 10.0281V11.1248Z" fill="#393941"/>
<path d="M5.66158 3.72951C5.62337 3.72951 5.58845 3.70485 5.57825 3.66726C5.56598 3.62246 5.59329 3.57649 5.63945 3.56457C6.35274 3.38 7.1471 3.28638 8.00008 3.28638C8.85305 3.28638 9.64742 3.38 10.3609 3.56457C10.407 3.57649 10.4343 3.62246 10.4221 3.66726C10.4098 3.71223 10.3628 3.73908 10.3163 3.72666C9.61734 3.54595 8.83801 3.45434 8.00008 3.45434C7.16197 3.45434 6.38282 3.54595 5.68405 3.72666C5.67628 3.72851 5.66901 3.72951 5.66158 3.72951Z" fill="#FEEAC7"/>
</svg>
