<svg width="32" height="32" viewBox="0 0 32 32" fill="none" xmlns="http://www.w3.org/2000/svg">
<path d="M12.0003 29.3332H20.0003C26.667 29.3332 29.3337 26.6665 29.3337 19.9998V11.9998C29.3337 5.33317 26.667 2.6665 20.0003 2.6665H12.0003C5.33366 2.6665 2.66699 5.33317 2.66699 11.9998V19.9998C2.66699 26.6665 5.33366 29.3332 12.0003 29.3332Z" stroke="#2E2E34" stroke-width="2" stroke-linecap="round" stroke-linejoin="round"/>
<path opacity="0.4" d="M11.9997 13.3333C13.4724 13.3333 14.6663 12.1394 14.6663 10.6667C14.6663 9.19391 13.4724 8 11.9997 8C10.5269 8 9.33301 9.19391 9.33301 10.6667C9.33301 12.1394 10.5269 13.3333 11.9997 13.3333Z" stroke="#2E2E34" stroke-width="2" stroke-linecap="round" stroke-linejoin="round"/>
<path opacity="0.4" d="M3.55957 25.2666L10.1329 20.8532C11.1862 20.1466 12.7062 20.2266 13.6529 21.0399L14.0929 21.4266C15.1329 22.3199 16.8129 22.3199 17.8529 21.4266L23.3996 16.6666C24.4396 15.7732 26.1196 15.7732 27.1596 16.6666L29.3329 18.5332" stroke="#2E2E34" stroke-width="2" stroke-linecap="round" stroke-linejoin="round"/>
</svg>
