<svg xmlns="http://www.w3.org/2000/svg" width="47" height="47" viewBox="0 0 47 47">
  <g id="Group_52438" data-name="Group 52438" transform="translate(-157 -661)">
    <g id="Group_23" data-name="Group 23" transform="translate(73 -30)">
      <circle id="Ellipse_1" data-name="Ellipse 1" cx="23.5" cy="23.5" r="23.5" transform="translate(84 691)" fill="#eb4132"/>
    </g>
    <g id="google" transform="translate(170 674)">
      <path id="Path_86" data-name="Path 86" d="M5.148,106.916a5.826,5.826,0,0,1,.821-2.988v-3.712h-3.7a11.041,11.041,0,0,0,0,13.4h3.7V109.9A5.826,5.826,0,0,1,5.148,106.916Z" transform="translate(0 -95.916)" fill="#fff"/>
      <path id="Path_87" data-name="Path 87" d="M198.574,373.778,196,376.352l2.574,2.574a10.9,10.9,0,0,0,6.683-2.266v-3.7h-3.7A5.833,5.833,0,0,1,198.574,373.778Z" transform="translate(-187.568 -356.926)" fill="#fff"/>
      <path id="Path_88" data-name="Path 88" d="M56.525,325.477l-3.7,3.7a11.158,11.158,0,0,0,.951,1.083,10.91,10.91,0,0,0,7.765,3.217v-5.148A5.837,5.837,0,0,1,56.525,325.477Z" transform="translate(-50.557 -311.479)" fill="#fff"/>
      <path id="Path_89" data-name="Path 89" d="M266.982,199.841a11.077,11.077,0,0,0-.18-1.99l-.1-.528H256v5.148h5.21a5.808,5.808,0,0,1-2.226,2.387l3.7,3.7a11.154,11.154,0,0,0,1.083-.951A10.91,10.91,0,0,0,266.982,199.841Z" transform="translate(-244.982 -188.823)" fill="#fff"/>
      <path id="Path_90" data-name="Path 90" d="M202.7,6.857l.455.455,3.64-3.64-.455-.455A10.91,10.91,0,0,0,198.574,0L196,2.574l2.574,2.574A5.8,5.8,0,0,1,202.7,6.857Z" transform="translate(-187.556)" fill="#fff"/>
      <path id="Path_91" data-name="Path 91" d="M61.538,5.148V0a10.91,10.91,0,0,0-7.766,3.217A11.147,11.147,0,0,0,52.822,4.3l3.7,3.7a5.837,5.837,0,0,1,5.014-2.854Z" transform="translate(-50.556 0)" fill="#fff"/>
    </g>
  </g>
</svg>
