<svg width="375" height="132" viewBox="0 0 375 132" fill="none" xmlns="http://www.w3.org/2000/svg">
<mask id="mask0_2024_369" style="mask-type:alpha" maskUnits="userSpaceOnUse" x="0" y="0" width="375" height="132">
<path d="M351.307 112C362.748 112 372.615 120.075 374.859 131.293L375 132V0H0V132L0.141357 131.293C2.38499 120.075 12.2523 112 23.6927 112C139.569 112 235.323 112 351.307 112Z" fill="#E4F0FA"/>
</mask>
<g mask="url(#mask0_2024_369)">
<g opacity="0.12">
<path d="M229.274 51.855C225.779 49.7369 225.89 44.0518 228.175 40.2748C228.878 39.1111 229.743 38.1777 230.747 37.4993C230.866 37.4182 231.015 37.3972 231.152 37.4412C231.286 37.4873 231.398 37.5913 231.448 37.7254C231.457 37.7474 232.303 39.9956 234.029 41.0432C234.44 41.2923 234.873 41.4554 235.316 41.5275C236.219 41.6745 237.113 42.0057 237.899 42.483C239.646 43.5415 240.693 45.1714 240.504 46.5402C240.498 46.5902 240.483 46.6382 240.462 46.6832C240.334 46.9444 240.191 47.2055 240.034 47.4656C237.748 51.2427 232.768 53.9741 229.274 51.855ZM230.814 38.6139C230.114 39.1772 229.497 39.8966 228.975 40.76C226.702 44.5191 227.075 49.4247 229.759 51.0526C232.443 52.6804 236.958 50.7384 239.232 46.9794C239.36 46.7673 239.478 46.5542 239.585 46.341C239.667 45.3775 238.768 44.1048 237.415 43.2844C236.728 42.8682 235.951 42.581 235.165 42.4529C234.604 42.3609 234.058 42.1568 233.545 41.8446C232.094 40.9661 231.209 39.4393 230.814 38.6139Z" fill="#349DD7"/>
<path d="M231.258 55.2148L225.381 51.6509C225.16 51.5168 225.089 51.2287 225.223 51.0066L226.928 48.1871C227.061 47.966 227.349 47.8949 227.57 48.029C227.669 48.089 227.769 48.2011 227.802 48.3121C228.544 50.8025 230.563 52.0181 233.112 51.5148C233.479 51.4408 233.809 51.9021 233.615 52.2232L231.902 55.0558C231.768 55.2789 231.479 55.3489 231.258 55.2148ZM226.266 51.0916L231.343 54.1703L232.318 52.5594C230.055 52.6845 228.18 51.5489 227.24 49.4808L226.266 51.0916Z" fill="#349DD7"/>
<path d="M239.798 46.8774C239.641 46.7823 239.551 46.6012 239.577 46.4121C239.71 45.4406 238.8 44.1249 237.414 43.2844C236.728 42.8692 235.951 42.5811 235.164 42.453C234.603 42.361 234.057 42.1568 233.544 41.8447C231.531 40.624 230.607 38.1537 230.568 38.0496L229.707 36.1586C229.619 35.9665 229.671 35.7384 229.835 35.6033C229.998 35.4683 230.232 35.4562 230.404 35.5823C231.289 36.2036 232.219 36.2017 233.321 36.2007C234.685 36.1987 236.231 36.1957 238.069 37.3103C241.205 39.2123 242.201 43.0003 240.519 46.5592C240.51 46.6172 240.488 46.6753 240.457 46.7293C240.321 46.9534 240.064 47.0105 239.807 46.8834C239.804 46.8814 239.801 46.8794 239.798 46.8774ZM237.897 42.483C238.944 43.1174 239.738 43.9568 240.168 44.8213C240.893 42.1238 239.946 39.5454 237.584 38.1137C235.969 37.1351 234.624 37.1371 233.322 37.1391C232.553 37.1401 231.814 37.1412 231.087 36.9351L231.432 37.6945C231.454 37.7485 232.3 39.9967 234.026 41.0443C234.437 41.2934 234.87 41.4565 235.313 41.5285C236.218 41.6756 237.111 42.0058 237.897 42.483Z" fill="#349DD7"/>
<path d="M235.322 67.5955L212.54 53.7821C212.319 53.648 212.248 53.3599 212.382 53.1388C214.935 48.9175 220.442 47.5618 224.658 50.1182L232.949 55.1448C237.165 57.7012 238.519 63.2162 235.965 67.4385C235.832 67.6586 235.544 67.7296 235.322 67.5955ZM213.437 53.2288L235.395 66.543C237.361 62.823 236.105 58.1535 232.464 55.9463L224.173 50.9196C220.533 48.7124 215.819 49.761 213.437 53.2288Z" fill="#349DD7"/>
<path d="M255.458 54.4413L253.084 53.0016C252.863 52.8675 252.792 52.5794 252.926 52.3572L259.086 42.1717L247.725 35.2831C247.504 35.149 247.433 34.8608 247.567 34.6387L248.996 32.2754C249.13 32.0543 249.417 31.9833 249.639 32.1174L263.775 40.6889C263.996 40.823 264.067 41.1112 263.933 41.3333L256.1 54.2843C255.968 54.5044 255.68 54.5754 255.458 54.4413ZM253.97 52.4423L255.543 53.3958L262.89 41.2473L249.555 33.1619L248.611 34.7228L259.973 41.6114C260.193 41.7455 260.264 42.0337 260.13 42.2558L253.97 52.4423Z" fill="#349DD7"/>
<path d="M217.226 31.26L214.852 29.8212C214.631 29.6871 214.561 29.399 214.694 29.1768L222.527 16.2259C222.661 16.0048 222.948 15.9337 223.169 16.0678L237.305 24.6384C237.526 24.7725 237.597 25.0606 237.463 25.2817L236.034 27.645C235.9 27.8661 235.612 27.9382 235.391 27.8031L224.03 20.9144L217.869 31.0999C217.735 31.323 217.447 31.394 217.226 31.26ZM215.738 29.2609L217.31 30.2144L223.471 20.0289C223.605 19.8078 223.893 19.7367 224.113 19.8708L235.475 26.7595L236.419 25.1987L223.085 17.1134L215.738 29.2609Z" fill="#349DD7"/>
<path d="M212.361 65.8816L198.226 57.311C198.005 57.1769 197.934 56.8887 198.068 56.6676L207.225 41.5265C207.359 41.3054 207.647 41.2333 207.868 41.3684L210.241 42.8072C210.462 42.9412 210.533 43.2294 210.399 43.4515L202.913 55.8282L214.275 62.7169C214.496 62.851 214.567 63.1391 214.433 63.3612L213.003 65.7245C212.871 65.9446 212.582 66.0157 212.361 65.8816ZM199.112 56.7517L212.446 64.837L213.39 63.2762L202.029 56.3875C201.808 56.2534 201.737 55.9653 201.871 55.7431L209.356 43.3665L207.784 42.413L199.112 56.7517Z" fill="#349DD7"/>
<path d="M238.832 81.9322L224.696 73.3606C224.475 73.2265 224.404 72.9384 224.538 72.7163L225.967 70.353C226.101 70.1319 226.389 70.0608 226.611 70.1949L237.972 77.0836L245.458 64.7069C245.592 64.4858 245.88 64.4148 246.101 64.5489L248.476 65.9886C248.697 66.1227 248.767 66.4108 248.634 66.633L239.476 81.7741C239.341 81.9953 239.053 82.0663 238.832 81.9322ZM225.582 72.8013L238.917 80.8866L247.588 66.5479L246.016 65.5944L238.53 77.9711C238.396 78.1922 238.108 78.2632 237.886 78.1292L226.525 71.2405L225.582 72.8013Z" fill="#349DD7"/>
<path d="M165.186 46H143.252C142.991 46 142.781 45.7871 142.781 45.5245V24.6178C142.781 24.3552 142.992 24.1423 143.252 24.1423H145.995C146.255 24.1423 146.465 24.3552 146.465 24.6178C146.465 24.8804 146.254 25.0933 145.995 25.0933H143.723V45.0501H164.716V25.0933H162.524C162.264 25.0933 162.053 24.8804 162.053 24.6178C162.053 24.3552 162.264 24.1423 162.524 24.1423H165.186C165.447 24.1423 165.658 24.3552 165.658 24.6178V45.5245C165.658 45.7871 165.447 46 165.186 46Z" fill="#349DD7"/>
<path d="M160.146 25.0933H148.426C148.166 25.0933 147.956 24.8804 147.956 24.6178C147.956 24.3552 148.167 24.1423 148.426 24.1423H160.146C160.407 24.1423 160.618 24.3552 160.618 24.6178C160.618 24.8804 160.407 25.0933 160.146 25.0933Z" fill="#349DD7"/>
<path d="M163.575 42.7598H144.863C144.603 42.7598 144.393 42.5469 144.393 42.2844V26.1537C144.393 25.8911 144.604 25.6782 144.863 25.6782H145.994C146.254 25.6782 146.464 25.8911 146.464 26.1537C146.464 26.4163 146.254 26.6292 145.994 26.6292H145.333V41.8099H163.104V26.6292H162.444C162.184 26.6292 161.973 26.4163 161.973 26.1537C161.973 25.8911 162.184 25.6782 162.444 25.6782H163.575C163.836 25.6782 164.047 25.8911 164.047 26.1537V42.2844C164.047 42.5469 163.836 42.7598 163.575 42.7598Z" fill="#349DD7"/>
<path d="M160.147 26.6292H148.292C148.032 26.6292 147.822 26.4163 147.822 26.1537C147.822 25.8911 148.033 25.6782 148.292 25.6782H160.147C160.407 25.6782 160.618 25.8911 160.618 26.1537C160.618 26.4163 160.407 26.6292 160.147 26.6292Z" fill="#349DD7"/>
<path d="M149.058 34.2135C147.891 34.2135 146.942 33.2564 146.942 32.0794C146.942 30.9024 147.891 29.9443 149.058 29.9443C150.224 29.9443 151.173 30.9014 151.173 32.0794C151.173 33.2564 150.223 34.2135 149.058 34.2135ZM149.058 30.8953C148.411 30.8953 147.883 31.4255 147.883 32.0794C147.883 32.7323 148.41 33.2635 149.058 33.2635C149.705 33.2635 150.231 32.7333 150.231 32.0794C150.231 31.4255 149.705 30.8953 149.058 30.8953Z" fill="#349DD7"/>
<path d="M154.587 40.341C154.567 40.341 147.573 40.341 147.573 40.341C147.383 40.341 147.211 40.2255 147.138 40.048C147.064 39.8706 147.105 39.6668 147.239 39.53L150.718 36.009C150.901 35.8235 151.2 35.8225 151.383 36.008L154.826 39.456C154.965 39.5391 155.057 39.6902 155.057 39.8645C155.057 40.1281 154.847 40.341 154.587 40.341ZM148.707 39.3911H153.424L151.054 37.0168L148.707 39.3911Z" fill="#349DD7"/>
<path d="M161.85 40.3409C161.83 40.3409 154.567 40.3409 154.567 40.3409C154.443 40.3409 154.324 40.2912 154.236 40.202L152.24 38.2028C152.072 38.0355 152.054 37.7689 152.197 37.5793L156.049 32.4525C156.137 32.3349 156.276 32.2649 156.422 32.2639C156.569 32.2639 156.708 32.3329 156.797 32.4505L162.137 39.4883C162.249 39.5755 162.321 39.7113 162.321 39.8644C162.321 40.128 162.11 40.3409 161.85 40.3409ZM154.761 39.391H160.878L156.425 33.5251L153.197 37.8226L154.761 39.391Z" fill="#349DD7"/>
<path d="M145.995 21.323C136.863 20.4288 128.795 18.1264 123.233 14.8346C123.009 14.7018 122.933 14.4108 123.065 14.1837C123.196 13.9577 123.486 13.8806 123.709 14.0144C129.156 17.2383 137.088 19.4971 146.041 20.3751C146.299 20.4004 146.489 20.6326 146.464 20.8931C146.439 21.1395 146.234 21.323 145.995 21.323Z" fill="#349DD7"/>
<path d="M154.5 21.7335C152.409 21.7335 150.309 21.6606 148.259 21.5156C147.999 21.4963 147.803 21.2702 147.821 21.0087C147.84 20.7461 148.065 20.5677 148.324 20.5667C152.194 20.8414 156.226 20.8546 160.117 20.6042C160.381 20.6062 160.601 20.7877 160.617 21.0482C160.634 21.3098 160.436 21.5348 160.177 21.5521C158.307 21.6727 156.396 21.7335 154.5 21.7335Z" fill="#349DD7"/>
<path d="M162.443 21.3756C162.203 21.3756 161.998 21.1891 161.975 20.9427C161.951 20.6811 162.142 20.451 162.402 20.4267C171.588 19.5893 179.717 17.3123 185.29 14.0143C185.516 13.8815 185.802 13.9576 185.935 14.1837C186.067 14.4107 185.992 14.7017 185.768 14.8345C180.077 18.2014 171.808 20.523 162.486 21.3736C162.472 21.3746 162.458 21.3756 162.443 21.3756Z" fill="#349DD7"/>
<path d="M148.291 28.3071H145.993C145.733 28.3071 145.523 28.0942 145.523 27.8316V12.4755C145.523 12.2129 145.733 12 145.993 12H148.291C148.551 12 148.761 12.2129 148.761 12.4755V27.8316C148.761 28.0942 148.551 28.3071 148.291 28.3071ZM146.465 27.3571H147.82V12.9509H146.465V27.3571Z" fill="#349DD7"/>
<path d="M162.443 28.3071H160.146C159.886 28.3071 159.675 28.0942 159.675 27.8316V12.4755C159.675 12.2129 159.886 12 160.146 12H162.443C162.704 12 162.915 12.2129 162.915 12.4755V27.8316C162.915 28.0942 162.704 28.3071 162.443 28.3071ZM160.617 27.3571H161.973V12.9509H160.617V27.3571Z" fill="#349DD7"/>
<path d="M130.898 115.34L89.8251 122.992C89.5691 123.04 89.3223 122.872 89.2739 122.616L82.0082 84.008C81.9599 83.7534 82.1292 83.5078 82.3851 83.4596L123.458 75.8076C123.714 75.7595 123.961 75.9279 124.009 76.1836L131.275 114.791C131.323 115.046 131.155 115.292 130.898 115.34ZM90.1152 121.981L130.261 114.503L123.169 76.8182L83.0229 84.2967L90.1152 121.981Z" fill="#349DD7"/>
<path d="M126.755 109.918L91.7164 116.446C91.4604 116.495 91.2136 116.326 91.1652 116.071L85.559 86.2816C85.5107 86.0269 85.6799 85.7813 85.9359 85.7332L120.974 79.205C121.23 79.1569 121.477 79.3253 121.525 79.5809L127.131 109.37C127.18 109.626 127.012 109.871 126.755 109.918ZM92.0065 115.436L126.118 109.081L120.686 80.2155L86.5757 86.5703L92.0065 115.436Z" fill="#349DD7"/>
<path d="M135.615 107.539L129.64 108.652C129.384 108.7 129.137 108.532 129.09 108.277C129.041 108.023 129.211 107.777 129.467 107.729L134.977 106.702L127.886 69.0187L87.7396 76.4983L88.9115 82.7228C88.9598 82.9774 88.7906 83.223 88.5346 83.2711C88.2787 83.3192 88.0319 83.1508 87.9845 82.8952L86.726 76.2086C86.6777 75.9539 86.8469 75.7083 87.1029 75.6602L128.176 68.0082C128.432 67.9601 128.679 68.1285 128.727 68.3841L135.993 106.991C136.039 107.246 135.871 107.491 135.615 107.539Z" fill="#349DD7"/>
<path d="M131.472 102.119L128.514 102.669C128.259 102.717 128.012 102.549 127.963 102.293C127.915 102.039 128.084 101.793 128.34 101.745L130.834 101.281L125.401 72.4162L91.2905 78.771L91.9283 82.1604C91.9766 82.415 91.8074 82.6606 91.5514 82.7088C91.2955 82.7569 91.0487 82.5885 91.0003 82.3328L90.2758 78.4823C90.2275 78.2276 90.3967 77.982 90.6527 77.9339L125.691 71.4057C125.947 71.3575 126.194 71.526 126.242 71.7806L131.849 101.57C131.896 101.825 131.728 102.071 131.472 102.119Z" fill="#349DD7"/>
<path d="M96.5997 99.2005C94.646 99.5644 92.7588 98.2792 92.392 96.3344C92.0263 94.3896 93.318 92.5119 95.2717 92.148C97.2254 91.7841 99.1136 93.0703 99.4793 95.0141C99.8461 96.958 98.5544 98.8366 96.5997 99.2005ZM95.446 93.0713C94.0031 93.34 93.05 94.7254 93.32 96.162C93.59 97.5976 94.9835 98.5459 96.4264 98.2772C97.8692 98.0086 98.8234 96.6221 98.5534 95.1866C98.2823 93.751 96.8888 92.8026 95.446 93.0713Z" fill="#349DD7"/>
<path d="M109.068 108.59C109.048 108.594 95.9533 111.033 95.9533 111.033C95.7659 111.068 95.5754 110.987 95.4707 110.828C95.3659 110.669 95.3689 110.464 95.4757 110.306L100.765 102.591C100.913 102.378 101.206 102.321 101.421 102.468L109.144 107.687C109.295 107.742 109.414 107.872 109.445 108.042C109.493 108.297 109.324 108.543 109.068 108.59ZM96.8964 109.901L107.748 107.879L101.279 103.507L96.8964 109.901Z" fill="#349DD7"/>
<path d="M122.667 106.057C122.647 106.061 109.048 108.594 109.048 108.594C108.926 108.617 108.799 108.591 108.695 108.52L104.264 105.524C104.068 105.392 104.001 105.137 104.106 104.926L109.535 94.115C109.601 93.9837 109.725 93.8915 109.87 93.8634C110.015 93.8363 110.164 93.8784 110.273 93.9757L122.793 105.175C122.919 105.24 123.015 105.358 123.043 105.507C123.092 105.763 122.924 106.009 122.667 106.057ZM109.065 107.635L121.534 105.312L110.104 95.0874L105.136 104.979L109.065 107.635Z" fill="#349DD7"/>
<path d="M31.5662 137.504L61.6838 127.091C61.9287 127.006 62.0592 126.738 61.9739 126.494L60.3669 121.874C60.2816 121.628 60.0146 121.499 59.7687 121.583L29.6511 131.997C29.4062 132.082 29.2757 132.35 29.361 132.594L30.968 137.214C31.0533 137.459 31.3203 137.589 31.5662 137.504ZM60.931 126.357L31.7017 136.464L30.4029 132.731L59.6332 122.623L60.931 126.357Z" fill="#349DD7"/>
<path d="M31.1636 132.467L58.8732 122.886C59.1181 122.801 59.2486 122.533 59.1633 122.289L56.4201 114.4C56.3348 114.155 56.0668 114.025 55.8219 114.11L28.1123 123.691C27.8674 123.777 27.7369 124.044 27.8222 124.288L30.5653 132.178C30.6507 132.423 30.9177 132.552 31.1636 132.467ZM58.1204 122.153L31.2991 131.428L28.864 124.424L55.6854 115.149L58.1204 122.153Z" fill="#349DD7"/>
<path d="M25.5416 115.767L52.9221 106.299C53.167 106.214 53.2975 105.946 53.2121 105.702L52.7223 104.294C52.637 104.05 52.369 103.92 52.1241 104.005L24.7437 113.473C24.4987 113.558 24.3683 113.825 24.4536 114.069L24.9434 115.477C25.0277 115.722 25.2957 115.852 25.5416 115.767ZM52.1693 105.566L25.6771 114.727L25.4954 114.205L51.9876 105.045L52.1693 105.566Z" fill="#349DD7"/>
<path d="M19.2272 97.6085L46.6076 88.1405C46.8525 88.0555 46.983 87.7882 46.8977 87.544L46.4079 86.1357C46.3226 85.8914 46.0556 85.7613 45.8097 85.8464L18.4292 95.3144C18.1843 95.3994 18.0538 95.6667 18.1391 95.9109L18.6289 97.3192C18.7143 97.5635 18.9823 97.6926 19.2272 97.6085ZM45.8548 87.4079L19.3627 96.5685L19.181 96.047L45.6732 86.8864L45.8548 87.4079Z" fill="#349DD7"/>
<path d="M22.3672 115.235L55.0844 103.923C55.3293 103.838 55.4598 103.57 55.3745 103.326L49.567 86.6223C49.4817 86.3771 49.2137 86.248 48.9688 86.3331L16.2515 97.6458C16.0066 97.7309 15.8761 97.9981 15.9615 98.2423L21.769 114.946C21.8543 115.19 22.1223 115.321 22.3672 115.235ZM54.3326 103.189L22.5037 114.194L17.0043 98.3765L48.8333 87.371L54.3326 103.189Z" fill="#349DD7"/>
<path d="M27.2156 124.993L57.3332 114.58C57.5781 114.495 57.7086 114.227 57.6233 113.983L55.384 107.541C55.2987 107.297 55.0307 107.167 54.7858 107.252L24.6682 117.666C24.4233 117.751 24.2928 118.018 24.3781 118.262L26.6174 124.704C26.7027 124.948 26.9707 125.079 27.2156 124.993ZM56.5814 113.846L27.3521 123.952L25.421 118.397L54.6503 108.29L56.5814 113.846Z" fill="#349DD7"/>
<path d="M35.6665 137.974L58.7551 129.99C59 129.905 59.1305 129.638 59.0451 129.394L58.459 127.708C58.3737 127.463 58.1057 127.334 57.8608 127.418L34.7722 135.401C34.5273 135.487 34.3968 135.754 34.4821 135.998L35.0683 137.684C35.1536 137.929 35.4216 138.059 35.6665 137.974ZM58.0033 129.258L35.803 136.934L35.525 136.135L57.7253 128.459L58.0033 129.258Z" fill="#349DD7"/>
<path d="M23.6765 119.001L56.3938 107.688C56.6387 107.603 56.7691 107.336 56.6838 107.092L55.8798 104.781C55.7945 104.536 55.5265 104.406 55.2816 104.491L22.5644 115.804C22.3185 115.889 22.189 116.156 22.2743 116.401L23.0783 118.713C23.1626 118.956 23.4306 119.086 23.6765 119.001ZM55.641 106.956L23.812 117.961L23.3162 116.536L55.1451 105.53L55.641 106.956Z" fill="#349DD7"/>
<path d="M26.3448 118.079C26.5907 117.994 26.7202 117.727 26.6349 117.483L25.8309 115.171C25.7456 114.926 25.4776 114.797 25.2327 114.881C24.9878 114.966 24.8573 115.233 24.9426 115.478L25.7466 117.789C25.8319 118.034 26.0999 118.163 26.3448 118.079Z" fill="#349DD7"/>
<path d="M29.0821 117.132C29.328 117.047 29.4575 116.78 29.3722 116.536L28.5682 114.225C28.4829 113.98 28.2149 113.85 27.97 113.935C27.7251 114.02 27.5946 114.288 27.6799 114.532L28.4839 116.843C28.5692 117.087 28.8372 117.217 29.0821 117.132Z" fill="#349DD7"/>
<path d="M31.8205 116.186C32.0654 116.101 32.1959 115.833 32.1106 115.589L31.3066 113.278C31.2213 113.033 30.9543 112.904 30.7084 112.988C30.4625 113.073 30.333 113.34 30.4183 113.584L31.2223 115.895C31.3076 116.141 31.5756 116.271 31.8205 116.186Z" fill="#349DD7"/>
<path d="M34.5588 115.239C34.8037 115.154 34.9342 114.886 34.8489 114.642L34.0449 112.331C33.9596 112.086 33.6916 111.956 33.4467 112.041C33.2018 112.126 33.0713 112.393 33.1566 112.637L33.9606 114.948C34.0459 115.194 34.3129 115.324 34.5588 115.239Z" fill="#349DD7"/>
<path d="M37.2971 114.292C37.542 114.207 37.6725 113.939 37.5871 113.695L36.7832 111.384C36.6978 111.14 36.4309 111.01 36.1849 111.095C35.94 111.18 35.8095 111.447 35.8949 111.691L36.6988 114.002C36.7842 114.247 37.0512 114.377 37.2971 114.292Z" fill="#349DD7"/>
<path d="M40.0351 113.345C40.28 113.26 40.4105 112.992 40.3252 112.748L39.5212 110.437C39.4359 110.192 39.1679 110.063 38.923 110.147C38.6781 110.232 38.5476 110.499 38.6329 110.743L39.4369 113.055C39.5222 113.3 39.7892 113.43 40.0351 113.345Z" fill="#349DD7"/>
<path d="M42.7736 112.398C43.0185 112.313 43.149 112.046 43.0637 111.801L42.2597 109.49C42.1744 109.245 41.9064 109.116 41.6615 109.2C41.4156 109.285 41.2861 109.552 41.3714 109.797L42.1754 112.108C42.2597 112.353 42.5277 112.483 42.7736 112.398Z" fill="#349DD7"/>
<path d="M45.5119 111.452C45.7568 111.367 45.8873 111.1 45.802 110.856L44.998 108.543C44.9127 108.299 44.6447 108.169 44.3998 108.254C44.1549 108.339 44.0244 108.606 44.1097 108.851L44.9137 111.162C44.998 111.407 45.266 111.536 45.5119 111.452Z" fill="#349DD7"/>
<path d="M48.2491 110.505C48.495 110.42 48.6245 110.153 48.5392 109.908L47.7352 107.597C47.6499 107.352 47.3829 107.223 47.137 107.307C46.8911 107.392 46.7616 107.659 46.8469 107.903L47.6509 110.215C47.7362 110.46 48.0042 110.59 48.2491 110.505Z" fill="#349DD7"/>
<path d="M50.9864 109.558C51.2323 109.473 51.3618 109.206 51.2765 108.962L50.4725 106.65C50.3872 106.405 50.1192 106.276 49.8743 106.36C49.6294 106.445 49.4989 106.712 49.5842 106.957L50.3882 109.269C50.4735 109.513 50.7415 109.643 50.9864 109.558Z" fill="#349DD7"/>
<path d="M53.725 108.611C53.97 108.526 54.1004 108.259 54.0151 108.015L53.2111 105.704C53.1258 105.459 52.8588 105.329 52.6129 105.413C52.368 105.498 52.2375 105.766 52.3229 106.01L53.1268 108.321C53.2121 108.566 53.4801 108.696 53.725 108.611Z" fill="#349DD7"/>
<path d="M51.7128 102.823C51.9577 102.738 52.0882 102.47 52.0029 102.226L47.6016 89.567C47.5163 89.3218 47.2483 89.1927 47.0034 89.2768C46.7585 89.3618 46.628 89.6291 46.7133 89.8733L51.1146 102.532C51.1999 102.778 51.4669 102.907 51.7128 102.823Z" fill="#349DD7"/>
<path d="M24.3321 112.29C24.578 112.204 24.7075 111.937 24.6222 111.693L20.2209 99.034C20.1356 98.7887 19.8686 98.6596 19.6227 98.7437C19.3768 98.8288 19.2473 99.096 19.3326 99.3403L23.7339 111.999C23.8192 112.244 24.0872 112.375 24.3321 112.29Z" fill="#349DD7"/>
<path d="M29.8088 110.397C30.0537 110.312 30.1842 110.044 30.0989 109.8L25.6976 97.1413C25.6122 96.896 25.3442 96.7669 25.0993 96.851C24.8544 96.9361 24.7239 97.2033 24.8093 97.4475L29.2106 110.107C29.2959 110.352 29.5629 110.481 29.8088 110.397Z" fill="#349DD7"/>
<path d="M35.2852 108.503C35.5312 108.418 35.6606 108.151 35.5753 107.906L31.174 95.2475C31.0887 95.0033 30.8217 94.8731 30.5758 94.9572C30.3309 95.0423 30.2004 95.3095 30.2857 95.5538L34.687 108.213C34.7713 108.458 35.0393 108.588 35.2852 108.503Z" fill="#349DD7"/>
<path d="M40.76 106.609C41.0049 106.524 41.1353 106.257 41.05 106.013L36.6487 93.3535C36.5634 93.1083 36.2964 92.9792 36.0505 93.0633C35.8056 93.1483 35.6751 93.4156 35.7604 93.6598L40.1617 106.319C40.2471 106.564 40.515 106.694 40.76 106.609Z" fill="#349DD7"/>
<path d="M46.2365 104.715C46.4814 104.63 46.6119 104.363 46.5266 104.119L42.1253 91.4599C42.04 91.2156 41.772 91.0855 41.5271 91.1706C41.2812 91.2557 41.1517 91.5229 41.237 91.7672L45.6383 104.426C45.7236 104.67 45.9916 104.801 46.2365 104.715Z" fill="#349DD7"/>
<path d="M18.723 96.2054L46.1336 86.7274C49.4519 85.5803 51.2154 81.9529 50.0652 78.6437L46.4739 68.3159C46.3886 68.0707 46.1216 67.9416 45.8757 68.0257C43.4477 68.8655 42.1579 71.518 43 73.9393L44.085 77.0602L41.0146 78.1222L39.9296 75.0013C39.0875 72.58 36.4276 71.2928 33.9996 72.1326L19.1928 77.2524C16.7648 78.0922 15.475 80.7447 16.3171 83.166L17.4022 86.287L14.3318 87.349L13.2467 84.228C12.4046 81.8067 9.74477 80.5195 7.31678 81.3593C7.07087 81.4444 6.94139 81.7116 7.0267 81.9559L10.618 92.2836C11.7683 95.5928 15.4047 97.3524 18.723 96.2054ZM45.7492 69.0927L49.1759 78.95C50.1565 81.7717 48.6539 84.8626 45.8245 85.8405L18.4139 95.3185C15.5854 96.2964 12.4859 94.797 11.5053 91.9764L8.0776 82.119C9.88229 81.7387 11.7372 82.7516 12.3575 84.5343L13.5971 88.0987C13.6824 88.3439 13.9504 88.473 14.1953 88.389L18.1539 87.0197C18.3988 86.9346 18.5293 86.6673 18.444 86.4231L17.2044 82.8587C16.5319 80.9259 17.5627 78.8089 19.4999 78.1382L34.3068 73.0184C36.245 72.3488 38.3688 73.3747 39.0403 75.3076L40.2799 78.8719C40.3652 79.1172 40.6322 79.2463 40.8781 79.1612L44.8368 77.7929C45.0817 77.7078 45.2122 77.4406 45.1269 77.1964L43.8873 73.632C43.268 71.8493 44.0961 69.9084 45.7492 69.0927Z" fill="#349DD7"/>
<path d="M26.6385 123.334L56.7561 112.92C57.001 112.835 57.1314 112.568 57.0461 112.324C56.9608 112.079 56.6938 111.949 56.4479 112.034L26.3303 122.448C26.0854 122.533 25.9549 122.801 26.0402 123.045C26.1256 123.289 26.3935 123.419 26.6385 123.334Z" fill="#349DD7"/>
<path d="M59.882 127.713C60.1269 127.628 60.2574 127.361 60.1721 127.117L59.3691 124.805C59.2838 124.561 59.0168 124.431 58.7709 124.516C58.526 124.601 58.3955 124.869 58.4808 125.113L59.2838 127.424C59.3691 127.668 59.6361 127.798 59.882 127.713Z" fill="#349DD7"/>
<path d="M177 118.225C162.54 118.225 150.776 106.46 150.776 92C150.776 77.5395 162.54 65.7748 177 65.7748C191.459 65.7748 203.224 77.5395 203.224 92C203.224 106.46 191.46 118.225 177 118.225ZM177 66.7117C163.056 66.7117 151.714 78.0561 151.714 92C151.714 105.944 163.056 117.288 177 117.288C190.943 117.288 202.286 105.944 202.286 92C202.286 78.0561 190.943 66.7117 177 66.7117Z" fill="#349DD7"/>
<path d="M177 121C161.009 121 148 107.991 148 92C148 76.009 161.009 63 177 63C192.991 63 206 76.009 206 92C206 107.991 192.991 121 177 121ZM177 63.9369C161.527 63.9369 148.939 76.5265 148.939 92C148.939 107.473 161.527 120.063 177 120.063C192.473 120.063 205.061 107.473 205.061 92C205.061 76.5265 192.473 63.9369 177 63.9369Z" fill="#349DD7"/>
<path d="M165.697 96.8778C165.438 96.8778 165.228 96.6686 165.228 96.4094V68.8498C165.228 68.5906 165.438 68.3813 165.697 68.3813C165.956 68.3813 166.166 68.5906 166.166 68.8498V96.4094C166.166 96.6686 165.956 96.8778 165.697 96.8778Z" fill="#349DD7"/>
<path d="M200.148 81.1643H172.319C172.06 81.1643 171.85 80.9553 171.85 80.6963C171.85 80.4373 172.06 80.2283 172.319 80.2283H200.149C200.409 80.2283 200.619 80.4373 200.619 80.6963C200.618 80.9553 200.408 81.1643 200.148 81.1643Z" fill="#349DD7"/>
<path d="M188.302 115.618C188.043 115.618 187.833 115.408 187.833 115.149V87.7107C187.833 87.4514 188.043 87.2422 188.302 87.2422C188.561 87.2422 188.771 87.4514 188.771 87.7107V115.149C188.771 115.408 188.561 115.618 188.302 115.618Z" fill="#349DD7"/>
<path d="M181.366 103.771H153.852C153.592 103.771 153.382 103.561 153.382 103.303C153.382 103.044 153.592 102.835 153.852 102.835H181.365C181.624 102.835 181.834 103.044 181.834 103.303C181.834 103.561 181.624 103.771 181.366 103.771Z" fill="#349DD7"/>
<path d="M165.954 87.5306C165.834 87.5306 165.714 87.4855 165.623 87.3934C165.439 87.2102 165.439 86.9139 165.623 86.7308L185.045 67.3073C185.227 67.1231 185.526 67.1231 185.708 67.3073C185.892 67.4905 185.892 67.7868 185.708 67.97L166.285 87.3934C166.194 87.4855 166.074 87.5306 165.954 87.5306Z" fill="#349DD7"/>
<path d="M201.361 100.845C201.241 100.845 201.121 100.8 201.03 100.708L181.437 81.1143C181.253 80.9311 181.253 80.6348 181.437 80.4516C181.619 80.2674 181.917 80.2674 182.1 80.4516L201.692 100.045C201.876 100.228 201.876 100.525 201.692 100.708C201.602 100.8 201.481 100.845 201.361 100.845Z" fill="#349DD7"/>
<path d="M168.623 116.83C168.503 116.83 168.383 116.785 168.292 116.693C168.108 116.509 168.108 116.213 168.292 116.03L187.769 96.5524C187.951 96.3683 188.249 96.3683 188.431 96.5524C188.615 96.7356 188.615 97.0319 188.431 97.2151L168.955 116.692C168.864 116.785 168.744 116.83 168.623 116.83Z" fill="#349DD7"/>
<path d="M172.098 103.552C171.978 103.552 171.858 103.506 171.766 103.414L152.309 83.956C152.125 83.7728 152.125 83.4765 152.309 83.2933C152.491 83.1091 152.79 83.1091 152.972 83.2933L172.429 102.752C172.613 102.935 172.613 103.231 172.429 103.414C172.338 103.506 172.218 103.552 172.098 103.552Z" fill="#349DD7"/>
<path d="M367.784 117.534L338.686 124.317C336.443 124.84 334.195 123.438 333.673 121.192L329.088 101.464C328.567 99.2173 329.966 96.965 332.209 96.4426L361.307 89.6595C363.55 89.1372 365.799 90.5386 366.321 92.7849L370.906 112.513C371.427 114.76 370.027 117.012 367.784 117.534ZM332.421 97.3588C330.683 97.7637 329.599 99.5097 330.003 101.251L334.587 120.979C334.991 122.72 336.734 123.806 338.472 123.401L367.571 116.618C369.309 116.213 370.393 114.467 369.989 112.726L365.404 92.9978C365 91.2579 363.257 90.1709 361.519 90.5757L332.421 97.3588Z" fill="#349DD7"/>
<path d="M326.301 96.8224L323.025 97.5859C322.773 97.6451 322.521 97.4874 322.462 97.2342L321.862 94.6534C321.803 94.4003 321.96 94.1471 322.213 94.0888L325.489 93.3253C325.741 93.2661 325.993 93.4238 326.052 93.677L326.652 96.2578C326.711 96.5099 326.554 96.7631 326.301 96.8224ZM323.27 96.5632L325.631 96.0127L325.244 94.348L322.883 94.8986L323.27 96.5632Z" fill="#349DD7"/>
<path d="M327.59 102.371L324.315 103.134C324.062 103.194 323.809 103.036 323.751 102.783L323.151 100.202C323.092 99.9487 323.249 99.6955 323.502 99.6373L326.778 98.8738C327.031 98.8145 327.283 98.9723 327.342 99.2254L327.941 101.806C328.001 102.058 327.844 102.312 327.59 102.371ZM324.559 102.111L326.92 101.56L326.533 99.8955L324.172 100.446L324.559 102.111Z" fill="#349DD7"/>
<path d="M328.879 107.918L325.604 108.682C325.351 108.741 325.098 108.583 325.04 108.33L324.44 105.749C324.381 105.496 324.538 105.243 324.791 105.185L328.067 104.421C328.32 104.362 328.572 104.52 328.631 104.773L329.23 107.354C329.289 107.607 329.132 107.86 328.879 107.918ZM325.847 107.659L328.208 107.108L327.821 105.444L325.46 105.994L325.847 107.659Z" fill="#349DD7"/>
<path d="M330.169 113.467L326.893 114.23C326.64 114.289 326.387 114.132 326.329 113.879L325.729 111.298C325.67 111.045 325.828 110.792 326.08 110.733L329.356 109.97C329.609 109.91 329.862 110.068 329.92 110.321L330.52 112.902C330.579 113.155 330.421 113.407 330.169 113.467ZM327.138 113.207L329.499 112.657L329.111 110.992L326.75 111.543L327.138 113.207Z" fill="#349DD7"/>
<path d="M331.458 119.015L328.183 119.779C327.93 119.838 327.677 119.68 327.619 119.427L327.019 116.846C326.96 116.593 327.117 116.34 327.37 116.282L330.646 115.518C330.899 115.459 331.151 115.617 331.21 115.87L331.809 118.451C331.868 118.704 331.711 118.956 331.458 119.015ZM328.426 118.756L330.787 118.205L330.4 116.541L328.039 117.091L328.426 118.756Z" fill="#349DD7"/>
<path d="M332.748 124.563L329.472 125.327C329.219 125.386 328.966 125.228 328.908 124.975L328.308 122.395C328.249 122.141 328.407 121.888 328.659 121.83L331.935 121.066C332.188 121.007 332.441 121.165 332.499 121.418L333.099 123.999C333.158 124.252 333 124.504 332.748 124.563ZM329.716 124.304L332.077 123.754L331.69 122.09L329.329 122.641L329.716 124.304Z" fill="#349DD7"/>
<path d="M334.036 130.112L330.76 130.875C330.507 130.935 330.254 130.777 330.196 130.524L329.596 127.943C329.537 127.69 329.695 127.437 329.947 127.378L333.223 126.615C333.476 126.555 333.729 126.713 333.787 126.966L334.387 129.547C334.446 129.8 334.288 130.053 334.036 130.112ZM331.005 129.853L333.366 129.302L332.978 127.637L330.617 128.188L331.005 129.853Z" fill="#349DD7"/>
<path d="M370.05 86.6238L366.775 87.3872C366.522 87.4465 366.269 87.2888 366.21 87.0357L365.61 84.4548C365.551 84.2017 365.708 83.9485 365.961 83.8902L369.237 83.1267C369.49 83.0675 369.742 83.2252 369.802 83.4783L370.401 86.0592C370.462 86.3113 370.303 86.5645 370.05 86.6238ZM367.02 86.3646L369.38 85.8141L368.993 84.1494L366.633 84.6999L367.02 86.3646Z" fill="#349DD7"/>
<path d="M371.34 92.1721L368.065 92.9356C367.812 92.9949 367.559 92.8371 367.5 92.584L366.9 90.0031C366.841 89.75 366.998 89.4968 367.251 89.4386L370.527 88.6751C370.78 88.6158 371.032 88.7735 371.092 89.0267L371.691 91.6075C371.751 91.8597 371.593 92.1128 371.34 92.1721ZM368.309 91.9119L370.669 91.3614L370.282 89.6967L367.922 90.2473L368.309 91.9119Z" fill="#349DD7"/>
<path d="M372.628 97.7194L369.353 98.4829C369.1 98.5422 368.847 98.3845 368.788 98.1313L368.188 95.5505C368.129 95.2973 368.287 95.0442 368.539 94.9859L371.815 94.2224C372.068 94.1632 372.321 94.3209 372.38 94.574L372.979 97.1549C373.039 97.408 372.881 97.6612 372.628 97.7194ZM369.597 97.4603L371.957 96.9097L371.57 95.2451L369.21 95.7956L369.597 97.4603Z" fill="#349DD7"/>
<path d="M373.918 103.268L370.642 104.031C370.389 104.091 370.136 103.933 370.077 103.68L369.477 101.099C369.418 100.846 369.576 100.593 369.828 100.534L373.104 99.7709C373.357 99.7116 373.61 99.8693 373.669 100.122L374.269 102.703C374.329 102.956 374.171 103.21 373.918 103.268ZM370.888 103.009L373.248 102.458L372.86 100.794L370.5 101.344L370.888 103.009Z" fill="#349DD7"/>
<path d="M375.207 108.816L371.932 109.58C371.679 109.639 371.426 109.481 371.367 109.228L370.767 106.647C370.708 106.394 370.865 106.141 371.118 106.083L374.394 105.319C374.647 105.26 374.899 105.418 374.959 105.671L375.558 108.252C375.618 108.505 375.46 108.757 375.207 108.816ZM372.176 108.557L374.536 108.007L374.149 106.342L371.789 106.892L372.176 108.557Z" fill="#349DD7"/>
<path d="M376.497 114.365L373.221 115.128C372.968 115.187 372.715 115.03 372.656 114.777L372.056 112.196C371.997 111.943 372.155 111.689 372.407 111.631L375.683 110.868C375.936 110.808 376.189 110.966 376.248 111.219L376.848 113.799C376.907 114.053 376.749 114.305 376.497 114.365ZM373.466 114.106L375.826 113.555L375.439 111.891L373.079 112.442L373.466 114.106Z" fill="#349DD7"/>
<path d="M377.786 119.913L374.51 120.677C374.257 120.736 374.004 120.578 373.945 120.325L373.345 117.744C373.286 117.491 373.444 117.238 373.697 117.18L376.972 116.416C377.225 116.357 377.478 116.514 377.537 116.768L378.137 119.348C378.196 119.602 378.038 119.854 377.786 119.913ZM374.755 119.654L377.115 119.103L376.728 117.439L374.368 117.989L374.755 119.654Z" fill="#349DD7"/>
<path d="M379.075 125.462L375.799 126.225C375.546 126.284 375.294 126.127 375.235 125.874L374.635 123.293C374.576 123.04 374.733 122.786 374.986 122.728L378.262 121.965C378.514 121.905 378.767 122.063 378.826 122.316L379.426 124.897C379.485 125.15 379.328 125.402 379.075 125.462ZM376.044 125.202L378.404 124.652L378.017 122.987L375.657 123.538L376.044 125.202Z" fill="#349DD7"/>
<path d="M381.636 127.058L374.205 128.79C373.953 128.849 373.7 128.691 373.641 128.438L372.619 124.04C372.215 122.3 370.471 121.213 368.733 121.618L339.635 128.401C337.897 128.806 336.812 130.552 337.217 132.293L338.239 136.691C338.298 136.944 338.14 137.197 337.888 137.256L330.456 138.988C330.204 139.047 329.951 138.889 329.893 138.636L318.012 87.5067C317.953 87.2536 318.111 87.0014 318.363 86.9421L325.795 85.2102C326.047 85.1509 326.3 85.3086 326.358 85.5618L327.38 89.9599C327.784 91.7009 329.529 92.7869 331.266 92.382L360.364 85.599C362.102 85.1941 363.187 83.4481 362.782 81.7071L361.76 77.309C361.701 77.0558 361.859 76.8027 362.111 76.7444L369.543 75.0125C369.795 74.9532 370.048 75.1109 370.107 75.3641L381.988 126.493C382.047 126.746 381.889 127 381.636 127.058ZM374.45 127.767L380.966 126.248L369.298 76.0352L362.782 77.5541L363.698 81.4942C364.22 83.7404 362.82 85.9928 360.577 86.5162L331.478 93.2992C329.236 93.8226 326.987 92.4202 326.466 90.1739L325.55 86.2339L319.033 87.7528L330.701 137.966L337.218 136.447L336.302 132.507C335.78 130.261 337.179 128.008 339.422 127.486L368.521 120.703C370.763 120.18 373.013 121.582 373.534 123.828L374.45 127.767Z" fill="#349DD7"/>
<path d="M325.012 91.274L321.736 92.0375C321.484 92.0968 321.231 91.9391 321.173 91.6859L320.573 89.1051C320.514 88.8519 320.671 88.5988 320.924 88.5405L324.2 87.777C324.453 87.7177 324.704 87.8755 324.763 88.1286L325.363 90.7094C325.421 90.9626 325.265 91.2148 325.012 91.274ZM321.98 91.0149L324.341 90.4643L323.954 88.7997L321.593 89.3502L321.98 91.0149Z" fill="#349DD7"/>
<path d="M368.761 81.0752L365.485 81.8387C365.233 81.8979 364.98 81.7402 364.921 81.487L364.321 78.9062C364.262 78.6531 364.419 78.3999 364.672 78.3416L367.948 77.5781C368.201 77.5189 368.453 77.6766 368.512 77.9298L369.112 80.5106C369.171 80.7637 369.014 81.0159 368.761 81.0752ZM365.73 80.816L368.09 80.2654L367.703 78.6008L365.343 79.1513L365.73 80.816Z" fill="#349DD7"/>
<path d="M340.923 107.075C339.114 107.497 337.299 106.366 336.878 104.554C336.457 102.742 337.586 100.923 339.396 100.502C341.205 100.081 343.019 101.212 343.441 103.024C343.862 104.836 342.733 106.653 340.923 107.075ZM339.608 101.418C338.303 101.723 337.489 103.034 337.792 104.341C338.096 105.648 339.405 106.464 340.71 106.16C342.014 105.856 342.829 104.545 342.526 103.238C342.222 101.93 340.913 101.114 339.608 101.418Z" fill="#349DD7"/>
<path d="M352.832 115.312C352.812 115.317 340.804 118.116 340.804 118.116C340.618 118.159 340.427 118.087 340.315 117.932C340.205 117.777 340.198 117.571 340.297 117.41L344.876 110.015C345.013 109.795 345.301 109.726 345.522 109.862L352.866 114.405C353.019 114.453 353.143 114.579 353.182 114.747C353.242 115 353.083 115.253 352.832 115.312ZM341.694 116.943L351.489 114.659L345.428 110.911L341.694 116.943Z" fill="#349DD7"/>
<path d="M365.303 112.405C365.284 112.41 352.813 115.316 352.813 115.316C352.693 115.344 352.566 115.323 352.46 115.259L348.242 112.65C348.041 112.525 347.964 112.273 348.059 112.058L352.642 101.776C352.701 101.641 352.82 101.543 352.963 101.51C353.106 101.477 353.256 101.512 353.369 101.604L365.392 111.519C365.52 111.577 365.62 111.692 365.654 111.84C365.714 112.093 365.556 112.345 365.303 112.405ZM352.789 114.356L364.145 111.709L353.248 102.723L349.084 112.065L352.789 114.356Z" fill="#349DD7"/>
<path d="M290.378 20.9622C290.511 20.7429 290.798 20.6724 291.018 20.8054L320.086 38.3778L325.021 37.1712C325.27 37.1097 325.523 37.2625 325.584 37.5116C325.645 37.7606 325.492 38.0126 325.242 38.0732L320.121 39.3254C320.001 39.3551 319.875 39.3353 319.769 39.2718L290.535 21.5992C290.315 21.4672 290.245 21.1824 290.378 20.9622Z" fill="#349DD7"/>
<path d="M295.688 12.2236C295.732 12.1492 295.8 12.0867 295.885 12.046C296.116 11.9348 296.395 12.0321 296.506 12.2633L304.646 29.1322C304.756 29.3634 304.66 29.6402 304.428 29.7523C304.196 29.8634 303.918 29.7662 303.806 29.535L295.667 12.6661C295.595 12.5193 295.609 12.3536 295.688 12.2236Z" fill="#349DD7"/>
<path d="M298.631 18.3258C298.72 18.1809 298.885 18.0896 299.066 18.1025C299.322 18.1224 299.514 18.3456 299.494 18.6016L298.937 25.8905C298.916 26.1445 298.694 26.338 298.437 26.3182C298.18 26.2983 297.988 26.0751 298.008 25.8191L298.565 18.5302C298.571 18.4568 298.594 18.3863 298.631 18.3258Z" fill="#349DD7"/>
<path d="M285.068 29.7007C285.146 29.5707 285.288 29.4824 285.452 29.4765L304.21 28.8692C304.468 28.8613 304.683 29.0617 304.692 29.3187C304.699 29.5767 304.497 29.791 304.241 29.7989L285.482 30.4062C285.224 30.4141 285.009 30.2137 285 29.9567C284.998 29.8624 285.023 29.7751 285.068 29.7007Z" fill="#349DD7"/>
<path d="M291.853 29.4794C291.89 29.4189 291.942 29.3663 292.005 29.3266L298.226 25.4609C298.445 25.325 298.732 25.3914 298.868 25.6097C299.004 25.828 298.935 26.1158 298.718 26.2497L292.498 30.1154C292.279 30.2514 291.992 30.1849 291.856 29.9666C291.761 29.8138 291.766 29.6253 291.853 29.4794Z" fill="#349DD7"/>
<path d="M323.532 37.6753C323.596 37.5691 323.7 37.4937 323.82 37.4649L325.021 37.1712C325.271 37.1107 325.524 37.2625 325.584 37.5126L325.939 38.9523C326.001 39.2003 325.848 39.4534 325.597 39.5139L324.397 39.8076C324.276 39.8374 324.15 39.8175 324.043 39.753C323.938 39.6895 323.862 39.5863 323.833 39.4663L323.478 38.0266C323.449 37.9075 323.468 37.7815 323.532 37.6753ZM324.79 38.1853L324.493 38.2577L324.625 38.7945L324.921 38.7221L324.79 38.1853Z" fill="#349DD7"/>
<path d="M325.169 45.8204C325.233 45.7153 325.336 45.6388 325.456 45.6101L327.347 45.1477C327.467 45.118 327.594 45.1378 327.7 45.2013C327.805 45.2648 327.882 45.369 327.91 45.488L328.06 46.0943C328.225 46.764 327.782 47.4933 327.11 47.6571L326.83 47.7255C326.494 47.8089 326.146 47.7553 325.85 47.5757C325.554 47.3971 325.346 47.1133 325.263 46.7779L325.115 46.1717C325.085 46.0516 325.105 45.9256 325.169 45.8204ZM327.118 46.1598L326.132 46.4009L326.17 46.5557C326.193 46.6499 326.251 46.7293 326.335 46.7799C326.417 46.8305 326.516 46.8454 326.61 46.8216L326.89 46.7531C327.079 46.7065 327.202 46.5021 327.156 46.3136L327.118 46.1598Z" fill="#349DD7"/>
<path d="M322.927 39.3502C322.988 39.248 323.089 39.1706 323.214 39.1399L326.334 38.3759C326.453 38.3461 326.581 38.3659 326.686 38.4294C326.792 38.4929 326.867 38.5961 326.897 38.7162L328.522 45.3264C328.582 45.5656 328.421 45.8295 328.181 45.8881L325.062 46.6511C324.812 46.7126 324.559 46.5598 324.499 46.3107L322.873 39.7015C322.842 39.5775 322.865 39.4524 322.927 39.3502ZM326.104 39.3899L323.89 39.9317L325.293 45.638L327.508 45.0963L326.104 39.3899Z" fill="#349DD7"/>
<path d="M319.995 33.6279C320.057 33.5257 320.157 33.4473 320.283 33.4175C320.532 33.356 320.785 33.5088 320.846 33.7579L325.799 53.9031C325.86 54.1522 325.708 54.4042 325.457 54.4647C325.208 54.5262 324.955 54.3735 324.894 54.1244L319.941 33.9792C319.911 33.8551 319.933 33.7301 319.995 33.6279Z" fill="#349DD7"/>
<path d="M304.407 58.0328C304.449 57.9643 304.509 57.9058 304.583 57.8651C304.77 57.7639 304.999 57.8006 305.145 57.9544C305.186 57.999 305.229 58.0437 305.273 58.0873C305.477 58.1776 306.221 58.3632 308.425 57.8234C311.07 57.1765 311.531 56.593 311.595 56.4889C311.6 56.2835 311.741 56.0969 311.95 56.0453C312.2 55.9838 312.452 56.1366 312.514 56.3857C312.552 56.5375 312.575 56.9403 311.992 57.4057C311.389 57.8859 310.264 58.3304 308.647 58.7253C307.76 58.9426 307.003 59.0706 306.382 59.1083C311.254 63.1417 319.287 64.4723 327.43 62.4809C335.602 60.4816 342.124 55.5621 344.551 49.7129C343.985 49.9878 343.197 50.2735 342.104 50.5414C340.581 50.9135 339.442 51.0227 338.72 50.8629C338.001 50.7041 337.853 50.3112 337.824 50.1951C337.763 49.9461 337.916 49.6941 338.166 49.6335C338.379 49.581 338.594 49.6851 338.691 49.8717C338.785 49.9332 339.414 50.2428 341.882 49.6395C344.59 48.9767 345.023 48.2871 345.08 48.2008C345.15 47.9497 345.387 47.8059 345.626 47.8545C345.865 47.9021 346.026 48.1264 345.996 48.3675C345.992 48.4042 345.983 48.4508 345.963 48.5074C343.996 55.3061 336.818 61.1424 327.653 63.3848C318.597 65.6005 309.633 63.8095 304.694 58.8265C304.443 58.6559 304.373 58.4604 304.354 58.384C304.323 58.262 304.345 58.136 304.407 58.0328Z" fill="#349DD7"/>
<path d="M311.664 56.2577C311.711 56.1783 311.784 56.1128 311.874 56.0731C312.08 55.9818 312.323 56.0523 312.449 56.2388C312.588 56.3331 313.325 56.6248 316.142 55.9362C319.064 55.2218 319.593 54.6096 319.668 54.4984C319.68 54.298 319.818 54.1204 320.023 54.0718C320.272 54.0103 320.525 54.1631 320.586 54.4121C320.625 54.5669 320.644 54.9787 320.007 55.452C319.348 55.9411 318.123 56.4085 316.365 56.8381C315.063 57.1576 314.016 57.3164 313.24 57.3144C316.775 61.7397 322.213 63.7569 327.432 62.4809C332.65 61.2039 336.534 56.9076 337.616 51.3521C336.979 51.6825 336.018 52.0298 334.598 52.3771C332.851 52.8047 331.555 52.9545 330.748 52.8236C329.967 52.6966 329.794 52.3235 329.756 52.1677C329.695 51.9177 329.848 51.6666 330.098 51.6061C330.303 51.5565 330.509 51.6498 330.611 51.8224C330.728 51.8869 331.475 52.1846 334.377 51.4751C337.216 50.7806 337.737 50.1783 337.813 50.0652C337.84 49.8082 338.023 49.6345 338.249 49.6207C338.475 49.6058 338.678 49.7546 338.733 49.9739C338.762 50.09 338.762 50.217 338.718 50.3529C337.918 56.8292 333.597 61.9312 327.654 63.3839C321.691 64.8425 315.469 62.2914 311.761 56.8808C311.666 56.7746 311.627 56.6724 311.612 56.6079C311.579 56.4859 311.601 56.3599 311.664 56.2577Z" fill="#349DD7"/>
<path d="M319.734 54.2831C319.791 54.1899 319.879 54.1174 319.991 54.0817C320.19 54.0182 320.401 54.0946 320.515 54.2583C320.664 54.3278 321.565 54.6095 325.271 53.7026C329.006 52.7888 329.654 52.122 329.748 51.994C329.779 51.8016 329.928 51.6408 330.129 51.6071C330.369 51.5654 330.601 51.7112 330.66 51.9484C330.665 51.9672 330.668 51.9901 330.671 52.0119C331.111 56.3618 330.696 59.9468 329.533 61.8618C329.029 62.6903 328.397 63.2023 327.653 63.3839C325.143 63.998 322.097 60.6731 319.705 54.7068C319.695 54.681 319.686 54.6552 319.68 54.6334C319.648 54.5113 319.671 54.3853 319.734 54.2831ZM329.829 53.0994C328.996 53.5995 327.546 54.1045 325.493 54.6056C323.422 55.1126 321.916 55.3359 320.951 55.2754C323.007 59.9974 325.611 62.9264 327.43 62.4819C329.206 62.0473 330.193 58.1568 329.829 53.0994Z" fill="#349DD7"/>
<path d="M327.143 62.6935C327.204 62.5913 327.305 62.5139 327.43 62.4831C327.68 62.4216 327.932 62.5744 327.993 62.8234L328.387 64.4249C328.449 64.6739 328.297 64.926 328.046 64.9865C327.796 65.048 327.543 64.8952 327.483 64.6462L327.089 63.0447C327.058 62.9197 327.081 62.7947 327.143 62.6935Z" fill="#349DD7"/>
<path d="M311.165 34.5447L312.068 33.0583C312.202 32.8391 312.488 32.7686 312.708 32.9016C312.928 33.0345 312.998 33.3203 312.865 33.5396L311.962 35.0259C311.829 35.2452 311.542 35.3157 311.322 35.1827C311.102 35.0498 311.032 34.764 311.165 34.5447Z" fill="#349DD7"/>
<path d="M8.51818 36.7329L7.60296 37.5457C7.40906 37.7185 7.1117 37.7004 6.9389 37.5065L5.09337 35.4269C4.92057 35.232 4.93865 34.9356 5.13255 34.7628L6.04777 33.9501C6.24267 33.7773 6.53904 33.7953 6.71184 33.9892L8.55737 36.0689C8.73017 36.2638 8.71308 36.5611 8.51818 36.7329ZM7.3297 36.53L7.54167 36.3421L6.32104 34.9657L6.10906 35.1536L7.3297 36.53Z" fill="#349DD7"/>
<path d="M25.3571 21.7867L24.4409 22.5995C24.247 22.7723 23.9496 22.7542 23.7768 22.5603L21.9313 20.4807C21.7585 20.2858 21.7765 19.9894 21.9704 19.8166L22.8867 19.0039C23.0806 18.8311 23.3779 18.8492 23.5507 19.0431L25.3963 21.1227C25.5701 21.3166 25.552 21.614 25.3571 21.7867ZM24.1686 21.5838L24.3816 21.3949L23.1609 20.0196L22.948 20.2085L24.1686 21.5838Z" fill="#349DD7"/>
<path d="M24.2318 36.3058L22.1522 38.1514C21.9583 38.3242 21.661 38.3061 21.4882 38.1122L20.6754 37.197C20.5026 37.0021 20.5207 36.7057 20.7146 36.5329L22.7942 34.6874C22.9881 34.5146 23.2855 34.5326 23.4583 34.7265L24.271 35.6418C24.4438 35.8367 24.4267 36.133 24.2318 36.3058ZM21.88 37.1357L23.2553 35.914L23.0675 35.702L21.6921 36.9227L21.88 37.1357Z" fill="#349DD7"/>
<path d="M39.3752 53.3667L37.2956 55.2122C37.1017 55.385 36.8043 55.367 36.6315 55.1731L31.7721 49.6988C31.5993 49.5049 31.6174 49.2075 31.8113 49.0347L33.8909 47.1892C34.0848 47.0164 34.3821 47.0345 34.5549 47.2284L39.4144 52.7027C39.5872 52.8965 39.5701 53.1939 39.3752 53.3667ZM37.0233 54.1966L38.3987 52.9759L34.1641 48.2059L32.7888 49.4265L37.0233 54.1966Z" fill="#349DD7"/>
<path d="M9.28652 19.467L7.20691 21.3125C7.01201 21.4853 6.71564 21.4672 6.54285 21.2733L5.73008 20.3581C5.55729 20.1642 5.57537 19.8668 5.76927 19.694L7.84888 17.8485C8.04378 17.6757 8.34015 17.6938 8.51295 17.8877L9.32571 18.8029C9.4985 18.9968 9.48042 19.2942 9.28652 19.467ZM6.93364 20.2968L8.309 19.0762L8.12114 18.8642L6.74578 20.0848L6.93364 20.2968Z" fill="#349DD7"/>
<path d="M27.7533 31.5438L17.0067 41.0829C15.3852 42.5215 12.8967 42.3739 11.4571 40.7524L1.918 30.0057C0.479351 28.3842 0.627036 25.8957 2.24853 24.4561L12.9962 14.917C14.6177 13.4784 17.1062 13.6261 18.5458 15.2475L28.0849 25.9942C29.5225 27.6147 29.3748 30.1042 27.7533 31.5438ZM2.87241 25.1593C1.63972 26.2534 1.5272 28.1471 2.62125 29.3808L12.1603 40.1275C13.2544 41.3602 15.1481 41.4737 16.3818 40.3797L27.1285 30.8406C28.3612 29.7465 28.4737 27.8528 27.3796 26.6191L17.8406 15.8724C16.7465 14.6397 14.8527 14.5262 13.619 15.6203L2.87241 25.1593Z" fill="#349DD7"/>
<path d="M20.8106 34.5448C17.2009 37.7486 11.6593 37.418 8.45552 33.8094C5.25172 30.1997 5.58226 24.6581 9.19093 21.4543C12.8006 18.2505 18.3422 18.581 21.546 22.1897C24.7498 25.7994 24.4203 31.342 20.8106 34.5448ZM9.81581 22.1586C6.59493 25.0178 6.30057 29.9646 9.15978 33.1855C12.019 36.4064 16.9658 36.7007 20.1867 33.8415C23.4076 30.9823 23.702 26.0355 20.8428 22.8146C17.9835 19.5937 13.0367 19.2993 9.81581 22.1586Z" fill="#349DD7"/>
<path d="M42.843 18.15C42.8129 18.1761 42.7807 18.1992 42.7445 18.2173L28.4766 25.4799C28.2857 25.5773 28.0537 25.5331 27.911 25.3724L19.1405 15.4917C18.9978 15.331 18.9818 15.0959 19.1013 14.9181L28.0055 1.61362C28.0868 1.49306 28.2184 1.4157 28.3641 1.40566C28.5098 1.39561 28.6514 1.45388 28.7479 1.56339L42.8812 17.487C42.9776 17.5955 43.0188 17.7441 42.9917 17.8868C42.9736 17.9883 42.9204 18.0807 42.843 18.15ZM28.3742 24.4762L41.7751 17.6547L28.4505 2.64237L20.0869 15.1391L28.3742 24.4762Z" fill="#349DD7"/>
<path d="M1.91605 54.4768C1.83869 54.5452 1.74024 54.5874 1.63576 54.5944C1.49109 54.6044 1.34843 54.5462 1.25199 54.4367L-12.8813 38.5131C-12.9778 38.4046 -13.0189 38.2569 -12.9918 38.1132C-12.9647 37.9696 -12.8743 37.848 -12.7427 37.7817L1.52525 30.5192C1.71613 30.4217 1.9482 30.4659 2.09086 30.6257L10.8614 40.5063C11.004 40.667 11.0201 40.9021 10.9006 41.0799L1.99642 54.3854C1.97231 54.4206 1.94619 54.4507 1.91605 54.4768ZM-11.7732 38.3453L1.55137 53.3577L9.915 40.8609L1.62671 31.5238L-11.7732 38.3453Z" fill="#349DD7"/>
<path d="M12.3741 15.0889L2.49246 23.8594C2.33172 24.002 2.09663 24.0181 1.91881 23.8986L-11.3857 14.9944C-11.5062 14.914 -11.5836 14.7814 -11.5936 14.6358C-11.6037 14.4901 -11.5454 14.3484 -11.4359 14.252L4.48667 0.118694C4.59517 0.0222485 4.74386 -0.0189424 4.88652 0.00818291C5.03019 0.0353082 5.15275 0.127736 5.21806 0.257335L12.4806 14.5242C12.5781 14.7141 12.5338 14.9462 12.3741 15.0889ZM2.13983 22.914L11.477 14.6257L4.65445 1.22581L-10.3569 14.5504L2.13983 22.914Z" fill="#349DD7"/>
<path d="M41.4376 41.7481L25.515 55.8813C25.4055 55.9778 25.2578 56.019 25.1152 55.9919C24.9715 55.9647 24.849 55.8723 24.7837 55.7427L17.5201 41.4748C17.4227 41.2839 17.4669 41.0518 17.6276 40.9092L27.5092 32.1387C27.67 31.996 27.9051 31.9799 28.0829 32.0995L41.3874 41.0046C41.5079 41.086 41.5853 41.2186 41.5953 41.3633C41.6054 41.5099 41.5471 41.6516 41.4376 41.7481ZM25.3463 54.7742L40.3576 41.4497L27.8609 33.085L18.5227 41.3733L25.3463 54.7742Z" fill="#349DD7"/>
<path d="M20.8108 34.5447C20.6169 34.7175 20.3196 34.6994 20.1468 34.5055L9.15196 22.1183C8.97916 21.9234 8.99725 21.627 9.19114 21.4542C9.38604 21.2814 9.68241 21.2995 9.85521 21.4934L20.85 33.8806C21.0228 34.0755 21.0057 34.3729 20.8108 34.5447Z" fill="#349DD7"/>
<path d="M22.151 32.7203C21.9561 32.8931 21.6597 32.875 21.4869 32.6811L11.0406 20.9127C10.8678 20.7188 10.8859 20.4214 11.0798 20.2486C11.2747 20.0758 11.5711 20.0939 11.7439 20.2878L22.1901 32.0562C22.3629 32.2511 22.3459 32.5475 22.151 32.7203Z" fill="#349DD7"/>
<path d="M23.2304 30.6006C23.0355 30.7734 22.7391 30.7553 22.5663 30.5614L13.2935 20.1141C13.1207 19.9192 13.1387 19.6229 13.3336 19.4501C13.5275 19.2773 13.8249 19.2953 13.9977 19.4892L23.2706 29.9365C23.4424 30.1304 23.4243 30.4278 23.2304 30.6006Z" fill="#349DD7"/>
<path d="M16.6065 36.4797C16.4126 36.6525 16.1152 36.6344 15.9424 36.4405L6.66954 25.9933C6.49674 25.7994 6.51482 25.502 6.70872 25.3292C6.90362 25.1564 7.2 25.1745 7.3728 25.3684L16.6456 35.8157C16.8184 36.0106 16.8014 36.3069 16.6065 36.4797Z" fill="#349DD7"/>
<path d="M18.8394 35.66C18.6455 35.8328 18.3482 35.8147 18.1754 35.6208L7.72911 23.8524C7.55631 23.6585 7.57439 23.3611 7.76829 23.1883C7.96219 23.0155 8.25956 23.0336 8.43235 23.2275L18.8786 34.9959C19.0524 35.1908 19.0343 35.4882 18.8394 35.66Z" fill="#349DD7"/>
<path d="M21.506 22.8547L9.11877 33.8495C8.92387 34.0223 8.62749 34.0042 8.45469 33.8103C8.2819 33.6164 8.29998 33.3191 8.49388 33.1463L20.8811 22.1515C21.076 21.9787 21.3724 21.9967 21.5452 22.1906C21.718 22.3845 21.7009 22.6819 21.506 22.8547Z" fill="#349DD7"/>
<path d="M22.7124 24.7434L10.943 35.1897C10.7481 35.3625 10.4517 35.3444 10.2789 35.1505C10.1061 34.9566 10.1242 34.6592 10.3181 34.4864L22.0875 24.0401C22.2824 23.8673 22.5787 23.8854 22.7515 24.0793C22.9243 24.2742 22.9073 24.5716 22.7124 24.7434Z" fill="#349DD7"/>
<path d="M23.5123 26.9949L13.0641 36.2687C12.8692 36.4415 12.5728 36.4234 12.4 36.2295C12.2272 36.0356 12.2453 35.7383 12.4392 35.5655L22.8865 26.2916C23.0814 26.1188 23.3777 26.1369 23.5505 26.3308C23.7243 26.5257 23.7062 26.8231 23.5123 26.9949Z" fill="#349DD7"/>
<path d="M17.6325 20.3712L7.18419 29.645C6.99029 29.8178 6.69292 29.7998 6.52012 29.6059C6.34733 29.411 6.36541 29.1146 6.55931 28.9418L17.0076 19.668C17.2025 19.4952 17.4988 19.5132 17.6716 19.7071C17.8444 19.902 17.8264 20.1984 17.6325 20.3712Z" fill="#349DD7"/>
<path d="M19.7729 21.4321L8.00451 31.8784C7.81062 32.0512 7.51323 32.0331 7.34044 31.8392C7.16764 31.6443 7.18572 31.3479 7.37962 31.1751L19.149 20.7289C19.3429 20.5561 19.6403 20.5741 19.8131 20.768C19.9849 20.9629 19.9678 21.2593 19.7729 21.4321Z" fill="#349DD7"/>
<path d="M308.813 91.0235C308.788 91.0515 308.758 91.0774 308.726 91.1003C308.532 91.231 308.271 91.1971 308.117 91.0205L291.506 72.0286L281.713 83.0316C281.61 83.1473 281.456 83.2042 281.304 83.1832C281.151 83.1623 281.018 83.0675 280.95 82.9289L265.981 52.8562C265.877 52.6458 265.942 52.3914 266.138 52.2588C266.332 52.1281 266.593 52.1621 266.747 52.3386L283.359 71.3305L293.152 60.3275C293.254 60.2118 293.408 60.155 293.56 60.1759C293.713 60.1969 293.846 60.2916 293.915 60.4302L308.884 90.5029C308.969 90.6785 308.937 90.8839 308.813 91.0235ZM281.474 81.8956L291.16 71.0123C291.248 70.9126 291.375 70.8557 291.509 70.8567C291.642 70.8567 291.769 70.9146 291.856 71.0153L306.439 87.6883L293.385 61.4645L283.7 72.3478C283.611 72.4475 283.484 72.5044 283.351 72.5034C283.218 72.5034 283.091 72.4455 283.003 72.3438L268.421 55.6708L281.474 81.8956Z" fill="#349DD7"/>
<path d="M270.572 151.72L224.904 123.686C224.012 123.139 223.733 121.969 224.28 121.078L238.37 98.1598C238.918 97.2691 240.088 96.9895 240.979 97.5367L253.858 105.442L258.086 103.787C258.223 103.733 258.377 103.747 258.502 103.824L273.115 112.795C273.241 112.871 273.323 113.003 273.336 113.15L273.751 117.654L286.648 125.571C287.539 126.118 287.819 127.287 287.271 128.178L273.181 151.097C272.634 151.988 271.463 152.267 270.572 151.72ZM240.49 98.3336C240.038 98.056 239.444 98.1978 239.168 98.6491L225.078 121.568C224.8 122.019 224.942 122.611 225.393 122.889L271.062 150.923C271.513 151.201 272.106 151.058 272.383 150.607L286.473 127.688C286.75 127.237 286.61 126.644 286.158 126.367L273.062 118.327C272.936 118.251 272.854 118.119 272.841 117.972L272.427 113.468L258.212 104.741L253.984 106.397C253.847 106.451 253.693 106.437 253.568 106.36L240.49 98.3336Z" fill="#349DD7"/>
<path d="M250.444 133.301C244.09 129.4 242.098 121.064 246 114.716C249.903 108.367 258.246 106.376 264.598 110.275C270.952 114.176 272.945 122.512 269.042 128.86C265.14 135.21 256.797 137.201 250.444 133.301ZM264.11 111.073C258.197 107.443 250.431 109.297 246.798 115.206C243.166 121.115 245.02 128.875 250.934 132.505C256.848 136.135 264.613 134.28 268.246 128.372C271.877 122.463 270.023 114.703 264.11 111.073Z" fill="#349DD7"/>
<path d="M251.985 130.794C247.016 127.744 245.457 121.222 248.51 116.257C251.563 111.291 258.089 109.733 263.058 112.784C268.028 115.834 269.587 122.356 266.534 127.321C263.481 132.287 256.955 133.845 251.985 130.794ZM262.568 113.579C258.038 110.798 252.089 112.219 249.306 116.746C246.523 121.272 247.945 127.217 252.475 129.998C257.005 132.778 262.952 131.358 265.735 126.831C268.517 122.305 267.097 116.36 262.568 113.579Z" fill="#349DD7"/>
<path d="M269.034 111.387L261.603 106.824C261.383 106.689 261.314 106.401 261.449 106.181L262.056 105.193C262.604 104.302 263.775 104.022 264.667 104.57L269.663 107.637C270.554 108.184 270.834 109.354 270.287 110.245L269.679 111.234C269.543 111.453 269.254 111.521 269.034 111.387ZM262.491 106.272L269.124 110.344L269.487 109.754C269.765 109.303 269.624 108.711 269.172 108.433L264.176 105.365C263.724 105.088 263.131 105.23 262.854 105.682L262.491 106.272Z" fill="#349DD7"/>
<path d="M250.358 104.391L242.926 99.8284C242.705 99.6936 242.637 99.405 242.772 99.1854L243.38 98.1968C243.927 97.3061 245.097 97.0265 245.989 97.5737L250.985 100.641C251.877 101.188 252.156 102.358 251.609 103.248L251.001 104.237C250.865 104.458 250.578 104.527 250.358 104.391ZM243.814 99.2762L250.449 103.349L250.811 102.759C251.088 102.308 250.947 101.715 250.496 101.438L245.499 98.3705C245.048 98.0929 244.454 98.2347 244.177 98.6861L243.814 99.2762Z" fill="#349DD7"/>
<path d="M281.491 128.595C280.768 128.15 280.541 127.201 280.985 126.478C281.429 125.755 282.38 125.528 283.103 125.972C283.828 126.417 284.054 127.366 283.61 128.089C283.166 128.813 282.216 129.04 281.491 128.595ZM282.613 126.769C282.33 126.595 281.958 126.684 281.783 126.968C281.609 127.252 281.697 127.624 281.981 127.798C282.265 127.971 282.637 127.883 282.812 127.599C282.986 127.316 282.897 126.944 282.613 126.769Z" fill="#349DD7"/>
<path d="M278.371 126.679C277.647 126.235 277.421 125.285 277.865 124.562C278.31 123.839 279.26 123.613 279.984 124.056C280.708 124.5 280.935 125.45 280.49 126.173C280.046 126.897 279.095 127.124 278.371 126.679ZM279.493 124.854C279.209 124.68 278.838 124.769 278.663 125.053C278.489 125.336 278.577 125.709 278.861 125.882C279.144 126.056 279.517 125.967 279.692 125.684C279.866 125.401 279.777 125.028 279.493 124.854Z" fill="#349DD7"/>
<path d="M262.096 128.823L249.173 120.891C248.954 120.756 248.885 120.467 249.019 120.248L252.303 114.906C252.438 114.686 252.727 114.618 252.947 114.753L265.869 122.685C266.089 122.82 266.159 123.109 266.023 123.328L262.74 128.669C262.605 128.89 262.316 128.959 262.096 128.823ZM250.062 120.34L262.186 127.782L264.98 123.237L252.856 115.794L250.062 120.34Z" fill="#349DD7"/>
<path d="M286.158 126.368L274.446 119.178C274.226 119.042 274.157 118.755 274.293 118.535L276.266 115.326C276.402 115.105 276.69 115.037 276.911 115.172L288.622 122.362C288.842 122.496 288.912 122.785 288.776 123.005L286.803 126.214C286.667 126.435 286.378 126.503 286.158 126.368ZM275.335 118.626L286.248 125.325L287.731 122.912L276.818 116.213L275.335 118.626Z" fill="#349DD7"/>
<path d="M293.018 115.208L281.307 108.019C281.086 107.884 281.017 107.595 281.153 107.375L285.002 101.114C285.138 100.894 285.426 100.825 285.646 100.96L297.358 108.149C297.579 108.284 297.648 108.573 297.512 108.792L293.663 115.054C293.527 115.275 293.239 115.344 293.018 115.208ZM282.196 107.467L293.109 114.167L296.469 108.702L285.556 102.002L282.196 107.467Z" fill="#349DD7"/>
<path d="M292.358 112.965L283.606 107.593C283.386 107.458 283.316 107.17 283.452 106.95L285.662 103.355C285.797 103.136 286.085 103.067 286.306 103.202L295.058 108.574C295.279 108.709 295.348 108.997 295.212 109.217L293.002 112.812C292.867 113.032 292.578 113.101 292.358 112.965ZM284.496 107.042L292.449 111.924L294.169 109.126L286.215 104.244L284.496 107.042Z" fill="#349DD7"/>
<path d="M284.123 120.649L280.47 118.406C280.249 118.271 280.18 117.983 280.316 117.763L285.181 109.849C285.316 109.628 285.605 109.56 285.826 109.695L289.479 111.938C289.7 112.072 289.769 112.361 289.633 112.581L284.768 120.495C284.632 120.716 284.343 120.784 284.123 120.649ZM281.358 117.854L284.213 119.607L288.589 112.489L285.734 110.736L281.358 117.854Z" fill="#349DD7"/>
<path d="M245.788 108.89L238.684 104.529C238.464 104.395 238.395 104.107 238.53 103.886L240.483 100.709C240.618 100.488 240.907 100.42 241.127 100.555L248.231 104.916C248.452 105.051 248.52 105.339 248.385 105.559L246.431 108.736C246.296 108.957 246.007 109.026 245.788 108.89ZM239.572 103.977L245.879 107.849L247.343 105.468L241.036 101.597L239.572 103.977Z" fill="#349DD7"/>
<path d="M234.976 126.476L227.872 122.115C227.652 121.98 227.584 121.692 227.718 121.472L229.672 118.294C229.808 118.074 230.096 118.006 230.316 118.141L237.419 122.501C237.64 122.636 237.708 122.925 237.573 123.144L235.62 126.322C235.485 126.543 235.197 126.61 234.976 126.476ZM228.762 121.563L235.068 125.434L236.532 123.054L230.226 119.182L228.762 121.563Z" fill="#349DD7"/>
<path d="M292.433 103.04C292.212 102.905 292.143 102.616 292.279 102.397L296.864 94.9375C296.999 94.7178 297.288 94.6489 297.509 94.7837C297.73 94.9185 297.799 95.2071 297.663 95.4267L293.077 102.886C292.942 103.106 292.653 103.174 292.433 103.04Z" fill="#349DD7"/>
<path d="M288.101 100.381C287.999 100.318 287.92 100.217 287.891 100.091L285.854 91.5764C285.793 91.3248 285.949 91.0721 286.201 91.0132C286.452 90.9523 286.706 91.1081 286.764 91.3587L288.801 99.8733C288.862 100.125 288.706 100.378 288.455 100.437C288.329 100.467 288.203 100.442 288.101 100.381Z" fill="#349DD7"/>
<path d="M296.766 105.699C296.664 105.636 296.585 105.535 296.556 105.409C296.495 105.158 296.651 104.905 296.903 104.846L305.423 102.812C305.674 102.751 305.927 102.907 305.986 103.158C306.047 103.409 305.892 103.662 305.64 103.721L297.12 105.755C296.994 105.787 296.868 105.762 296.766 105.699Z" fill="#349DD7"/>
<path d="M113.756 51.0395L63.2409 69.881C62.2571 70.2484 61.1619 69.736 60.7988 68.7413L51.1177 42.1569C50.7546 41.1613 51.2599 40.0528 52.2448 39.6853L102.76 20.8439C103.744 20.4775 104.839 20.9889 105.201 21.9846L114.882 48.569C115.245 49.5646 114.74 50.6731 113.756 51.0395ZM52.5671 40.5703C52.0657 40.7575 51.8071 41.3233 51.9921 41.8307L61.6732 68.4151C61.8582 68.9225 62.4163 69.1833 62.9186 68.996L113.434 50.1546C113.935 49.9673 114.193 49.4026 114.008 48.8951L104.327 22.3108C104.142 21.8024 103.583 21.5416 103.081 21.7289L52.5671 40.5703Z" fill="#349DD7"/>
<path d="M112.145 42.4148L94.7227 48.9134C94.481 49.004 94.2134 48.8782 94.1249 48.6345C94.0363 48.3899 94.1597 48.1191 94.4004 48.0295L111.386 41.6939L106.95 29.5132L89.9677 35.8477C89.726 35.9383 89.4584 35.8125 89.3699 35.5688C89.2804 35.3242 89.4047 35.0534 89.6454 34.9638L107.066 28.4662C107.308 28.3756 107.575 28.5014 107.664 28.7451L112.422 41.8097C112.51 42.0544 112.387 42.3252 112.145 42.4148Z" fill="#349DD7"/>
<path d="M76.3586 55.7623L58.9363 62.2609C58.6945 62.3515 58.4269 62.2257 58.3384 61.982L53.5804 48.9174C53.4919 48.6727 53.6153 48.4019 53.856 48.3123L71.2764 41.8147C71.5181 41.7241 71.7857 41.8499 71.8742 42.0936C71.9637 42.3382 71.8394 42.609 71.5987 42.6986L54.616 49.0331L59.0517 61.2139L76.0373 54.8784C76.279 54.7888 76.5466 54.9136 76.6352 55.1572C76.7237 55.4019 76.6004 55.6727 76.3586 55.7623Z" fill="#349DD7"/>
<path d="M87.2982 57.1668C80.867 59.5659 73.7076 56.2224 71.3371 49.7138C68.9666 43.2051 72.2702 35.9595 78.7014 33.5604C85.1326 31.1613 92.2919 34.5047 94.6624 41.0134C97.033 47.521 93.7293 54.7677 87.2982 57.1668ZM79.0237 34.4443C73.075 36.6632 70.019 43.3662 72.2115 49.3866C74.404 55.4069 81.0271 58.5007 86.9759 56.2818C92.9246 54.0629 95.9815 47.36 93.788 41.3386C91.5966 35.3192 84.9734 32.2254 79.0237 34.4443Z" fill="#349DD7"/>
<path d="M86.6912 55.4994C81.1683 57.5593 75.0186 54.688 72.9833 49.0985C70.948 43.509 73.7851 37.2852 79.3081 35.2254C84.831 33.1656 90.9807 36.0368 93.016 41.6264C95.0513 47.2159 92.2142 53.4396 86.6912 55.4994ZM79.6304 36.1103C74.5899 37.991 71.9995 43.6711 73.8577 48.7723C75.715 53.8735 81.3284 56.4951 86.3689 54.6145C91.4094 52.7339 93.9998 47.0538 92.1416 41.9525C90.2843 36.8513 84.6718 34.2307 79.6304 36.1103Z" fill="#349DD7"/>
<path d="M85.771 52.9726C81.6248 54.519 77.0091 52.3635 75.4812 48.1674C73.9532 43.9712 76.083 39.2999 80.2292 37.7535C84.3754 36.2071 88.9911 38.3626 90.5191 42.5587C92.047 46.7549 89.9172 51.4262 85.771 52.9726ZM80.5515 38.6384C76.8878 40.0046 75.0057 44.1333 76.3556 47.8412C77.7055 51.549 81.785 53.4548 85.4487 52.0877C89.1124 50.7215 90.9946 46.5918 89.6447 42.8839C88.2938 39.177 84.2152 37.2712 80.5515 38.6384Z" fill="#349DD7"/>
<path d="M69.8562 55.8337C69.0584 56.1317 68.1691 55.7159 67.8756 54.9085C67.5811 54.1011 67.992 53.201 68.7898 52.904C69.5876 52.6071 70.4759 53.0218 70.7704 53.8293C71.0638 54.6357 70.654 55.5357 69.8562 55.8337ZM69.1111 53.788C68.7947 53.9058 68.6326 54.2622 68.749 54.5823C68.8654 54.9025 69.2175 55.0666 69.5339 54.9488C69.8492 54.831 70.0114 54.4746 69.895 54.1544C69.7786 53.8353 69.4264 53.6702 69.1111 53.788Z" fill="#349DD7"/>
<path d="M103.654 28.903L97.0308 31.3736C96.047 31.741 94.9517 31.2296 94.5886 30.2329L93.9062 28.3583C93.5441 27.3627 94.0495 26.2542 95.0333 25.8878L101.656 23.4172C102.64 23.0507 103.736 23.5621 104.098 24.5568L104.78 26.4314C105.143 27.4281 104.638 28.5365 103.654 28.903ZM95.3556 26.7727C94.8543 26.96 94.5956 27.5257 94.7806 28.0332L95.463 29.9077C95.6481 30.4161 96.2071 30.6769 96.7085 30.4896L103.332 28.0191C103.833 27.8318 104.091 27.267 103.906 26.7586L103.223 24.884C103.038 24.3766 102.48 24.1159 101.979 24.3031L95.3556 26.7727Z" fill="#349DD7"/>
<path d="M86.2902 27.992C86.2713 27.9991 69.3772 34.3003 69.3772 34.3003C69.23 34.3547 69.0668 34.3316 68.9405 34.2379C68.8141 34.1443 68.7435 33.9933 68.7505 33.8352L68.9852 28.877C68.9942 28.6877 69.1136 28.5226 69.2896 28.4571L82.5917 23.4958C82.7667 23.4304 82.9647 23.4777 83.092 23.6157L86.3668 27.1443C86.4553 27.1977 86.528 27.2813 86.5658 27.387C86.6553 27.6316 86.5319 27.9024 86.2902 27.992ZM69.7154 33.1698L85.2885 27.3608L82.6245 24.4885L69.9014 29.2344L69.7154 33.1698Z" fill="#349DD7"/>
<path d="M63.2879 36.5715L53.4656 40.2351C53.2239 40.3257 52.9563 40.1999 52.8677 39.9562L52.4639 38.8478C52.1018 37.8521 52.6071 36.7437 53.5909 36.3772L60.7194 33.7184C61.7033 33.3509 62.7985 33.8633 63.1606 34.858L63.5645 35.9664C63.653 36.2111 63.5296 36.4819 63.2879 36.5715ZM53.58 39.1881L62.5279 35.8507L62.2852 35.1852C62.1002 34.6778 61.5411 34.4171 61.0397 34.6043L53.9112 37.2631C53.4099 37.4504 53.1512 38.0162 53.3363 38.5236L53.58 39.1881Z" fill="#349DD7"/>
<path d="M102.184 22.0642L95.0556 24.723C94.8139 24.8136 94.5463 24.6878 94.4578 24.4441L94.3852 24.2448C94.0221 23.2491 94.5284 22.1407 95.5112 21.7732L99.9449 20.1191C100.929 19.7516 102.024 20.2631 102.387 21.2598L102.46 21.4591C102.549 21.7037 102.426 21.9735 102.184 22.0642ZM95.2039 23.6629L101.393 21.3544C101.145 21.004 100.687 20.848 100.269 21.004L95.8355 22.6581C95.4157 22.8142 95.1671 23.233 95.2039 23.6629Z" fill="#349DD7"/>
</g>
</g>
</svg>
