<svg width="375" height="132" viewBox="0 0 375 132" fill="none" xmlns="http://www.w3.org/2000/svg">
<path d="M351.307 112C362.748 112 372.615 120.075 374.859 131.293L375 132V0H0V132L0.141357 131.293C2.38499 120.075 12.2523 112 23.6927 112C139.569 112 235.323 112 351.307 112Z" fill="#E4F0FA"/>
<mask id="mask0_2021_1708" style="mask-type:alpha" maskUnits="userSpaceOnUse" x="0" y="0" width="375" height="132">
<path d="M351.307 112C362.748 112 372.615 120.075 374.859 131.293L375 132V0H0V132L0.141357 131.293C2.38499 120.075 12.2523 112 23.6927 112C139.569 112 235.323 112 351.307 112Z" fill="#E4F0FA"/>
</mask>
<g mask="url(#mask0_2021_1708)">
<g opacity="0.08">
<path d="M230.274 51.855C226.779 49.7369 226.89 44.0518 229.175 40.2748C229.878 39.1111 230.743 38.1777 231.747 37.4993C231.866 37.4182 232.015 37.3972 232.152 37.4412C232.286 37.4873 232.398 37.5913 232.448 37.7254C232.457 37.7474 233.303 39.9956 235.029 41.0432C235.44 41.2923 235.873 41.4554 236.316 41.5275C237.219 41.6745 238.113 42.0057 238.899 42.483C240.646 43.5415 241.693 45.1714 241.504 46.5402C241.498 46.5902 241.483 46.6382 241.462 46.6832C241.334 46.9444 241.191 47.2055 241.034 47.4656C238.748 51.2427 233.768 53.9741 230.274 51.855ZM231.814 38.6139C231.114 39.1772 230.497 39.8966 229.975 40.76C227.702 44.5191 228.075 49.4247 230.759 51.0526C233.443 52.6804 237.958 50.7384 240.232 46.9794C240.36 46.7673 240.478 46.5542 240.585 46.341C240.667 45.3775 239.768 44.1048 238.415 43.2844C237.728 42.8682 236.951 42.581 236.165 42.4529C235.604 42.3609 235.058 42.1568 234.545 41.8446C233.094 40.9661 232.209 39.4393 231.814 38.6139Z" fill="#349DD7"/>
<path d="M232.258 55.2148L226.381 51.6509C226.16 51.5168 226.089 51.2287 226.223 51.0066L227.928 48.1871C228.061 47.966 228.349 47.8949 228.57 48.029C228.669 48.089 228.769 48.2011 228.802 48.3121C229.544 50.8025 231.563 52.0181 234.112 51.5148C234.479 51.4408 234.809 51.9021 234.615 52.2232L232.902 55.0558C232.768 55.2789 232.479 55.3489 232.258 55.2148ZM227.266 51.0916L232.343 54.1703L233.318 52.5594C231.055 52.6845 229.18 51.5489 228.24 49.4808L227.266 51.0916Z" fill="#349DD7"/>
<path d="M240.798 46.8774C240.641 46.7823 240.551 46.6012 240.577 46.4121C240.71 45.4406 239.8 44.1249 238.414 43.2844C237.728 42.8692 236.951 42.5811 236.164 42.453C235.603 42.361 235.057 42.1568 234.544 41.8447C232.531 40.624 231.607 38.1537 231.568 38.0496L230.707 36.1586C230.619 35.9665 230.671 35.7384 230.835 35.6033C230.998 35.4683 231.232 35.4562 231.404 35.5823C232.289 36.2036 233.219 36.2017 234.321 36.2007C235.685 36.1987 237.231 36.1957 239.069 37.3103C242.205 39.2123 243.201 43.0003 241.519 46.5592C241.51 46.6172 241.488 46.6753 241.457 46.7293C241.321 46.9534 241.064 47.0105 240.807 46.8834C240.804 46.8814 240.801 46.8794 240.798 46.8774ZM238.897 42.483C239.944 43.1174 240.738 43.9568 241.168 44.8213C241.893 42.1238 240.946 39.5454 238.584 38.1137C236.969 37.1351 235.624 37.1371 234.322 37.1391C233.553 37.1401 232.814 37.1412 232.087 36.9351L232.432 37.6945C232.454 37.7485 233.3 39.9967 235.026 41.0443C235.437 41.2934 235.87 41.4565 236.313 41.5285C237.218 41.6756 238.111 42.0058 238.897 42.483Z" fill="#349DD7"/>
<path d="M236.322 67.5955L213.54 53.7821C213.319 53.648 213.248 53.3599 213.382 53.1388C215.935 48.9175 221.442 47.5618 225.658 50.1182L233.949 55.1448C238.165 57.7012 239.519 63.2162 236.965 67.4385C236.832 67.6586 236.544 67.7296 236.322 67.5955ZM214.437 53.2288L236.395 66.543C238.361 62.823 237.105 58.1535 233.464 55.9463L225.173 50.9196C221.533 48.7124 216.819 49.761 214.437 53.2288Z" fill="#349DD7"/>
<path d="M256.458 54.4415L254.083 53.0017C253.862 52.8676 253.792 52.5795 253.925 52.3574L260.086 42.1719L248.724 35.2832C248.503 35.1491 248.432 34.8609 248.566 34.6388L249.995 32.2755C250.129 32.0544 250.417 31.9834 250.639 32.1175L264.774 40.6891C264.995 40.8231 265.066 41.1113 264.932 41.3334L257.1 54.2844C256.967 54.5045 256.679 54.5755 256.458 54.4415ZM254.97 52.4424L256.542 53.3959L263.89 41.2474L250.555 33.162L249.611 34.7229L260.972 41.6116C261.193 41.7456 261.264 42.0338 261.13 42.2559L254.97 52.4424Z" fill="#349DD7"/>
<path d="M218.226 31.26L215.852 29.8212C215.632 29.6871 215.561 29.399 215.695 29.1768L223.527 16.2259C223.661 16.0048 223.948 15.9337 224.169 16.0678L238.305 24.6384C238.526 24.7725 238.597 25.0606 238.463 25.2817L237.034 27.645C236.9 27.8661 236.612 27.9382 236.391 27.8031L225.03 20.9144L218.869 31.0999C218.735 31.323 218.448 31.394 218.226 31.26ZM216.738 29.2609L218.311 30.2144L224.471 20.0289C224.605 19.8078 224.893 19.7367 225.114 19.8708L236.475 26.7595L237.42 25.1987L224.085 17.1134L216.738 29.2609Z" fill="#349DD7"/>
<path d="M213.361 65.8816L199.226 57.311C199.005 57.1769 198.934 56.8887 199.068 56.6676L208.225 41.5265C208.359 41.3054 208.647 41.2333 208.868 41.3684L211.241 42.8072C211.462 42.9412 211.533 43.2294 211.399 43.4515L203.913 55.8282L215.275 62.7169C215.496 62.851 215.567 63.1391 215.433 63.3612L214.003 65.7245C213.871 65.9446 213.582 66.0157 213.361 65.8816ZM200.112 56.7517L213.446 64.837L214.39 63.2762L203.029 56.3875C202.808 56.2534 202.737 55.9653 202.871 55.7431L210.356 43.3665L208.784 42.413L200.112 56.7517Z" fill="#349DD7"/>
<path d="M239.832 81.9322L225.696 73.3606C225.475 73.2265 225.404 72.9384 225.538 72.7163L226.967 70.353C227.101 70.1319 227.389 70.0608 227.611 70.1949L238.972 77.0836L246.458 64.7069C246.592 64.4858 246.88 64.4148 247.101 64.5489L249.476 65.9886C249.697 66.1227 249.767 66.4108 249.634 66.633L240.476 81.7741C240.341 81.9953 240.053 82.0663 239.832 81.9322ZM226.582 72.8013L239.917 80.8866L248.588 66.5479L247.016 65.5944L239.53 77.9711C239.396 78.1922 239.108 78.2632 238.886 78.1292L227.525 71.2405L226.582 72.8013Z" fill="#349DD7"/>
<path d="M166.186 46H144.251C143.991 46 143.781 45.7871 143.781 45.5245V24.6178C143.781 24.3552 143.992 24.1423 144.251 24.1423H146.995C147.255 24.1423 147.465 24.3552 147.465 24.6178C147.465 24.8804 147.254 25.0933 146.995 25.0933H144.722V45.0501H165.716V25.0933H163.524C163.264 25.0933 163.053 24.8804 163.053 24.6178C163.053 24.3552 163.264 24.1423 163.524 24.1423H166.186C166.446 24.1423 166.657 24.3552 166.657 24.6178V45.5245C166.657 45.7871 166.446 46 166.186 46Z" fill="#349DD7"/>
<path d="M161.147 25.0933H149.426C149.166 25.0933 148.956 24.8804 148.956 24.6178C148.956 24.3552 149.167 24.1423 149.426 24.1423H161.147C161.407 24.1423 161.618 24.3552 161.618 24.6178C161.618 24.8804 161.407 25.0933 161.147 25.0933Z" fill="#349DD7"/>
<path d="M164.575 42.7598H145.863C145.603 42.7598 145.393 42.5469 145.393 42.2844V26.1537C145.393 25.8911 145.604 25.6782 145.863 25.6782H146.994C147.254 25.6782 147.464 25.8911 147.464 26.1537C147.464 26.4163 147.254 26.6292 146.994 26.6292H146.333V41.8099H164.104V26.6292H163.444C163.183 26.6292 162.972 26.4163 162.972 26.1537C162.972 25.8911 163.183 25.6782 163.444 25.6782H164.575C164.835 25.6782 165.047 25.8911 165.047 26.1537V42.2844C165.047 42.5469 164.835 42.7598 164.575 42.7598Z" fill="#349DD7"/>
<path d="M161.146 26.6292H149.292C149.031 26.6292 148.821 26.4163 148.821 26.1537C148.821 25.8911 149.032 25.6782 149.292 25.6782H161.146C161.407 25.6782 161.618 25.8911 161.618 26.1537C161.618 26.4163 161.407 26.6292 161.146 26.6292Z" fill="#349DD7"/>
<path d="M150.057 34.2135C148.891 34.2135 147.942 33.2564 147.942 32.0794C147.942 30.9024 148.891 29.9443 150.057 29.9443C151.224 29.9443 152.173 30.9014 152.173 32.0794C152.173 33.2564 151.223 34.2135 150.057 34.2135ZM150.057 30.8953C149.41 30.8953 148.883 31.4255 148.883 32.0794C148.883 32.7323 149.409 33.2635 150.057 33.2635C150.705 33.2635 151.231 32.7333 151.231 32.0794C151.231 31.4255 150.705 30.8953 150.057 30.8953Z" fill="#349DD7"/>
<path d="M155.588 40.341C155.567 40.341 148.573 40.341 148.573 40.341C148.383 40.341 148.212 40.2255 148.138 40.048C148.065 39.8706 148.105 39.6668 148.24 39.53L151.719 36.009C151.902 35.8235 152.2 35.8225 152.384 36.008L155.827 39.456C155.965 39.5391 156.058 39.6902 156.058 39.8645C156.058 40.1281 155.848 40.341 155.588 40.341ZM149.708 39.3911H154.425L152.054 37.0168L149.708 39.3911Z" fill="#349DD7"/>
<path d="M162.85 40.3409C162.83 40.3409 155.567 40.3409 155.567 40.3409C155.443 40.3409 155.324 40.2912 155.236 40.202L153.24 38.2028C153.072 38.0355 153.054 37.7689 153.197 37.5793L157.049 32.4525C157.137 32.3349 157.276 32.2649 157.422 32.2639C157.569 32.2639 157.708 32.3329 157.797 32.4505L163.137 39.4883C163.249 39.5755 163.321 39.7113 163.321 39.8644C163.321 40.128 163.11 40.3409 162.85 40.3409ZM155.761 39.391H161.878L157.425 33.5251L154.197 37.8226L155.761 39.391Z" fill="#349DD7"/>
<path d="M146.995 21.323C137.863 20.4288 129.795 18.1264 124.233 14.8346C124.009 14.7018 123.933 14.4108 124.065 14.1837C124.196 13.9577 124.486 13.8806 124.709 14.0144C130.156 17.2383 138.088 19.4971 147.041 20.3751C147.299 20.4004 147.489 20.6326 147.464 20.8931C147.439 21.1395 147.234 21.323 146.995 21.323Z" fill="#349DD7"/>
<path d="M155.5 21.7335C153.409 21.7335 151.309 21.6606 149.259 21.5156C148.999 21.4963 148.803 21.2702 148.821 21.0087C148.84 20.7461 149.065 20.5677 149.324 20.5667C153.194 20.8414 157.226 20.8546 161.117 20.6042C161.381 20.6062 161.601 20.7877 161.617 21.0482C161.634 21.3098 161.436 21.5348 161.177 21.5521C159.307 21.6727 157.396 21.7335 155.5 21.7335Z" fill="#349DD7"/>
<path d="M163.443 21.3756C163.203 21.3756 162.998 21.1891 162.974 20.9427C162.951 20.6811 163.142 20.451 163.402 20.4267C172.588 19.5893 180.717 17.3123 186.29 14.0143C186.516 13.8815 186.802 13.9576 186.935 14.1837C187.067 14.4107 186.991 14.7017 186.767 14.8345C181.077 18.2014 172.808 20.523 163.486 21.3736C163.472 21.3746 163.458 21.3756 163.443 21.3756Z" fill="#349DD7"/>
<path d="M149.291 28.3071H146.993C146.733 28.3071 146.523 28.0942 146.523 27.8316V12.4755C146.523 12.2129 146.733 12 146.993 12H149.291C149.551 12 149.761 12.2129 149.761 12.4755V27.8316C149.761 28.0942 149.551 28.3071 149.291 28.3071ZM147.465 27.3571H148.82V12.9509H147.465V27.3571Z" fill="#349DD7"/>
<path d="M163.444 28.3071H161.147C160.886 28.3071 160.675 28.0942 160.675 27.8316V12.4755C160.675 12.2129 160.886 12 161.147 12H163.444C163.704 12 163.915 12.2129 163.915 12.4755V27.8316C163.915 28.0942 163.704 28.3071 163.444 28.3071ZM161.618 27.3571H162.973V12.9509H161.618V27.3571Z" fill="#349DD7"/>
<path d="M372.613 41.4356L351.031 44.9938C350.775 45.0357 350.534 44.8631 350.492 44.6085L347.116 24.3024C347.074 24.0479 347.247 23.8064 347.502 23.7644L350.201 23.3193C350.457 23.2774 350.698 23.45 350.74 23.7046C350.782 23.9591 350.61 24.2006 350.354 24.2425L348.118 24.6108L351.341 43.9937L371.997 40.5882L368.775 21.2053L366.619 21.5607C366.363 21.6026 366.121 21.4299 366.079 21.1754C366.037 20.9209 366.21 20.6794 366.466 20.6374L369.085 20.2052C369.341 20.1633 369.583 20.336 369.625 20.5905L373.001 40.8967C373.042 41.1522 372.868 41.3927 372.613 41.4356Z" fill="#349DD7"/>
<path d="M364.279 21.9459L352.748 23.8473C352.492 23.8892 352.251 23.7165 352.207 23.462C352.165 23.2075 352.338 22.9659 352.593 22.924L364.124 21.0227C364.38 20.9807 364.623 21.1524 364.665 21.4079C364.708 21.6634 364.534 21.904 364.279 21.9459Z" fill="#349DD7"/>
<path d="M370.504 38.5491L352.093 41.5843C351.838 41.6262 351.596 41.4535 351.553 41.199L348.949 25.531C348.907 25.2765 349.08 25.0349 349.335 24.993L350.448 24.8094C350.703 24.7675 350.945 24.9401 350.988 25.1946C351.03 25.4491 350.857 25.6907 350.602 25.7326L349.952 25.8394L352.403 40.5842L369.888 37.7017L367.438 22.9569L366.788 23.0637C366.533 23.1056 366.29 22.933 366.248 22.6784C366.206 22.4239 366.379 22.1824 366.635 22.1405L367.748 21.9568C368.004 21.9149 368.246 22.0876 368.288 22.3421L370.892 38.0101C370.933 38.2656 370.76 38.5071 370.504 38.5491Z" fill="#349DD7"/>
<path d="M364.526 23.4381L352.862 25.3614C352.606 25.4033 352.365 25.2306 352.322 24.9761C352.28 24.7216 352.452 24.4801 352.708 24.4381L364.372 22.5148C364.628 22.4729 364.87 22.6456 364.912 22.9001C364.955 23.1546 364.782 23.3951 364.526 23.4381Z" fill="#349DD7"/>
<path d="M354.84 32.6034C353.693 32.793 352.604 32.0165 352.414 30.8737C352.223 29.7299 353.003 28.646 354.151 28.4573C355.298 28.2677 356.387 29.0442 356.577 30.187C356.766 31.3308 355.988 32.4138 354.84 32.6034ZM354.304 29.3796C353.668 29.4844 353.235 30.0852 353.34 30.72C353.445 31.3548 354.049 31.785 354.687 31.6792C355.323 31.5744 355.756 30.9735 355.651 30.3388C355.545 29.705 354.941 29.2748 354.304 29.3796Z" fill="#349DD7"/>
<path d="M361.27 37.6578C361.25 37.6608 354.369 38.7956 354.369 38.7956C354.182 38.8265 353.994 38.7417 353.894 38.581C353.794 38.4213 353.8 38.2157 353.91 38.062L356.764 34.0786C356.914 33.869 357.207 33.8201 357.419 33.9698L361.363 36.7605C361.513 36.8194 361.628 36.9511 361.656 37.1208C361.699 37.3743 361.527 37.6159 361.27 37.6578ZM355.332 37.6887L359.973 36.9232L357.257 35.0019L355.332 37.6887Z" fill="#349DD7"/>
<path d="M368.416 36.48C368.397 36.483 361.25 37.6608 361.25 37.6608C361.128 37.6807 361.003 37.6518 360.901 37.5799L358.615 35.962C358.424 35.8263 358.363 35.5708 358.472 35.3632L361.435 29.7589C361.503 29.6302 361.628 29.5403 361.772 29.5154C361.917 29.4914 362.064 29.5363 362.171 29.6351L368.562 35.6047C368.686 35.6716 368.779 35.7914 368.804 35.9401C368.846 36.1966 368.672 36.4381 368.416 36.48ZM361.288 36.7066L367.306 35.7145L361.979 30.739L359.495 35.437L361.288 36.7066Z" fill="#349DD7"/>
<path d="M349.746 20.5805C340.617 21.1933 332.307 20.2651 326.302 17.9705C326.06 17.8776 325.938 17.6071 326.031 17.3656C326.124 17.1251 326.397 17.0033 326.638 17.0971C332.518 19.3448 340.686 20.2521 349.637 19.6532C349.895 19.6353 350.119 19.8309 350.137 20.0874C350.153 20.3289 349.982 20.5415 349.746 20.5805Z" fill="#349DD7"/>
<path d="M358.18 19.5984C356.123 19.9377 354.044 20.2072 352.004 20.3989C351.745 20.4228 351.517 20.2342 351.493 19.9777C351.469 19.7202 351.66 19.5106 351.916 19.4677C355.767 19.1064 359.738 18.4656 363.525 17.5912C363.785 17.5503 364.031 17.691 364.088 17.9426C364.147 18.1941 363.989 18.4446 363.736 18.5035C361.916 18.9227 360.046 19.291 358.18 19.5984Z" fill="#349DD7"/>
<path d="M365.937 17.9635C365.701 18.0024 365.469 17.8547 365.407 17.6191C365.342 17.3696 365.493 17.1141 365.744 17.0492C374.647 14.7457 382.278 11.2154 387.23 7.10828C387.43 6.9426 387.724 6.97054 387.891 7.16817C388.058 7.36679 388.03 7.66222 387.831 7.82691C382.775 12.0209 375.015 15.617 365.98 17.9545C365.966 17.9575 365.952 17.9605 365.937 17.9635Z" fill="#349DD7"/>
<path d="M353.132 26.9912L350.873 27.3635C350.617 27.4054 350.375 27.2327 350.333 26.9782L347.854 12.0628C347.812 11.8083 347.984 11.5667 348.24 11.5248L350.5 11.1525C350.755 11.1106 350.997 11.2833 351.04 11.5378L353.519 26.4532C353.561 26.7078 353.388 26.9483 353.132 26.9912ZM351.182 26.3634L352.516 26.1438L350.19 12.1516L348.856 12.3712L351.182 26.3634Z" fill="#349DD7"/>
<path d="M367.058 24.6946L364.798 25.0669C364.542 25.1088 364.3 24.9361 364.258 24.6816L361.778 9.76616C361.736 9.51164 361.91 9.2701 362.165 9.22818L364.425 8.85588C364.681 8.81396 364.923 8.98665 364.965 9.24116L367.445 24.1566C367.487 24.4121 367.313 24.6527 367.058 24.6946ZM365.108 24.0678L366.441 23.8482L364.116 9.85598L362.783 10.0756L365.108 24.0678Z" fill="#349DD7"/>
<path d="M131.898 115.34L90.8251 122.992C90.5691 123.04 90.3223 122.872 90.2739 122.616L83.0082 84.008C82.9599 83.7534 83.1292 83.5078 83.3851 83.4596L124.458 75.8076C124.714 75.7595 124.961 75.9279 125.009 76.1836L132.275 114.791C132.323 115.046 132.155 115.292 131.898 115.34ZM91.1152 121.981L131.261 114.503L124.169 76.8182L84.0229 84.2967L91.1152 121.981Z" fill="#349DD7"/>
<path d="M127.755 109.918L92.7164 116.446C92.4604 116.495 92.2136 116.326 92.1652 116.071L86.559 86.2816C86.5107 86.0269 86.6799 85.7813 86.9359 85.7332L121.974 79.205C122.23 79.1569 122.477 79.3253 122.525 79.5809L128.131 109.37C128.18 109.626 128.012 109.871 127.755 109.918ZM93.0065 115.436L127.118 109.081L121.686 80.2155L87.5757 86.5703L93.0065 115.436Z" fill="#349DD7"/>
<path d="M136.614 107.539L130.64 108.652C130.384 108.7 130.137 108.532 130.089 108.277C130.041 108.023 130.21 107.777 130.466 107.729L135.977 106.702L128.885 69.0187L88.7393 76.4983L89.9112 82.7228C89.9595 82.9774 89.7902 83.223 89.5343 83.2711C89.2784 83.3192 89.0315 83.1508 88.9842 82.8952L87.7257 76.2086C87.6774 75.9539 87.8466 75.7083 88.1026 75.6602L129.176 68.0082C129.431 67.9601 129.678 68.1285 129.727 68.3841L136.992 106.991C137.039 107.246 136.87 107.491 136.614 107.539Z" fill="#349DD7"/>
<path d="M132.471 102.119L129.514 102.669C129.258 102.717 129.011 102.549 128.963 102.293C128.915 102.039 129.084 101.793 129.34 101.745L131.833 101.281L126.401 72.4162L92.29 78.771L92.9278 82.1604C92.9762 82.415 92.8069 82.6606 92.551 82.7088C92.2951 82.7569 92.0482 82.5885 91.9999 82.3328L91.2754 78.4823C91.227 78.2276 91.3963 77.982 91.6522 77.9339L126.691 71.4057C126.947 71.3575 127.194 71.526 127.242 71.7806L132.848 101.57C132.895 101.825 132.727 102.071 132.471 102.119Z" fill="#349DD7"/>
<path d="M97.6 99.2006C95.6463 99.5646 93.7591 98.2794 93.3923 96.3345C93.0266 94.3897 94.3183 92.512 96.272 92.1481C98.2257 91.7842 100.114 93.0704 100.48 95.0143C100.846 96.9581 99.5547 98.8367 97.6 99.2006ZM96.4463 93.0714C95.0034 93.3401 94.0503 94.7255 94.3203 96.1621C94.5903 97.5977 95.9838 98.546 97.4267 98.2774C98.8695 98.0087 99.8237 96.6222 99.5537 95.1867C99.2826 93.7511 97.8891 92.8028 96.4463 93.0714Z" fill="#349DD7"/>
<path d="M110.068 108.59C110.048 108.594 96.9532 111.033 96.9532 111.033C96.7658 111.068 96.5754 110.987 96.4706 110.828C96.3658 110.669 96.3688 110.464 96.4756 110.306L101.765 102.591C101.913 102.378 102.206 102.321 102.421 102.468L110.143 107.687C110.295 107.742 110.413 107.872 110.445 108.042C110.493 108.297 110.324 108.543 110.068 108.59ZM97.8963 109.901L108.748 107.879L102.279 103.507L97.8963 109.901Z" fill="#349DD7"/>
<path d="M123.667 106.057C123.647 106.061 110.048 108.594 110.048 108.594C109.926 108.617 109.799 108.591 109.695 108.52L105.264 105.524C105.068 105.392 105.001 105.137 105.106 104.926L110.535 94.115C110.601 93.9837 110.725 93.8915 110.87 93.8634C111.015 93.8363 111.164 93.8784 111.273 93.9757L123.793 105.175C123.919 105.24 124.015 105.358 124.043 105.507C124.092 105.763 123.924 106.009 123.667 106.057ZM110.065 107.635L122.534 105.312L111.104 95.0874L106.136 104.979L110.065 107.635Z" fill="#349DD7"/>
<path d="M32.5662 137.504L62.6838 127.091C62.9287 127.005 63.0592 126.738 62.9739 126.494L61.3669 121.874C61.2816 121.628 61.0146 121.499 60.7687 121.583L30.6511 131.997C30.4062 132.082 30.2757 132.35 30.361 132.594L31.968 137.214C32.0533 137.459 32.3203 137.589 32.5662 137.504ZM61.931 126.357L32.7017 136.464L31.4029 132.731L60.6332 122.623L61.931 126.357Z" fill="#349DD7"/>
<path d="M32.1636 132.467L59.8733 122.886C60.1182 122.801 60.2487 122.533 60.1634 122.289L57.4202 114.4C57.3349 114.155 57.0669 114.025 56.822 114.11L29.1123 123.691C28.8674 123.777 28.7369 124.044 28.8222 124.288L31.5654 132.178C31.6507 132.423 31.9177 132.552 32.1636 132.467ZM59.1205 122.153L32.2991 131.428L29.8641 124.424L56.6855 115.149L59.1205 122.153Z" fill="#349DD7"/>
<path d="M26.5419 115.767L53.9223 106.299C54.1672 106.214 54.2977 105.947 54.2124 105.702L53.7226 104.294C53.6373 104.05 53.3693 103.92 53.1244 104.005L25.7439 113.473C25.499 113.558 25.3685 113.825 25.4538 114.069L25.9436 115.478C26.028 115.722 26.2959 115.852 26.5419 115.767ZM53.1695 105.566L26.6774 114.727L26.4957 114.205L52.9879 105.045L53.1695 105.566Z" fill="#349DD7"/>
<path d="M20.2275 97.6086L47.6079 88.1407C47.8528 88.0556 47.9833 87.7883 47.898 87.5441L47.4082 86.1358C47.3229 85.8915 47.0559 85.7614 46.81 85.8465L19.4295 95.3145C19.1846 95.3996 19.0541 95.6668 19.1394 95.911L19.6292 97.3194C19.7146 97.5636 19.9826 97.6927 20.2275 97.6086ZM46.8551 87.408L20.363 96.5687L20.1813 96.0472L46.6735 86.8865L46.8551 87.408Z" fill="#349DD7"/>
<path d="M23.3671 115.235L56.0844 103.923C56.3293 103.838 56.4597 103.57 56.3744 103.326L50.5669 86.6223C50.4816 86.3771 50.2136 86.248 49.9687 86.3331L17.2515 97.6458C17.0066 97.7309 16.8761 97.9981 16.9614 98.2423L22.7689 114.946C22.8542 115.19 23.1222 115.321 23.3671 115.235ZM55.3326 103.189L23.5036 114.194L18.0043 98.3765L49.8332 87.371L55.3326 103.189Z" fill="#349DD7"/>
<path d="M28.2161 124.994L58.3337 114.58C58.5786 114.495 58.7091 114.227 58.6238 113.983L56.3845 107.541C56.2991 107.297 56.0312 107.167 55.7862 107.252L25.6686 117.666C25.4237 117.751 25.2933 118.018 25.3786 118.262L27.6179 124.704C27.7032 124.949 27.9712 125.079 28.2161 124.994ZM57.5819 113.846L28.3526 123.953L26.4214 118.397L55.6507 108.29L57.5819 113.846Z" fill="#349DD7"/>
<path d="M36.6664 137.974L59.755 129.99C59.9999 129.905 60.1303 129.638 60.045 129.394L59.4589 127.708C59.3735 127.463 59.1055 127.334 58.8606 127.418L35.7721 135.401C35.5272 135.487 35.3967 135.754 35.482 135.998L36.0682 137.684C36.1535 137.929 36.4215 138.059 36.6664 137.974ZM59.0032 129.258L36.8029 136.934L36.5249 136.135L58.7251 128.459L59.0032 129.258Z" fill="#349DD7"/>
<path d="M24.6769 119.001L57.3942 107.688C57.6391 107.603 57.7696 107.336 57.6842 107.092L56.8803 104.781C56.795 104.536 56.527 104.406 56.2821 104.491L23.5648 115.804C23.3189 115.889 23.1894 116.156 23.2747 116.401L24.0787 118.713C24.163 118.956 24.431 119.086 24.6769 119.001ZM56.6414 106.956L24.8124 117.961L24.3166 116.536L56.1455 105.53L56.6414 106.956Z" fill="#349DD7"/>
<path d="M27.3449 118.079C27.5908 117.994 27.7203 117.727 27.635 117.483L26.831 115.171C26.7457 114.926 26.4777 114.797 26.2328 114.881C25.9879 114.966 25.8574 115.233 25.9427 115.478L26.7467 117.789C26.832 118.034 27.1 118.163 27.3449 118.079Z" fill="#349DD7"/>
<path d="M30.083 117.132C30.3289 117.047 30.4584 116.78 30.373 116.536L29.5691 114.225C29.4838 113.98 29.2158 113.85 28.9709 113.935C28.7259 114.02 28.5955 114.288 28.6808 114.532L29.4848 116.843C29.5701 117.087 29.8381 117.217 30.083 117.132Z" fill="#349DD7"/>
<path d="M32.8212 116.185C33.0661 116.1 33.1966 115.833 33.1113 115.589L32.3073 113.278C32.222 113.032 31.955 112.903 31.7091 112.987C31.4632 113.072 31.3337 113.34 31.419 113.584L32.223 115.895C32.3083 116.14 32.5763 116.27 32.8212 116.185Z" fill="#349DD7"/>
<path d="M35.5593 115.238C35.8042 115.153 35.9347 114.886 35.8493 114.642L35.0454 112.331C34.9601 112.085 34.6921 111.956 34.4472 112.04C34.2022 112.126 34.0718 112.393 34.1571 112.637L34.9611 114.948C35.0464 115.193 35.3134 115.324 35.5593 115.238Z" fill="#349DD7"/>
<path d="M38.2974 114.292C38.5423 114.206 38.6728 113.939 38.5875 113.695L37.7835 111.384C37.6982 111.14 37.4312 111.009 37.1853 111.095C36.9404 111.18 36.8099 111.447 36.8952 111.691L37.6992 114.002C37.7845 114.247 38.0515 114.377 38.2974 114.292Z" fill="#349DD7"/>
<path d="M41.0357 113.345C41.2806 113.26 41.411 112.992 41.3257 112.748L40.5217 110.437C40.4364 110.192 40.1684 110.063 39.9235 110.147C39.6786 110.232 39.5481 110.499 39.6335 110.743L40.4374 113.054C40.5227 113.3 40.7897 113.43 41.0357 113.345Z" fill="#349DD7"/>
<path d="M43.7738 112.398C44.0187 112.313 44.1492 112.045 44.0639 111.801L43.2599 109.49C43.1746 109.245 42.9066 109.116 42.6617 109.2C42.4158 109.285 42.2863 109.552 42.3716 109.796L43.1756 112.107C43.2599 112.353 43.5279 112.483 43.7738 112.398Z" fill="#349DD7"/>
<path d="M46.5118 111.452C46.7568 111.367 46.8872 111.1 46.8019 110.855L45.9979 108.543C45.9126 108.299 45.6446 108.169 45.3997 108.254C45.1548 108.339 45.0243 108.606 45.1096 108.85L45.9136 111.162C45.9979 111.407 46.2659 111.536 46.5118 111.452Z" fill="#349DD7"/>
<path d="M49.249 110.505C49.495 110.42 49.6244 110.153 49.5391 109.908L48.7351 107.597C48.6498 107.352 48.3828 107.223 48.1369 107.307C47.891 107.392 47.7615 107.659 47.8469 107.903L48.6508 110.215C48.7361 110.46 49.0041 110.59 49.249 110.505Z" fill="#349DD7"/>
<path d="M51.9873 109.558C52.2332 109.473 52.3627 109.206 52.2773 108.962L51.4734 106.65C51.388 106.405 51.1201 106.276 50.8751 106.36C50.6302 106.445 50.4998 106.712 50.5851 106.957L51.3891 109.269C51.4744 109.513 51.7424 109.643 51.9873 109.558Z" fill="#349DD7"/>
<path d="M54.7254 108.611C54.9703 108.526 55.1008 108.259 55.0155 108.015L54.2115 105.703C54.1262 105.459 53.8592 105.329 53.6133 105.413C53.3684 105.498 53.2379 105.765 53.3232 106.01L54.1272 108.321C54.2125 108.566 54.4805 108.696 54.7254 108.611Z" fill="#349DD7"/>
<path d="M52.7129 102.823C52.9578 102.738 53.0883 102.47 53.003 102.226L48.6017 89.567C48.5163 89.3218 48.2484 89.1927 48.0034 89.2768C47.7585 89.3618 47.6281 89.6291 47.7134 89.8733L52.1147 102.532C52.2 102.778 52.467 102.907 52.7129 102.823Z" fill="#349DD7"/>
<path d="M25.3324 112.29C25.5783 112.204 25.7078 111.937 25.6224 111.693L21.2211 99.034C21.1358 98.7887 20.8688 98.6596 20.6229 98.7437C20.377 98.8288 20.2475 99.096 20.3328 99.3403L24.7341 111.999C24.8195 112.244 25.0875 112.375 25.3324 112.29Z" fill="#349DD7"/>
<path d="M30.8087 110.397C31.0536 110.312 31.1841 110.044 31.0988 109.8L26.6975 97.1413C26.6122 96.896 26.3442 96.7669 26.0993 96.851C25.8544 96.9361 25.7239 97.2033 25.8092 97.4475L30.2105 110.107C30.2958 110.352 30.5628 110.481 30.8087 110.397Z" fill="#349DD7"/>
<path d="M36.2849 108.503C36.5308 108.418 36.6603 108.151 36.575 107.906L32.1737 95.2475C32.0884 95.0033 31.8214 94.8731 31.5755 94.9572C31.3306 95.0423 31.2001 95.3095 31.2854 95.5538L35.6867 108.213C35.771 108.458 36.039 108.588 36.2849 108.503Z" fill="#349DD7"/>
<path d="M41.7603 106.609C42.0052 106.524 42.1357 106.257 42.0504 106.013L37.6491 93.3537C37.5638 93.1084 37.2968 92.9793 37.0509 93.0634C36.806 93.1485 36.6755 93.4157 36.7608 93.66L41.1621 106.319C41.2474 106.564 41.5154 106.694 41.7603 106.609Z" fill="#349DD7"/>
<path d="M47.2365 104.715C47.4814 104.63 47.6119 104.363 47.5266 104.119L43.1253 91.4599C43.04 91.2156 42.772 91.0855 42.5271 91.1706C42.2812 91.2557 42.1517 91.5229 42.237 91.7672L46.6383 104.426C46.7236 104.67 46.9916 104.801 47.2365 104.715Z" fill="#349DD7"/>
<path d="M19.7226 96.2054L47.1332 86.7274C50.4515 85.5803 52.215 81.9529 51.0648 78.6437L47.4734 68.3159C47.3881 68.0707 47.1211 67.9416 46.8752 68.0257C44.4472 68.8655 43.1575 71.518 43.9996 73.9393L45.0846 77.0602L42.0142 78.1222L40.9292 75.0013C40.0871 72.58 37.4272 71.2928 34.9992 72.1326L20.1924 77.2524C17.7644 78.0922 16.4746 80.7447 17.3167 83.166L18.4017 86.287L15.3313 87.349L14.2463 84.228C13.4042 81.8067 10.7443 80.5195 8.31635 81.3593C8.07044 81.4444 7.94096 81.7116 8.02627 81.9559L11.6176 92.2836C12.7678 95.5928 16.4043 97.3524 19.7226 96.2054ZM46.7488 69.0927L50.1755 78.95C51.1561 81.7717 49.6535 84.8626 46.824 85.8405L19.4135 95.3185C16.585 96.2964 13.4855 94.797 12.5049 91.9764L9.07717 82.119C10.8819 81.7387 12.7367 82.7516 13.357 84.5343L14.5966 88.0987C14.6819 88.3439 14.9499 88.473 15.1948 88.389L19.1535 87.0197C19.3984 86.9346 19.5289 86.6673 19.4436 86.4231L18.204 82.8587C17.5315 80.9259 18.5623 78.8089 20.4995 78.1382L35.3064 73.0184C37.2445 72.3488 39.3684 73.3747 40.0399 75.3076L41.2795 78.8719C41.3648 79.1172 41.6318 79.2463 41.8777 79.1612L45.8364 77.7929C46.0813 77.7078 46.2118 77.4406 46.1265 77.1964L44.8869 73.632C44.2676 71.8493 45.0956 69.9084 46.7488 69.0927Z" fill="#349DD7"/>
<path d="M27.6389 123.334L57.7565 112.92C58.0014 112.835 58.1319 112.568 58.0466 112.324C57.9612 112.079 57.6943 111.949 57.4483 112.034L27.3307 122.448C27.0858 122.533 26.9553 122.801 27.0407 123.045C27.126 123.289 27.394 123.419 27.6389 123.334Z" fill="#349DD7"/>
<path d="M60.8821 127.713C61.127 127.628 61.2575 127.361 61.1722 127.117L60.3692 124.805C60.2839 124.561 60.0169 124.431 59.771 124.516C59.5261 124.601 59.3956 124.869 59.4809 125.113L60.2839 127.424C60.3692 127.668 60.6362 127.798 60.8821 127.713Z" fill="#349DD7"/>
<path d="M177.999 118.225C163.54 118.225 151.776 106.46 151.776 92C151.776 77.5395 163.54 65.7748 177.999 65.7748C192.459 65.7748 204.224 77.5395 204.224 92C204.224 106.46 192.46 118.225 177.999 118.225ZM177.999 66.7117C164.056 66.7117 152.713 78.0561 152.713 92C152.713 105.944 164.056 117.288 177.999 117.288C191.943 117.288 203.286 105.944 203.286 92C203.286 78.0561 191.943 66.7117 177.999 66.7117Z" fill="#349DD7"/>
<path d="M178 121C162.009 121 149 107.991 149 92C149 76.009 162.009 63 178 63C193.991 63 207 76.009 207 92C207 107.991 193.991 121 178 121ZM178 63.9369C162.527 63.9369 149.939 76.5265 149.939 92C149.939 107.473 162.527 120.063 178 120.063C193.473 120.063 206.061 107.473 206.061 92C206.061 76.5265 193.473 63.9369 178 63.9369Z" fill="#349DD7"/>
<path d="M166.697 96.8778C166.438 96.8778 166.228 96.6686 166.228 96.4094V68.8498C166.228 68.5906 166.438 68.3813 166.697 68.3813C166.956 68.3813 167.166 68.5906 167.166 68.8498V96.4094C167.166 96.6686 166.956 96.8778 166.697 96.8778Z" fill="#349DD7"/>
<path d="M201.148 81.1643H173.319C173.06 81.1643 172.85 80.9553 172.85 80.6963C172.85 80.4373 173.06 80.2283 173.319 80.2283H201.149C201.409 80.2283 201.619 80.4373 201.619 80.6963C201.618 80.9553 201.408 81.1643 201.148 81.1643Z" fill="#349DD7"/>
<path d="M189.302 115.618C189.043 115.618 188.833 115.408 188.833 115.149V87.7107C188.833 87.4514 189.043 87.2422 189.302 87.2422C189.561 87.2422 189.771 87.4514 189.771 87.7107V115.149C189.771 115.408 189.561 115.618 189.302 115.618Z" fill="#349DD7"/>
<path d="M182.366 103.771H154.852C154.592 103.771 154.382 103.561 154.382 103.303C154.382 103.044 154.592 102.835 154.852 102.835H182.365C182.624 102.835 182.834 103.044 182.834 103.303C182.834 103.561 182.624 103.771 182.366 103.771Z" fill="#349DD7"/>
<path d="M166.954 87.5306C166.834 87.5306 166.714 87.4855 166.623 87.3934C166.439 87.2102 166.439 86.9139 166.623 86.7308L186.045 67.3073C186.227 67.1231 186.526 67.1231 186.708 67.3073C186.892 67.4905 186.892 67.7868 186.708 67.97L167.285 87.3934C167.194 87.4855 167.074 87.5306 166.954 87.5306Z" fill="#349DD7"/>
<path d="M202.361 100.845C202.24 100.845 202.12 100.8 202.029 100.708L182.437 81.1142C182.252 80.931 182.252 80.6347 182.437 80.4515C182.619 80.2673 182.917 80.2673 183.099 80.4515L202.692 100.045C202.876 100.228 202.876 100.525 202.692 100.708C202.602 100.8 202.481 100.845 202.361 100.845Z" fill="#349DD7"/>
<path d="M169.624 116.83C169.503 116.83 169.383 116.785 169.292 116.693C169.108 116.509 169.108 116.213 169.292 116.03L188.769 96.5524C188.951 96.3683 189.249 96.3683 189.431 96.5524C189.616 96.7356 189.616 97.0319 189.431 97.2151L169.955 116.692C169.864 116.785 169.744 116.83 169.624 116.83Z" fill="#349DD7"/>
<path d="M173.098 103.552C172.978 103.552 172.858 103.506 172.767 103.414L153.309 83.956C153.125 83.7728 153.125 83.4765 153.309 83.2933C153.491 83.1091 153.79 83.1091 153.972 83.2933L173.429 102.752C173.613 102.935 173.613 103.231 173.429 103.414C173.338 103.506 173.218 103.552 173.098 103.552Z" fill="#349DD7"/>
<path d="M368.784 117.534L339.686 124.317C337.443 124.84 335.195 123.438 334.673 121.192L330.088 101.464C329.567 99.2173 330.966 96.965 333.209 96.4426L362.307 89.6595C364.55 89.1372 366.799 90.5386 367.321 92.7849L371.906 112.513C372.427 114.76 371.027 117.012 368.784 117.534ZM333.421 97.3588C331.683 97.7637 330.599 99.5097 331.003 101.251L335.587 120.979C335.991 122.72 337.734 123.806 339.472 123.401L368.571 116.618C370.309 116.213 371.393 114.467 370.989 112.726L366.404 92.9978C366 91.2579 364.257 90.1709 362.519 90.5757L333.421 97.3588Z" fill="#349DD7"/>
<path d="M327.301 96.8224L324.025 97.5859C323.773 97.6451 323.521 97.4874 323.462 97.2342L322.862 94.6534C322.803 94.4003 322.96 94.1471 323.213 94.0888L326.489 93.3253C326.741 93.2661 326.993 93.4238 327.052 93.677L327.652 96.2578C327.711 96.5099 327.554 96.7631 327.301 96.8224ZM324.27 96.5632L326.631 96.0127L326.244 94.348L323.883 94.8986L324.27 96.5632Z" fill="#349DD7"/>
<path d="M328.59 102.371L325.314 103.134C325.061 103.193 324.809 103.036 324.75 102.783L324.151 100.202C324.092 99.9486 324.249 99.6954 324.502 99.6372L327.777 98.8737C328.03 98.8144 328.283 98.9721 328.341 99.2253L328.941 101.806C329 102.058 328.844 102.311 328.59 102.371ZM325.559 102.11L327.92 101.56L327.533 99.8954L325.172 100.446L325.559 102.11Z" fill="#349DD7"/>
<path d="M329.88 107.918L326.604 108.682C326.351 108.741 326.099 108.583 326.04 108.33L325.441 105.749C325.381 105.496 325.539 105.243 325.792 105.185L329.067 104.421C329.32 104.362 329.573 104.52 329.631 104.773L330.231 107.354C330.289 107.607 330.133 107.86 329.88 107.918ZM326.848 107.659L329.209 107.109L328.822 105.444L326.461 105.994L326.848 107.659Z" fill="#349DD7"/>
<path d="M331.169 113.467L327.893 114.23C327.64 114.289 327.387 114.132 327.329 113.879L326.729 111.298C326.67 111.045 326.828 110.792 327.08 110.733L330.356 109.97C330.609 109.91 330.862 110.068 330.92 110.321L331.52 112.902C331.579 113.155 331.421 113.407 331.169 113.467ZM328.138 113.207L330.499 112.657L330.111 110.992L327.75 111.543L328.138 113.207Z" fill="#349DD7"/>
<path d="M332.458 119.015L329.183 119.779C328.93 119.838 328.677 119.68 328.619 119.427L328.019 116.846C327.96 116.593 328.117 116.34 328.37 116.282L331.646 115.518C331.899 115.459 332.151 115.617 332.21 115.87L332.809 118.451C332.868 118.704 332.711 118.956 332.458 119.015ZM329.426 118.756L331.787 118.205L331.4 116.541L329.039 117.091L329.426 118.756Z" fill="#349DD7"/>
<path d="M333.747 124.563L330.472 125.327C330.219 125.386 329.966 125.228 329.908 124.975L329.308 122.395C329.249 122.141 329.406 121.888 329.659 121.83L332.935 121.066C333.188 121.007 333.44 121.165 333.499 121.418L334.098 123.999C334.157 124.252 334 124.504 333.747 124.563ZM330.715 124.304L333.076 123.754L332.69 122.09L330.329 122.641L330.715 124.304Z" fill="#349DD7"/>
<path d="M335.036 130.112L331.76 130.875C331.508 130.935 331.255 130.777 331.197 130.524L330.597 127.943C330.538 127.69 330.695 127.437 330.948 127.378L334.224 126.615C334.476 126.556 334.729 126.713 334.787 126.966L335.387 129.547C335.446 129.8 335.289 130.053 335.036 130.112ZM332.005 129.853L334.366 129.302L333.979 127.638L331.618 128.188L332.005 129.853Z" fill="#349DD7"/>
<path d="M371.05 86.6238L367.775 87.3872C367.522 87.4465 367.269 87.2888 367.21 87.0357L366.61 84.4548C366.551 84.2017 366.708 83.9485 366.961 83.8902L370.237 83.1267C370.49 83.0675 370.742 83.2252 370.802 83.4783L371.401 86.0592C371.462 86.3113 371.303 86.5645 371.05 86.6238ZM368.02 86.3646L370.38 85.8141L369.993 84.1494L367.633 84.6999L368.02 86.3646Z" fill="#349DD7"/>
<path d="M372.34 92.1721L369.064 92.9356C368.811 92.9949 368.559 92.8371 368.499 92.584L367.9 90.0031C367.841 89.75 367.998 89.4968 368.251 89.4386L371.526 88.6751C371.779 88.6158 372.032 88.7735 372.091 89.0267L372.691 91.6075C372.75 91.8597 372.593 92.1128 372.34 92.1721ZM369.309 91.9119L371.669 91.3614L371.282 89.6967L368.922 90.2473L369.309 91.9119Z" fill="#349DD7"/>
<path d="M373.629 97.7196L370.353 98.4831C370.1 98.5423 369.847 98.3846 369.788 98.1315L369.189 95.5506C369.129 95.2975 369.287 95.0443 369.54 94.9861L372.815 94.2226C373.068 94.1633 373.321 94.321 373.38 94.5742L373.98 97.155C374.039 97.4082 373.881 97.6613 373.629 97.7196ZM370.598 97.4604L372.958 96.9099L372.571 95.2452L370.211 95.7958L370.598 97.4604Z" fill="#349DD7"/>
<path d="M374.918 103.268L371.642 104.031C371.389 104.091 371.136 103.933 371.077 103.68L370.477 101.099C370.418 100.846 370.576 100.593 370.828 100.534L374.104 99.7709C374.357 99.7116 374.61 99.8693 374.669 100.122L375.269 102.703C375.329 102.956 375.171 103.21 374.918 103.268ZM371.888 103.009L374.248 102.458L373.86 100.794L371.5 101.344L371.888 103.009Z" fill="#349DD7"/>
<path d="M376.207 108.816L372.932 109.58C372.679 109.639 372.426 109.481 372.367 109.228L371.767 106.647C371.708 106.394 371.865 106.141 372.118 106.083L375.394 105.319C375.647 105.26 375.899 105.418 375.959 105.671L376.558 108.252C376.618 108.505 376.46 108.757 376.207 108.816ZM373.176 108.557L375.536 108.007L375.149 106.342L372.789 106.892L373.176 108.557Z" fill="#349DD7"/>
<path d="M377.496 114.365L374.221 115.128C373.968 115.187 373.715 115.03 373.656 114.777L373.056 112.196C372.997 111.943 373.154 111.689 373.407 111.631L376.683 110.868C376.936 110.808 377.188 110.966 377.248 111.219L377.847 113.799C377.906 114.053 377.749 114.305 377.496 114.365ZM374.465 114.106L376.825 113.555L376.439 111.891L374.079 112.442L374.465 114.106Z" fill="#349DD7"/>
<path d="M378.786 119.913L375.51 120.677C375.258 120.736 375.005 120.578 374.946 120.325L374.346 117.744C374.287 117.491 374.444 117.238 374.697 117.18L377.973 116.416C378.225 116.357 378.478 116.515 378.537 116.768L379.137 119.349C379.196 119.602 379.039 119.854 378.786 119.913ZM375.755 119.654L378.115 119.103L377.728 117.439L375.368 117.989L375.755 119.654Z" fill="#349DD7"/>
<path d="M382.636 127.058L375.205 128.79C374.953 128.849 374.7 128.691 374.641 128.438L373.619 124.04C373.215 122.3 371.471 121.213 369.733 121.618L340.635 128.401C338.897 128.806 337.812 130.552 338.217 132.293L339.239 136.691C339.298 136.944 339.14 137.197 338.888 137.256L331.456 138.988C331.204 139.047 330.951 138.889 330.893 138.636L319.012 87.5067C318.953 87.2536 319.111 87.0014 319.363 86.9421L326.795 85.2102C327.047 85.1509 327.3 85.3086 327.358 85.5618L328.38 89.9599C328.784 91.7009 330.529 92.7869 332.266 92.382L361.364 85.599C363.102 85.1941 364.187 83.4481 363.782 81.7071L362.76 77.309C362.701 77.0558 362.859 76.8027 363.111 76.7444L370.543 75.0125C370.795 74.9532 371.048 75.1109 371.107 75.3641L382.988 126.493C383.047 126.746 382.889 127 382.636 127.058ZM375.45 127.767L381.966 126.248L370.298 76.0352L363.782 77.5541L364.698 81.4942C365.22 83.7404 363.82 85.9928 361.577 86.5162L332.478 93.2992C330.236 93.8226 327.987 92.4202 327.466 90.1739L326.55 86.2339L320.033 87.7528L331.701 137.966L338.218 136.447L337.302 132.507C336.78 130.261 338.179 128.008 340.422 127.486L369.521 120.703C371.763 120.18 374.013 121.582 374.534 123.828L375.45 127.767Z" fill="#349DD7"/>
<path d="M326.012 91.274L322.737 92.0375C322.484 92.0968 322.231 91.9391 322.173 91.6859L321.573 89.1051C321.514 88.8519 321.671 88.5988 321.924 88.5405L325.2 87.777C325.453 87.7177 325.704 87.8755 325.764 88.1286L326.363 90.7094C326.421 90.9626 326.265 91.2148 326.012 91.274ZM322.98 91.0149L325.341 90.4643L324.954 88.7997L322.593 89.3502L322.98 91.0149Z" fill="#349DD7"/>
<path d="M369.761 81.0752L366.486 81.8387C366.233 81.8979 365.98 81.7402 365.921 81.487L365.321 78.9062C365.262 78.6531 365.419 78.3999 365.672 78.3416L368.948 77.5781C369.201 77.5189 369.453 77.6766 369.513 77.9298L370.112 80.5106C370.171 80.7637 370.014 81.0159 369.761 81.0752ZM366.73 80.816L369.09 80.2654L368.703 78.6008L366.343 79.1513L366.73 80.816Z" fill="#349DD7"/>
<path d="M341.924 107.075C340.114 107.497 338.3 106.366 337.878 104.554C337.457 102.742 338.587 100.923 340.396 100.502C342.205 100.081 344.02 101.212 344.441 103.024C344.862 104.836 343.733 106.653 341.924 107.075ZM340.609 101.418C339.304 101.723 338.489 103.034 338.792 104.341C339.096 105.648 340.405 106.464 341.71 106.16C343.015 105.856 343.829 104.545 343.526 103.238C343.222 101.93 341.913 101.114 340.609 101.418Z" fill="#349DD7"/>
<path d="M353.832 115.312C353.812 115.317 341.804 118.116 341.804 118.116C341.618 118.159 341.427 118.087 341.315 117.932C341.205 117.777 341.198 117.571 341.297 117.41L345.876 110.015C346.013 109.795 346.301 109.726 346.522 109.862L353.866 114.405C354.019 114.453 354.143 114.579 354.182 114.747C354.242 115 354.083 115.253 353.832 115.312ZM342.694 116.943L352.489 114.659L346.428 110.911L342.694 116.943Z" fill="#349DD7"/>
<path d="M366.303 112.405C366.284 112.41 353.813 115.316 353.813 115.316C353.692 115.344 353.565 115.323 353.46 115.259L349.241 112.65C349.041 112.525 348.963 112.273 349.059 112.058L353.641 101.776C353.7 101.641 353.82 101.543 353.962 101.51C354.106 101.477 354.255 101.512 354.368 101.604L366.391 111.519C366.52 111.577 366.62 111.692 366.654 111.84C366.713 112.093 366.556 112.345 366.303 112.405ZM353.789 114.356L365.145 111.709L354.247 102.723L350.084 112.065L353.789 114.356Z" fill="#349DD7"/>
<path d="M291.378 20.9622C291.511 20.7429 291.798 20.6724 292.018 20.8054L321.086 38.3778L326.021 37.1712C326.27 37.1097 326.523 37.2625 326.584 37.5116C326.645 37.7606 326.492 38.0126 326.242 38.0732L321.121 39.3254C321.001 39.3551 320.875 39.3353 320.769 39.2718L291.535 21.5992C291.315 21.4672 291.245 21.1824 291.378 20.9622Z" fill="#349DD7"/>
<path d="M296.687 12.2236C296.732 12.1492 296.8 12.0867 296.884 12.046C297.116 11.9348 297.394 12.0321 297.506 12.2633L305.645 29.1322C305.756 29.3634 305.659 29.6402 305.427 29.7523C305.196 29.8634 304.917 29.7662 304.806 29.535L296.666 12.6661C296.595 12.5193 296.609 12.3536 296.687 12.2236Z" fill="#349DD7"/>
<path d="M299.631 18.3258C299.72 18.1809 299.885 18.0896 300.066 18.1025C300.322 18.1224 300.514 18.3456 300.494 18.6016L299.937 25.8905C299.916 26.1445 299.694 26.338 299.437 26.3182C299.18 26.2983 298.988 26.0751 299.008 25.8191L299.565 18.5302C299.571 18.4568 299.594 18.3863 299.631 18.3258Z" fill="#349DD7"/>
<path d="M286.068 29.7007C286.146 29.5707 286.288 29.4824 286.452 29.4765L305.21 28.8692C305.468 28.8613 305.683 29.0617 305.692 29.3187C305.699 29.5767 305.497 29.791 305.241 29.7989L286.482 30.4062C286.224 30.4141 286.009 30.2137 286 29.9567C285.998 29.8624 286.023 29.7751 286.068 29.7007Z" fill="#349DD7"/>
<path d="M292.853 29.4794C292.89 29.4189 292.942 29.3663 293.005 29.3266L299.226 25.4609C299.445 25.325 299.732 25.3914 299.868 25.6097C300.004 25.828 299.935 26.1158 299.718 26.2497L293.498 30.1154C293.279 30.2514 292.992 30.1849 292.856 29.9666C292.761 29.8138 292.766 29.6253 292.853 29.4794Z" fill="#349DD7"/>
<path d="M324.532 37.6753C324.596 37.5691 324.7 37.4937 324.82 37.4649L326.021 37.1712C326.271 37.1107 326.524 37.2625 326.584 37.5126L326.939 38.9523C327.001 39.2003 326.848 39.4534 326.597 39.5139L325.397 39.8076C325.276 39.8374 325.15 39.8175 325.043 39.753C324.938 39.6895 324.862 39.5863 324.833 39.4663L324.478 38.0266C324.449 37.9075 324.468 37.7815 324.532 37.6753ZM325.79 38.1853L325.493 38.2577L325.625 38.7945L325.921 38.7221L325.79 38.1853Z" fill="#349DD7"/>
<path d="M326.169 45.8204C326.233 45.7153 326.336 45.6388 326.456 45.6101L328.347 45.1477C328.467 45.118 328.594 45.1378 328.7 45.2013C328.805 45.2648 328.882 45.369 328.91 45.488L329.06 46.0943C329.225 46.764 328.782 47.4933 328.11 47.6571L327.83 47.7255C327.494 47.8089 327.146 47.7553 326.85 47.5757C326.554 47.3971 326.346 47.1133 326.263 46.7779L326.115 46.1717C326.085 46.0516 326.105 45.9256 326.169 45.8204ZM328.118 46.1598L327.132 46.4009L327.17 46.5557C327.193 46.6499 327.251 46.7293 327.335 46.7799C327.417 46.8305 327.516 46.8454 327.61 46.8216L327.89 46.7531C328.079 46.7065 328.202 46.5021 328.156 46.3136L328.118 46.1598Z" fill="#349DD7"/>
<path d="M323.926 39.3501C323.988 39.2479 324.088 39.1705 324.214 39.1398L327.333 38.3757C327.453 38.346 327.58 38.3658 327.686 38.4293C327.791 38.4928 327.867 38.596 327.897 38.7161L329.522 45.3263C329.582 45.5654 329.421 45.8294 329.181 45.8879L326.061 46.6509C325.811 46.7125 325.559 46.5597 325.498 46.3106L323.873 39.7014C323.842 39.5773 323.865 39.4523 323.926 39.3501ZM327.104 39.3898L324.889 39.9316L326.293 45.6379L328.507 45.0961L327.104 39.3898Z" fill="#349DD7"/>
<path d="M320.995 33.6279C321.056 33.5257 321.157 33.4473 321.282 33.4175C321.532 33.356 321.785 33.5088 321.845 33.7579L326.798 53.9031C326.86 54.1522 326.708 54.4042 326.457 54.4647C326.207 54.5262 325.955 54.3735 325.894 54.1244L320.941 33.9792C320.91 33.8551 320.933 33.7301 320.995 33.6279Z" fill="#349DD7"/>
<path d="M305.407 58.0328C305.449 57.9643 305.509 57.9058 305.583 57.8651C305.77 57.7639 305.999 57.8006 306.145 57.9544C306.186 57.999 306.229 58.0437 306.273 58.0873C306.477 58.1776 307.221 58.3632 309.425 57.8234C312.07 57.1765 312.531 56.593 312.595 56.4889C312.6 56.2835 312.741 56.0969 312.95 56.0453C313.2 55.9838 313.452 56.1366 313.514 56.3857C313.552 56.5375 313.575 56.9403 312.992 57.4057C312.389 57.8859 311.264 58.3304 309.647 58.7253C308.76 58.9426 308.003 59.0706 307.382 59.1083C312.254 63.1417 320.287 64.4723 328.43 62.4809C336.602 60.4816 343.124 55.5621 345.551 49.7129C344.985 49.9878 344.197 50.2735 343.104 50.5414C341.581 50.9135 340.442 51.0227 339.72 50.8629C339.001 50.7041 338.853 50.3112 338.824 50.1951C338.763 49.9461 338.916 49.6941 339.166 49.6335C339.379 49.581 339.594 49.6851 339.691 49.8717C339.785 49.9332 340.414 50.2428 342.882 49.6395C345.59 48.9767 346.023 48.2871 346.08 48.2008C346.15 47.9497 346.387 47.8059 346.626 47.8545C346.865 47.9021 347.026 48.1264 346.996 48.3675C346.992 48.4042 346.983 48.4508 346.963 48.5074C344.996 55.3061 337.818 61.1424 328.653 63.3848C319.597 65.6005 310.633 63.8095 305.694 58.8265C305.443 58.6559 305.373 58.4604 305.354 58.384C305.323 58.262 305.345 58.136 305.407 58.0328Z" fill="#349DD7"/>
<path d="M312.664 56.2577C312.711 56.1783 312.784 56.1128 312.874 56.0731C313.08 55.9818 313.323 56.0523 313.449 56.2388C313.588 56.3331 314.325 56.6248 317.142 55.9362C320.064 55.2218 320.593 54.6096 320.668 54.4984C320.68 54.298 320.818 54.1204 321.023 54.0718C321.272 54.0103 321.525 54.1631 321.586 54.4121C321.625 54.5669 321.644 54.9787 321.007 55.452C320.348 55.9411 319.123 56.4085 317.365 56.8381C316.063 57.1576 315.016 57.3164 314.24 57.3144C317.775 61.7397 323.213 63.7569 328.432 62.4809C333.65 61.2039 337.534 56.9076 338.616 51.3521C337.979 51.6825 337.018 52.0298 335.598 52.3771C333.851 52.8047 332.555 52.9545 331.748 52.8236C330.967 52.6966 330.794 52.3235 330.756 52.1677C330.695 51.9177 330.848 51.6666 331.098 51.6061C331.303 51.5565 331.509 51.6498 331.611 51.8224C331.728 51.8869 332.475 52.1846 335.377 51.4751C338.216 50.7806 338.737 50.1783 338.813 50.0652C338.84 49.8082 339.023 49.6345 339.249 49.6207C339.475 49.6058 339.678 49.7546 339.733 49.9739C339.762 50.09 339.762 50.217 339.718 50.3529C338.918 56.8292 334.597 61.9312 328.654 63.3839C322.691 64.8425 316.469 62.2914 312.761 56.8808C312.666 56.7746 312.627 56.6724 312.612 56.6079C312.579 56.4859 312.601 56.3599 312.664 56.2577Z" fill="#349DD7"/>
<path d="M320.734 54.2831C320.791 54.1899 320.879 54.1174 320.991 54.0817C321.19 54.0182 321.401 54.0946 321.515 54.2583C321.664 54.3278 322.565 54.6095 326.271 53.7026C330.006 52.7888 330.654 52.122 330.748 51.994C330.779 51.8016 330.928 51.6408 331.129 51.6071C331.369 51.5654 331.601 51.7112 331.66 51.9484C331.665 51.9672 331.668 51.9901 331.671 52.0119C332.111 56.3618 331.696 59.9468 330.533 61.8618C330.029 62.6903 329.397 63.2023 328.653 63.3839C326.143 63.998 323.097 60.6731 320.705 54.7068C320.695 54.681 320.686 54.6552 320.68 54.6334C320.649 54.5113 320.671 54.3853 320.734 54.2831ZM330.829 53.0994C329.997 53.5995 328.546 54.1045 326.493 54.6056C324.422 55.1126 322.916 55.3359 321.951 55.2754C324.007 59.9974 326.611 62.9264 328.43 62.4819C330.206 62.0473 331.193 58.1568 330.829 53.0994Z" fill="#349DD7"/>
<path d="M328.142 62.6933C328.204 62.5911 328.304 62.5137 328.43 62.483C328.679 62.4215 328.932 62.5743 328.993 62.8233L329.387 64.4248C329.448 64.6738 329.296 64.9259 329.046 64.9864C328.796 65.0479 328.543 64.8951 328.482 64.6461L328.089 63.0446C328.058 62.9196 328.081 62.7945 328.142 62.6933Z" fill="#349DD7"/>
<path d="M312.165 34.5447L313.068 33.0583C313.202 32.8391 313.488 32.7686 313.708 32.9016C313.928 33.0345 313.998 33.3203 313.865 33.5396L312.962 35.0259C312.829 35.2452 312.542 35.3157 312.322 35.1827C312.102 35.0498 312.032 34.764 312.165 34.5447Z" fill="#349DD7"/>
<path d="M9.51855 36.7328L8.60333 37.5456C8.40943 37.7184 8.11206 37.7003 7.93926 37.5064L6.09373 35.4268C5.92093 35.2319 5.93902 34.9355 6.13291 34.7627L7.04814 33.9499C7.24304 33.7771 7.5394 33.7952 7.7122 33.9891L9.55773 36.0687C9.73053 36.2636 9.71345 36.561 9.51855 36.7328ZM8.33006 36.5299L8.54204 36.342L7.3214 34.9656L7.10943 35.1535L8.33006 36.5299Z" fill="#349DD7"/>
<path d="M26.3571 21.7867L25.4409 22.5995C25.247 22.7723 24.9496 22.7542 24.7768 22.5603L22.9313 20.4807C22.7585 20.2858 22.7765 19.9894 22.9704 19.8166L23.8867 19.0039C24.0806 18.8311 24.3779 18.8492 24.5507 19.0431L26.3963 21.1227C26.5701 21.3166 26.552 21.614 26.3571 21.7867ZM25.1686 21.5838L25.3816 21.3949L24.1609 20.0196L23.948 20.2085L25.1686 21.5838Z" fill="#349DD7"/>
<path d="M25.2322 36.3058L23.1526 38.1514C22.9587 38.3242 22.6613 38.3061 22.4885 38.1122L21.6758 37.197C21.503 37.0021 21.5211 36.7057 21.7149 36.5329L23.7946 34.6874C23.9885 34.5146 24.2858 34.5326 24.4586 34.7265L25.2714 35.6418C25.4442 35.8367 25.4271 36.133 25.2322 36.3058ZM22.8803 37.1357L24.2557 35.914L24.0678 35.702L22.6925 36.9227L22.8803 37.1357Z" fill="#349DD7"/>
<path d="M40.3751 53.3667L38.2955 55.2122C38.1016 55.385 37.8042 55.367 37.6314 55.1731L32.772 49.6988C32.5992 49.5049 32.6172 49.2075 32.8111 49.0347L34.8908 47.1892C35.0846 47.0164 35.382 47.0345 35.5548 47.2284L40.4143 52.7027C40.5871 52.8965 40.57 53.1939 40.3751 53.3667ZM38.0232 54.1966L39.3986 52.9759L35.164 48.2059L33.7887 49.4265L38.0232 54.1966Z" fill="#349DD7"/>
<path d="M10.286 19.4671L8.20642 21.3126C8.01152 21.4854 7.71516 21.4673 7.54236 21.2734L6.7296 20.3582C6.5568 20.1643 6.57488 19.8669 6.76878 19.6941L8.84839 17.8486C9.04329 17.6758 9.33966 17.6939 9.51246 17.8878L10.3252 18.803C10.498 18.9969 10.4799 19.2943 10.286 19.4671ZM7.93315 20.2969L9.30851 19.0763L9.12065 18.8643L7.74529 20.0849L7.93315 20.2969Z" fill="#349DD7"/>
<path d="M28.7533 31.5438L18.0067 41.0829C16.3852 42.5215 13.8967 42.3739 12.4571 40.7524L2.918 30.0057C1.47935 28.3842 1.62704 25.8957 3.24853 24.4561L13.9962 14.917C15.6177 13.4784 18.1062 13.6261 19.5458 15.2475L29.0849 25.9942C30.5225 27.6147 30.3748 30.1042 28.7533 31.5438ZM3.87241 25.1593C2.63972 26.2534 2.5272 28.1471 3.62125 29.3808L13.1603 40.1275C14.2544 41.3602 16.1481 41.4737 17.3818 40.3797L28.1285 30.8406C29.3612 29.7465 29.4737 27.8528 28.3796 26.6191L18.8406 15.8724C17.7465 14.6397 15.8527 14.5262 14.619 15.6203L3.87241 25.1593Z" fill="#349DD7"/>
<path d="M21.8106 34.5448C18.2009 37.7486 12.6593 37.418 9.45552 33.8094C6.25172 30.1997 6.58226 24.6581 10.1909 21.4543C13.8006 18.2505 19.3422 18.581 22.546 22.1897C25.7498 25.7994 25.4203 31.342 21.8106 34.5448ZM10.8158 22.1586C7.59493 25.0178 7.30057 29.9646 10.1598 33.1855C13.019 36.4064 17.9658 36.7007 21.1867 33.8415C24.4076 30.9823 24.702 26.0355 21.8428 22.8146C18.9835 19.5937 14.0367 19.2993 10.8158 22.1586Z" fill="#349DD7"/>
<path d="M43.8431 18.15C43.813 18.1761 43.7808 18.1992 43.7447 18.2173L29.4767 25.4799C29.2859 25.5773 29.0538 25.5331 28.9111 25.3724L20.1406 15.4917C19.998 15.331 19.9819 15.0959 20.1014 14.9181L29.0056 1.61362C29.087 1.49306 29.2186 1.4157 29.3642 1.40566C29.5099 1.39561 29.6516 1.45388 29.748 1.56339L43.8813 17.487C43.9778 17.5955 44.0189 17.7441 43.9918 17.8868C43.9737 17.9883 43.9205 18.0807 43.8431 18.15ZM29.3743 24.4762L42.7752 17.6547L29.4506 2.64237L21.087 15.1391L29.3743 24.4762Z" fill="#349DD7"/>
<path d="M2.91605 54.4768C2.83869 54.5452 2.74024 54.5874 2.63576 54.5944C2.49109 54.6044 2.34843 54.5462 2.25199 54.4367L-11.8813 38.5131C-11.9778 38.4046 -12.0189 38.2569 -11.9918 38.1132C-11.9647 37.9696 -11.8743 37.848 -11.7427 37.7817L2.52525 30.5192C2.71613 30.4217 2.9482 30.4659 3.09086 30.6257L11.8614 40.5063C12.004 40.667 12.0201 40.9021 11.9006 41.0799L2.99642 54.3854C2.97231 54.4206 2.94619 54.4507 2.91605 54.4768ZM-10.7732 38.3453L2.55137 53.3577L10.915 40.8609L2.62671 31.5238L-10.7732 38.3453Z" fill="#349DD7"/>
<path d="M13.3744 15.0889L3.4927 23.8594C3.33196 24.002 3.09688 24.0181 2.91905 23.8986L-10.3854 14.9944C-10.506 14.914 -10.5833 14.7814 -10.5934 14.6358C-10.6034 14.4901 -10.5451 14.3484 -10.4356 14.252L5.48692 0.118694C5.59542 0.0222485 5.74411 -0.0189424 5.88677 0.00818291C6.03043 0.0353082 6.153 0.127736 6.2183 0.257335L13.4808 14.5242C13.5783 14.7141 13.5341 14.9462 13.3744 15.0889ZM3.14008 22.914L12.4772 14.6257L5.65469 1.22581L-9.35665 14.5504L3.14008 22.914Z" fill="#349DD7"/>
<path d="M42.4376 41.7481L26.515 55.8813C26.4055 55.9778 26.2578 56.019 26.1152 55.9919C25.9715 55.9647 25.849 55.8723 25.7837 55.7427L18.5201 41.4748C18.4227 41.2839 18.4669 41.0518 18.6276 40.9092L28.5092 32.1387C28.67 31.996 28.9051 31.9799 29.0829 32.0995L42.3874 41.0046C42.5079 41.086 42.5853 41.2186 42.5953 41.3633C42.6054 41.5099 42.5471 41.6516 42.4376 41.7481ZM26.3463 54.7742L41.3576 41.4497L28.8609 33.085L19.5227 41.3733L26.3463 54.7742Z" fill="#349DD7"/>
<path d="M21.8103 34.5447C21.6164 34.7175 21.3191 34.6994 21.1463 34.5055L10.1515 22.1183C9.97867 21.9234 9.99676 21.627 10.1907 21.4542C10.3856 21.2814 10.6819 21.2995 10.8547 21.4934L21.8495 33.8806C22.0223 34.0755 22.0052 34.3729 21.8103 34.5447Z" fill="#349DD7"/>
<path d="M23.1515 32.7203C22.9566 32.8931 22.6602 32.875 22.4874 32.6811L12.0411 20.9127C11.8683 20.7188 11.8864 20.4214 12.0803 20.2486C12.2752 20.0758 12.5716 20.0939 12.7444 20.2878L23.1906 32.0562C23.3634 32.2511 23.3464 32.5475 23.1515 32.7203Z" fill="#349DD7"/>
<path d="M24.2304 30.6006C24.0355 30.7734 23.7391 30.7553 23.5663 30.5614L14.2935 20.1141C14.1207 19.9192 14.1387 19.6229 14.3336 19.4501C14.5275 19.2773 14.8249 19.2953 14.9977 19.4892L24.2706 29.9365C24.4424 30.1304 24.4243 30.4278 24.2304 30.6006Z" fill="#349DD7"/>
<path d="M17.606 36.4797C17.4121 36.6525 17.1147 36.6344 16.9419 36.4405L7.66905 25.9933C7.49625 25.7994 7.51434 25.502 7.70823 25.3292C7.90313 25.1564 8.19951 25.1745 8.37231 25.3684L17.6451 35.8157C17.8179 36.0106 17.8009 36.3069 17.606 36.4797Z" fill="#349DD7"/>
<path d="M19.8394 35.66C19.6455 35.8328 19.3482 35.8147 19.1754 35.6208L8.72911 23.8524C8.55631 23.6585 8.57439 23.3611 8.76829 23.1883C8.96219 23.0155 9.25956 23.0336 9.43235 23.2275L19.8786 34.9959C20.0524 35.1908 20.0343 35.4882 19.8394 35.66Z" fill="#349DD7"/>
<path d="M22.5065 22.8547L10.1193 33.8495C9.92436 34.0223 9.62798 34.0042 9.45518 33.8103C9.28238 33.6164 9.30047 33.3191 9.49436 33.1463L21.8816 22.1515C22.0765 21.9787 22.3729 21.9967 22.5457 22.1906C22.7185 22.3845 22.7014 22.6819 22.5065 22.8547Z" fill="#349DD7"/>
<path d="M23.7124 24.7434L11.943 35.1897C11.7481 35.3625 11.4517 35.3444 11.2789 35.1505C11.1061 34.9566 11.1242 34.6592 11.3181 34.4864L23.0875 24.0401C23.2824 23.8673 23.5787 23.8854 23.7515 24.0793C23.9243 24.2742 23.9073 24.5716 23.7124 24.7434Z" fill="#349DD7"/>
<path d="M24.5118 26.9949L14.0636 36.2687C13.8687 36.4415 13.5723 36.4234 13.3995 36.2295C13.2267 36.0356 13.2448 35.7383 13.4387 35.5655L23.886 26.2916C24.0809 26.1188 24.3772 26.1369 24.55 26.3308C24.7238 26.5257 24.7057 26.8231 24.5118 26.9949Z" fill="#349DD7"/>
<path d="M18.6326 20.3712L8.18431 29.645C7.99041 29.8178 7.69304 29.7998 7.52025 29.6059C7.34745 29.411 7.36553 29.1146 7.55943 28.9418L18.0077 19.668C18.2026 19.4952 18.499 19.5132 18.6718 19.7071C18.8446 19.902 18.8265 20.1984 18.6326 20.3712Z" fill="#349DD7"/>
<path d="M20.7725 21.4321L9.00415 31.8784C8.81025 32.0512 8.51287 32.0331 8.34007 31.8392C8.16727 31.6443 8.18536 31.3479 8.37925 31.1751L20.1486 20.7289C20.3425 20.5561 20.6399 20.5741 20.8127 20.768C20.9845 20.9629 20.9674 21.2593 20.7725 21.4321Z" fill="#349DD7"/>
<path d="M309.813 91.0235C309.788 91.0515 309.758 91.0774 309.726 91.1003C309.532 91.231 309.271 91.1971 309.117 91.0205L292.506 72.0286L282.713 83.0316C282.61 83.1473 282.456 83.2042 282.304 83.1832C282.151 83.1623 282.018 83.0675 281.95 82.9289L266.981 52.8562C266.877 52.6458 266.942 52.3914 267.138 52.2588C267.332 52.1281 267.593 52.1621 267.747 52.3386L284.359 71.3305L294.152 60.3275C294.254 60.2118 294.408 60.155 294.56 60.1759C294.713 60.1969 294.846 60.2916 294.915 60.4302L309.884 90.5029C309.969 90.6785 309.937 90.8839 309.813 91.0235ZM282.474 81.8956L292.16 71.0123C292.248 70.9126 292.375 70.8557 292.509 70.8567C292.642 70.8567 292.769 70.9146 292.856 71.0153L307.439 87.6883L294.385 61.4645L284.7 72.3478C284.611 72.4475 284.484 72.5044 284.351 72.5034C284.218 72.5034 284.091 72.4455 284.003 72.3438L269.421 55.6708L282.474 81.8956Z" fill="#349DD7"/>
<path d="M271.572 151.72L225.904 123.686C225.012 123.139 224.733 121.969 225.28 121.078L239.37 98.1598C239.918 97.2691 241.088 96.9895 241.979 97.5367L254.858 105.442L259.086 103.787C259.223 103.733 259.377 103.747 259.502 103.824L274.115 112.795C274.241 112.871 274.323 113.003 274.336 113.15L274.751 117.654L287.648 125.571C288.539 126.118 288.819 127.287 288.271 128.178L274.181 151.097C273.634 151.988 272.463 152.267 271.572 151.72ZM241.49 98.3336C241.038 98.056 240.444 98.1978 240.168 98.6491L226.078 121.568C225.8 122.019 225.942 122.611 226.393 122.889L272.062 150.923C272.513 151.201 273.106 151.058 273.383 150.607L287.473 127.688C287.75 127.237 287.61 126.644 287.158 126.367L274.062 118.327C273.936 118.251 273.854 118.119 273.841 117.972L273.427 113.468L259.212 104.741L254.984 106.397C254.847 106.451 254.693 106.437 254.568 106.36L241.49 98.3336Z" fill="#349DD7"/>
<path d="M251.443 133.301C245.09 129.4 243.097 121.064 247 114.716C250.903 108.367 259.246 106.376 265.598 110.275C271.952 114.176 273.945 122.512 270.042 128.86C266.14 135.21 257.797 137.201 251.443 133.301ZM265.11 111.073C259.197 107.443 251.43 109.297 247.798 115.206C244.166 121.115 246.02 128.875 251.934 132.505C257.848 136.135 265.613 134.28 269.246 128.372C272.877 122.463 271.022 114.703 265.11 111.073Z" fill="#349DD7"/>
<path d="M252.985 130.794C248.016 127.744 246.457 121.222 249.51 116.257C252.563 111.291 259.089 109.733 264.058 112.784C269.028 115.834 270.587 122.356 267.534 127.321C264.481 132.287 257.955 133.845 252.985 130.794ZM263.568 113.579C259.038 110.798 253.089 112.219 250.306 116.746C247.523 121.272 248.945 127.217 253.475 129.998C258.005 132.778 263.952 131.358 266.735 126.831C269.517 122.305 268.097 116.36 263.568 113.579Z" fill="#349DD7"/>
<path d="M270.034 111.387L262.602 106.824C262.383 106.689 262.314 106.401 262.449 106.181L263.056 105.193C263.604 104.302 264.775 104.022 265.666 104.57L270.663 107.637C271.554 108.184 271.834 109.354 271.286 110.245L270.679 111.234C270.543 111.453 270.254 111.521 270.034 111.387ZM263.491 106.272L270.124 110.344L270.487 109.754C270.765 109.303 270.624 108.711 270.172 108.433L265.176 105.365C264.724 105.088 264.13 105.23 263.854 105.682L263.491 106.272Z" fill="#349DD7"/>
<path d="M251.358 104.391L243.926 99.8284C243.705 99.6936 243.637 99.405 243.772 99.1854L244.38 98.1968C244.927 97.3061 246.098 97.0265 246.989 97.5737L251.985 100.641C252.877 101.188 253.156 102.358 252.609 103.248L252.001 104.237C251.865 104.458 251.578 104.527 251.358 104.391ZM244.814 99.2762L251.449 103.349L251.811 102.759C252.088 102.308 251.947 101.715 251.496 101.438L246.499 98.3705C246.048 98.0929 245.454 98.2347 245.177 98.6861L244.814 99.2762Z" fill="#349DD7"/>
<path d="M282.491 128.595C281.768 128.15 281.541 127.201 281.985 126.478C282.429 125.755 283.38 125.528 284.103 125.972C284.828 126.417 285.054 127.366 284.61 128.089C284.166 128.813 283.216 129.04 282.491 128.595ZM283.613 126.769C283.33 126.596 282.958 126.684 282.783 126.968C282.609 127.252 282.697 127.624 282.981 127.798C283.265 127.972 283.637 127.883 283.812 127.599C283.986 127.316 283.897 126.944 283.613 126.769Z" fill="#349DD7"/>
<path d="M279.371 126.679C278.647 126.235 278.42 125.285 278.865 124.562C279.31 123.84 280.26 123.613 280.984 124.056C281.708 124.501 281.935 125.45 281.49 126.173C281.045 126.897 280.095 127.124 279.371 126.679ZM280.493 124.854C280.209 124.68 279.837 124.769 279.662 125.053C279.489 125.336 279.577 125.709 279.86 125.883C280.144 126.056 280.517 125.967 280.692 125.684C280.866 125.401 280.777 125.028 280.493 124.854Z" fill="#349DD7"/>
<path d="M263.096 128.823L250.173 120.891C249.953 120.756 249.884 120.467 250.019 120.248L253.303 114.906C253.438 114.686 253.727 114.618 253.947 114.753L266.869 122.685C267.089 122.82 267.159 123.109 267.023 123.328L263.74 128.669C263.605 128.89 263.316 128.959 263.096 128.823ZM251.062 120.34L263.186 127.782L265.98 123.237L253.856 115.794L251.062 120.34Z" fill="#349DD7"/>
<path d="M287.158 126.368L275.446 119.178C275.226 119.042 275.157 118.755 275.293 118.535L277.266 115.326C277.402 115.105 277.69 115.037 277.911 115.172L289.622 122.362C289.842 122.496 289.912 122.785 289.776 123.005L287.803 126.214C287.667 126.435 287.378 126.503 287.158 126.368ZM276.335 118.626L287.248 125.325L288.731 122.912L277.818 116.213L276.335 118.626Z" fill="#349DD7"/>
<path d="M294.018 115.208L282.306 108.018C282.085 107.884 282.016 107.595 282.152 107.375L286.002 101.113C286.138 100.894 286.425 100.825 286.646 100.96L298.358 108.149C298.579 108.284 298.648 108.573 298.512 108.792L294.662 115.054C294.527 115.275 294.239 115.344 294.018 115.208ZM283.196 107.467L294.109 114.167L297.468 108.701L286.555 102.002L283.196 107.467Z" fill="#349DD7"/>
<path d="M293.358 112.965L284.607 107.593C284.387 107.458 284.317 107.17 284.453 106.95L286.662 103.355C286.797 103.136 287.086 103.067 287.307 103.202L296.058 108.574C296.279 108.709 296.348 108.997 296.212 109.217L294.003 112.812C293.867 113.032 293.578 113.101 293.358 112.965ZM285.496 107.042L293.449 111.924L295.169 109.126L287.216 104.244L285.496 107.042Z" fill="#349DD7"/>
<path d="M285.123 120.649L281.47 118.406C281.249 118.272 281.18 117.983 281.316 117.763L286.182 109.849C286.316 109.628 286.605 109.56 286.826 109.695L290.479 111.938C290.7 112.073 290.769 112.361 290.633 112.581L285.768 120.495C285.632 120.716 285.343 120.784 285.123 120.649ZM282.358 117.854L285.213 119.607L289.589 112.489L286.734 110.737L282.358 117.854Z" fill="#349DD7"/>
<path d="M246.788 108.89L239.684 104.529C239.464 104.395 239.395 104.107 239.53 103.886L241.483 100.709C241.618 100.488 241.907 100.42 242.127 100.555L249.231 104.916C249.452 105.051 249.52 105.339 249.385 105.559L247.431 108.736C247.296 108.957 247.007 109.026 246.788 108.89ZM240.572 103.977L246.879 107.849L248.343 105.468L242.036 101.597L240.572 103.977Z" fill="#349DD7"/>
<path d="M235.977 126.476L228.873 122.115C228.653 121.98 228.584 121.692 228.719 121.472L230.672 118.294C230.808 118.074 231.096 118.006 231.316 118.141L238.42 122.501C238.641 122.636 238.709 122.925 238.574 123.144L236.62 126.322C236.485 126.543 236.197 126.61 235.977 126.476ZM229.762 121.563L236.068 125.434L237.532 123.054L231.226 119.182L229.762 121.563Z" fill="#349DD7"/>
<path d="M293.433 103.04C293.212 102.905 293.143 102.616 293.279 102.397L297.864 94.9375C297.999 94.7178 298.288 94.6489 298.509 94.7837C298.73 94.9185 298.799 95.2071 298.663 95.4267L294.077 102.886C293.942 103.106 293.653 103.174 293.433 103.04Z" fill="#349DD7"/>
<path d="M289.101 100.381C288.999 100.318 288.92 100.217 288.891 100.091L286.854 91.5764C286.793 91.3248 286.949 91.0721 287.201 91.0132C287.452 90.9523 287.706 91.1081 287.765 91.3587L289.801 99.8733C289.862 100.125 289.706 100.378 289.455 100.437C289.329 100.467 289.204 100.442 289.101 100.381Z" fill="#349DD7"/>
<path d="M297.766 105.699C297.664 105.636 297.585 105.535 297.556 105.409C297.496 105.158 297.651 104.905 297.903 104.846L306.423 102.812C306.674 102.751 306.928 102.907 306.987 103.158C307.048 103.409 306.893 103.662 306.64 103.721L298.12 105.755C297.994 105.787 297.868 105.762 297.766 105.699Z" fill="#349DD7"/>
<path d="M114.756 51.0395L64.2409 69.881C63.2571 70.2484 62.1619 69.736 61.7988 68.7413L52.1177 42.1569C51.7546 41.1613 52.2599 40.0528 53.2448 39.6853L103.76 20.8439C104.744 20.4775 105.839 20.9889 106.201 21.9846L115.882 48.569C116.245 49.5646 115.74 50.6731 114.756 51.0395ZM53.5671 40.5703C53.0657 40.7575 52.8071 41.3233 52.9921 41.8307L62.6732 68.4151C62.8582 68.9225 63.4163 69.1833 63.9186 68.996L114.434 50.1546C114.935 49.9673 115.193 49.4026 115.008 48.8951L105.327 22.3108C105.142 21.8024 104.583 21.5416 104.081 21.7289L53.5671 40.5703Z" fill="#349DD7"/>
<path d="M113.145 42.4147L95.7224 48.9133C95.4806 49.0039 95.2131 48.878 95.1245 48.6344C95.036 48.3898 95.1593 48.1189 95.4001 48.0293L112.386 41.6938L107.95 29.5131L90.9674 35.8476C90.7257 35.9382 90.4581 35.8124 90.3695 35.5687C90.28 35.3241 90.4043 35.0533 90.6451 34.9637L108.065 28.4661C108.307 28.3755 108.575 28.5013 108.663 28.7449L113.421 41.8096C113.51 42.0542 113.386 42.3251 113.145 42.4147Z" fill="#349DD7"/>
<path d="M77.3586 55.7623L59.9363 62.2609C59.6945 62.3515 59.4269 62.2257 59.3384 61.982L54.5804 48.9174C54.4919 48.6727 54.6153 48.4019 54.856 48.3123L72.2764 41.8147C72.5181 41.7241 72.7857 41.8499 72.8742 42.0936C72.9637 42.3382 72.8394 42.609 72.5987 42.6986L55.616 49.0331L60.0517 61.2139L77.0373 54.8784C77.279 54.7888 77.5466 54.9136 77.6352 55.1572C77.7237 55.4019 77.6004 55.6727 77.3586 55.7623Z" fill="#349DD7"/>
<path d="M88.2982 57.1668C81.867 59.5659 74.7076 56.2224 72.3371 49.7138C69.9666 43.2051 73.2702 35.9595 79.7014 33.5604C86.1326 31.1613 93.2919 34.5047 95.6624 41.0134C98.033 47.521 94.7293 54.7677 88.2982 57.1668ZM80.0237 34.4443C74.075 36.6632 71.019 43.3662 73.2115 49.3866C75.404 55.4069 82.0271 58.5007 87.9759 56.2818C93.9246 54.0629 96.9815 47.36 94.788 41.3386C92.5966 35.3192 85.9734 32.2254 80.0237 34.4443Z" fill="#349DD7"/>
<path d="M87.6916 55.4994C82.1686 57.5593 76.019 54.688 73.9837 49.0985C71.9484 43.509 74.7855 37.2852 80.3084 35.2254C85.8314 33.1656 91.981 36.0368 94.0163 41.6264C96.0516 47.2159 93.2145 53.4396 87.6916 55.4994ZM80.6307 36.1103C75.5902 37.991 72.9999 43.6711 74.8581 48.7723C76.7153 53.8735 82.3288 56.4951 87.3693 54.6145C92.4098 52.7339 95.0002 47.0538 93.1419 41.9525C91.2847 36.8513 85.6722 34.2307 80.6307 36.1103Z" fill="#349DD7"/>
<path d="M86.7714 52.9725C82.6252 54.5189 78.0095 52.3634 76.4815 48.1672C74.9536 43.9711 77.0834 39.2997 81.2295 37.7534C85.3757 36.207 89.9915 38.3624 91.5194 42.5586C93.0474 46.7548 90.9176 51.4261 86.7714 52.9725ZM81.5519 38.6383C77.8881 40.0045 76.006 44.1332 77.3559 47.841C78.7058 51.5489 82.7854 53.4547 86.4491 52.0875C90.1128 50.7214 91.9949 46.5917 90.645 42.8838C89.2941 39.1769 85.2156 37.2711 81.5519 38.6383Z" fill="#349DD7"/>
<path d="M70.8562 55.8337C70.0584 56.1317 69.1691 55.7159 68.8756 54.9085C68.5811 54.1011 68.992 53.201 69.7898 52.904C70.5876 52.6071 71.4759 53.0218 71.7704 53.8293C72.0638 54.6357 71.654 55.5357 70.8562 55.8337ZM70.1111 53.788C69.7947 53.9058 69.6326 54.2622 69.749 54.5823C69.8654 54.9025 70.2175 55.0666 70.5339 54.9488C70.8492 54.831 71.0114 54.4746 70.895 54.1544C70.7786 53.8353 70.4264 53.6702 70.1111 53.788Z" fill="#349DD7"/>
<path d="M104.654 28.903L98.0312 31.3736C97.0473 31.741 95.9521 31.2296 95.589 30.2329L94.9066 28.3583C94.5445 27.3627 95.0498 26.2542 96.0337 25.8878L102.657 23.4172C103.641 23.0507 104.736 23.5621 105.098 24.5568L105.78 26.4314C106.143 27.4281 105.638 28.5365 104.654 28.903ZM96.356 26.7727C95.8546 26.96 95.596 27.5257 95.781 28.0332L96.4634 29.9077C96.6484 30.4161 97.2075 30.6769 97.7088 30.4896L104.332 28.0191C104.833 27.8318 105.091 27.267 104.906 26.7586L104.224 24.884C104.039 24.3766 103.48 24.1159 102.979 24.3031L96.356 26.7727Z" fill="#349DD7"/>
<path d="M87.2907 27.9919C87.2718 27.9989 70.3777 34.3002 70.3777 34.3002C70.2304 34.3546 70.0673 34.3314 69.941 34.2378C69.8146 34.1442 69.744 33.9932 69.751 33.8351L69.9857 28.8768C69.9947 28.6876 70.1141 28.5225 70.2901 28.457L83.5922 23.4957C83.7672 23.4303 83.9652 23.4776 84.0925 23.6155L87.3673 27.1442C87.4558 27.1976 87.5284 27.2811 87.5663 27.3868C87.6558 27.6315 87.5324 27.9023 87.2907 27.9919ZM70.7159 33.1696L86.289 27.3607L83.625 24.4884L70.9019 29.2342L70.7159 33.1696Z" fill="#349DD7"/>
<path d="M64.2879 36.5715L54.4656 40.2351C54.2239 40.3257 53.9563 40.1999 53.8677 39.9562L53.4639 38.8478C53.1018 37.8521 53.6071 36.7437 54.5909 36.3772L61.7194 33.7184C62.7033 33.3509 63.7985 33.8633 64.1606 34.858L64.5645 35.9664C64.653 36.2111 64.5296 36.4819 64.2879 36.5715ZM54.58 39.1881L63.5279 35.8507L63.2852 35.1852C63.1002 34.6778 62.5411 34.4171 62.0397 34.6043L54.9112 37.2631C54.4099 37.4504 54.1512 38.0162 54.3363 38.5236L54.58 39.1881Z" fill="#349DD7"/>
<path d="M103.184 22.0642L96.0556 24.723C95.8139 24.8136 95.5463 24.6878 95.4577 24.4441L95.3851 24.2448C95.022 23.2491 95.5283 22.1407 96.5112 21.7732L100.945 20.1191C101.929 19.7516 103.024 20.2631 103.387 21.2598L103.46 21.4591C103.549 21.7037 103.426 21.9735 103.184 22.0642ZM96.2038 23.6629L102.393 21.3544C102.145 21.004 101.687 20.848 101.269 21.004L96.8355 22.6581C96.4157 22.8142 96.167 23.233 96.2038 23.6629Z" fill="#349DD7"/>
</g>
</g>
</svg>
