<svg width="20" height="21" viewBox="0 0 20 21" fill="none" xmlns="http://www.w3.org/2000/svg">
<path opacity="0.4" d="M7.50004 8.83333C8.42052 8.83333 9.16671 8.08714 9.16671 7.16667C9.16671 6.24619 8.42052 5.5 7.50004 5.5C6.57957 5.5 5.83337 6.24619 5.83337 7.16667C5.83337 8.08714 6.57957 8.83333 7.50004 8.83333Z" stroke="#2E2E34" stroke-width="1.25" stroke-linecap="round" stroke-linejoin="round"/>
<path d="M10.8333 2.16663H7.49996C3.33329 2.16663 1.66663 3.83329 1.66663 7.99996V13C1.66663 17.1666 3.33329 18.8333 7.49996 18.8333H12.5C16.6666 18.8333 18.3333 17.1666 18.3333 13V8.83329" stroke="#2E2E34" stroke-width="1.25" stroke-linecap="round" stroke-linejoin="round"/>
<g opacity="0.45">
<path d="M15.9507 2.65842L12.9257 5.68342C12.809 5.80008 12.6923 6.02508 12.6757 6.19175L12.509 7.35008C12.4507 7.76675 12.7423 8.05842 13.159 8.00008L14.3173 7.83342C14.4757 7.80842 14.709 7.70008 14.8257 7.58342L17.8507 4.55842C18.3757 4.03342 18.6173 3.43342 17.8507 2.66675C17.0757 1.88342 16.4757 2.13342 15.9507 2.65842Z" stroke="#2E2E34" stroke-width="1.25" stroke-miterlimit="10" stroke-linecap="round" stroke-linejoin="round"/>
<path d="M15.516 3.09155C15.7743 4.00822 16.491 4.72489 17.4077 4.98322" stroke="#2E2E34" stroke-width="1.25" stroke-miterlimit="10" stroke-linecap="round" stroke-linejoin="round"/>
</g>
<path opacity="0.4" d="M2.2251 16.2917L6.33343 13.5333C6.99176 13.0917 7.94176 13.1417 8.53343 13.65L8.80843 13.8917C9.45843 14.45 10.5084 14.45 11.1584 13.8917L14.6251 10.9167C15.2751 10.3583 16.3251 10.3583 16.9751 10.9167L18.3334 12.0833" stroke="#2E2E34" stroke-width="1.25" stroke-linecap="round" stroke-linejoin="round"/>
</svg>
