<svg xmlns="http://www.w3.org/2000/svg" width="31" height="32" viewBox="0 0 31 32">
  <g id="Group_11495" data-name="Group 11495" transform="translate(-142.661 0.162)">
    <g id="Group_143" data-name="Group 143" transform="translate(142.359 -0.162)">
      <g id="Group_11469" data-name="Group 11469">
        <g id="Group_11476" data-name="Group 11476">
          <g id="Group_11465" data-name="Group 11465">
            <g id="Group_12" data-name="Group 12">
              <g id="Group_11466" data-name="Group 11466">
                <g id="Path_11770" data-name="Path 11770" transform="translate(0.301)" fill="none">
                  <path d="M15.5,0A15.756,15.756,0,0,1,31,16,15.756,15.756,0,0,1,15.5,32,15.756,15.756,0,0,1,0,16,15.756,15.756,0,0,1,15.5,0Z" stroke="none"/>
                  <path d="M 15.5 1 C 11.63293075561523 1 7.995609283447266 2.556249618530273 5.258089065551758 5.382089614868164 C 2.51222038269043 8.216529846191406 1 11.98737907409668 1 16 C 1 20.01261901855469 2.51222038269043 23.78347015380859 5.258089065551758 26.61791038513184 C 7.995609283447266 29.44375038146973 11.63293075561523 31 15.5 31 C 19.36706924438477 31 23.00439071655273 29.44375038146973 25.74190902709961 26.61791038513184 C 28.48777961730957 23.78347015380859 30 20.01261901855469 30 16 C 30 11.98737907409668 28.48777961730957 8.216529846191406 25.74190902709961 5.382089614868164 C 23.00439071655273 2.556249618530273 19.36706924438477 1 15.5 1 M 15.5 0 C 24.06040954589844 0 31 7.163440704345703 31 16 C 31 24.8365592956543 24.06040954589844 32 15.5 32 C 6.939590454101562 32 0 24.8365592956543 0 16 C 0 7.163440704345703 6.939590454101562 0 15.5 0 Z" stroke="none" fill="#349dd8"/>
                </g>
              </g>
            </g>
          </g>
        </g>
      </g>
      <path id="Icon_awesome-instagram" data-name="Icon awesome-instagram" d="M9.339,6.79a4.791,4.791,0,1,0,4.79,4.791A4.783,4.783,0,0,0,9.339,6.79Zm0,7.905a3.115,3.115,0,1,1,3.114-3.115A3.12,3.12,0,0,1,9.339,14.695Zm6.1-8.1a1.117,1.117,0,1,1-1.117-1.117A1.115,1.115,0,0,1,15.442,6.594Zm3.172,1.134a5.53,5.53,0,0,0-1.509-3.915A5.564,5.564,0,0,0,13.191,2.3c-1.542-.088-6.165-.088-7.707,0A5.556,5.556,0,0,0,1.569,3.809,5.549,5.549,0,0,0,.06,7.724c-.088,1.543-.088,6.167,0,7.709a5.53,5.53,0,0,0,1.509,3.915,5.571,5.571,0,0,0,3.914,1.509c1.542.088,6.165.088,7.707,0a5.528,5.528,0,0,0,3.914-1.509,5.567,5.567,0,0,0,1.509-3.915c.088-1.543.088-6.162,0-7.705Zm-1.993,9.36a3.153,3.153,0,0,1-1.776,1.776c-1.23.488-4.148.375-5.507.375s-4.281.108-5.507-.375a3.153,3.153,0,0,1-1.776-1.776c-.488-1.23-.375-4.149-.375-5.508S1.574,7.3,2.057,6.072A3.153,3.153,0,0,1,3.833,4.3c1.23-.488,4.148-.375,5.507-.375s4.281-.108,5.507.375a3.153,3.153,0,0,1,1.776,1.776C17.109,7.3,17,10.221,17,11.58S17.109,15.862,16.622,17.088Z" transform="translate(6.486 4.509)" fill="#349dd8"/>
    </g>
  </g>
</svg>
