<svg id="lock" xmlns="http://www.w3.org/2000/svg" xmlns:xlink="http://www.w3.org/1999/xlink" width="24" height="24" viewBox="0 0 24 24">
  <defs>
    <clipPath id="clip-path">
      <path id="Combined_Shape" data-name="Combined Shape" d="M3,22a3,3,0,0,1-3-3V12A3,3,0,0,1,3,9H4V6A6,6,0,1,1,16,6V9h1a3,3,0,0,1,3,3v7a3,3,0,0,1-3,3ZM2,12v7a1,1,0,0,0,1,1H17a1,1,0,0,0,1-1V12a1,1,0,0,0-1-1H3A1,1,0,0,0,2,12ZM14,9V6A4,4,0,1,0,6,6V9Z" fill="#c2c2c2"/>
    </clipPath>
  </defs>
  <g id="Group_88" data-name="Group 88" transform="translate(2 1)">
    <path id="Combined_Shape-2" data-name="Combined Shape" d="M3,22a3,3,0,0,1-3-3V12A3,3,0,0,1,3,9H4V6A6,6,0,1,1,16,6V9h1a3,3,0,0,1,3,3v7a3,3,0,0,1-3,3ZM2,12v7a1,1,0,0,0,1,1H17a1,1,0,0,0,1-1V12a1,1,0,0,0-1-1H3A1,1,0,0,0,2,12ZM14,9V6A4,4,0,1,0,6,6V9Z" fill="#c2c2c2"/>
    <g id="Mask_Group_88" data-name="Mask Group 88" clip-path="url(#clip-path)">
      <g id="COLOR_black" data-name="COLOR/ black" transform="translate(-2 -1)">
        <rect id="Rectangle" width="24" height="24" fill="#c2c2c2"/>
      </g>
    </g>
  </g>
</svg>
