<svg xmlns="http://www.w3.org/2000/svg" width="238.693" height="130.114" viewBox="0 0 238.693 130.114">
  <g id="Group_11005" data-name="Group 11005" transform="translate(-9464.445 -908.163)">
    <path id="Path_87" data-name="Path 87" d="M9630.156,1209.895c0,3.936-1,4.9-3.543,4.9h-10.377c-5.045,0-7.585-2.576-7.585-7.907v-5.869h-2.5v5.869q0,10.411,10.306,10.412h10.984c3.471,0,5.224-2.111,5.224-6.3v-9.947h-2.5Z" transform="translate(-89.271 -184.499)" fill="#349dd8"/>
    <rect id="Rectangle_1" data-name="Rectangle 1" width="2.541" height="3.041" transform="translate(9531.331 1013.481)" fill="#349dd8"/>
    <rect id="Rectangle_2" data-name="Rectangle 2" width="2.54" height="3.041" transform="translate(9587.819 1035.236)" fill="#349dd8"/>
    <rect id="Rectangle_3" data-name="Rectangle 3" width="2.54" height="3.041" transform="translate(9592.507 1035.236)" fill="#349dd8"/>
    <rect id="Rectangle_4" data-name="Rectangle 4" width="2.54" height="3.041" transform="translate(9604.241 1010.94)" fill="#349dd8"/>
    <rect id="Rectangle_5" data-name="Rectangle 5" width="2.54" height="3.041" transform="translate(9643.481 1010.94)" fill="#349dd8"/>
    <rect id="Rectangle_6" data-name="Rectangle 6" width="2.54" height="3.041" transform="translate(9648.169 1010.94)" fill="#349dd8"/>
    <path id="Path_88" data-name="Path 88" d="M9789.813,1198.2a7.713,7.713,0,0,1-.537,3.435c-.5,1-1.5,1.5-3.042,1.5h-1.356v-.036h-4.9v-1.11a12.228,12.228,0,0,0-3.148-8.8,11.4,11.4,0,0,0-8.659-3.363h-3.184l4.258-7.336h-2.97c-2.362,4.223-4.187,7.478-5.475,9.8h7.37q4.563,0,6.87,2.9a10.269,10.269,0,0,1,1.968,6.619c0,.429-.035.858-.071,1.288h-29.26a8.893,8.893,0,0,0,.68-3.793v-9.947h-2.5v8.838a8.008,8.008,0,0,1-.536,3.471,3.093,3.093,0,0,1-3.042,1.467h-1.68v-.036h-4.651a8.893,8.893,0,0,0,.68-3.793v-9.947h-2.5v8.838a8.008,8.008,0,0,1-.536,3.471,3.093,3.093,0,0,1-3.041,1.467h-1.143v-.036h-4.9v-1.11a12.228,12.228,0,0,0-3.148-8.8,11.4,11.4,0,0,0-8.66-3.363H9709.5l4.258-7.336h-2.97c-2.361,4.223-4.187,7.478-5.475,9.8h7.37q4.564,0,6.871,2.9a10.269,10.269,0,0,1,1.968,6.619c0,.429-.036.858-.071,1.288h-24.92a18.082,18.082,0,0,1-1.979-.036,2.738,2.738,0,0,1-2.039-1.109,6.722,6.722,0,0,1-.716-3.542v-15.959h-2.577v17.461a5.719,5.719,0,0,0,1.539,4.33,4.428,4.428,0,0,0,3.256,1.36h93.041c3.507,0,5.26-2.111,5.26-6.3v-9.947h-2.5Z" transform="translate(-141.607 -172.802)" fill="#349dd8"/>
    <path id="Path_89" data-name="Path 89" d="M10013.407,934.987V911.7h-7.909c-5.119,0-11.2,0-15.807,0a1.744,1.744,0,1,1,.008-3.488c7.349.02,17.531.055,24.372-.043,2.185-.031,2.816.877,2.815,2.841,0,5.935.039,17.24.047,24.078a1.76,1.76,0,0,1-1.858,1.76,1.826,1.826,0,0,1-1.668-1.856" transform="translate(-329.806)" fill="#e00075"/>
    <path id="Path_90" data-name="Path 90" d="M9990.619,1192.392h23.29v-7.909c0-5.12,0-11.2,0-15.807a1.744,1.744,0,0,1,3.488.007c-.021,7.349-.056,17.532.043,24.373.031,2.185-.877,2.816-2.842,2.815-5.936,0-17.24.039-24.078.047a1.761,1.761,0,0,1-1.76-1.859,1.826,1.826,0,0,1,1.855-1.668" transform="translate(-330.316 -163.026)" fill="#ffeb00"/>
    <path id="Path_91" data-name="Path 91" d="M9511.245,934.987V911.7h7.908c5.121,0,11.2,0,15.808,0a1.744,1.744,0,1,0-.008-3.488c-7.348.02-17.531.055-24.372-.043-2.185-.031-2.816.877-2.815,2.841,0,5.935-.039,17.24-.048,24.078a1.762,1.762,0,0,0,1.859,1.76,1.826,1.826,0,0,0,1.668-1.856" transform="translate(-27.261)" fill="#349dd8"/>
    <path id="Path_92" data-name="Path 92" d="M9534.544,1192.392h-23.29v-7.909c0-5.12,0-11.2,0-15.807a1.744,1.744,0,1,0-3.487.007c.021,7.349.055,17.532-.043,24.373-.032,2.185.877,2.816,2.841,2.815,5.936,0,17.241.039,24.079.047a1.762,1.762,0,0,0,1.76-1.859,1.827,1.827,0,0,0-1.855-1.668" transform="translate(-27.262 -163.026)" fill="#1d1d1b"/>
    <path id="Path_93" data-name="Path 93" d="M9736.066,1050.511v5.626c2.43-4.347,6.84-6.138,11.25-6.2,8.438,0,14.256,5.177,14.256,13.936v18.219h-3.133v-18.155c0-7.16-4.409-10.995-11.25-10.931-6.521.064-11.059,4.986-11.059,11.506v17.58H9733v-31.58Z" transform="translate(-169.187 -89.316)" fill="#1d1d1b"/>
    <path id="Path_94" data-name="Path 94" d="M9868.064,1015.9v26.977l14.895-13.808h4.154v.128l-15.98,14.766,17.835,16.494v.191H9885l-16.939-15.47v15.47H9865V1015.9Z" transform="translate(-252.344 -67.874)" fill="#1d1d1b"/>
    <path id="Path_95" data-name="Path 95" d="M9968.095,1050.837v31.58h-3.133V1075.7a14.763,14.763,0,0,1-12.912,7.223c-8.822,0-16.046-6.648-16.046-16.3a15.691,15.691,0,0,1,16.046-16.174,14.324,14.324,0,0,1,12.912,7.288v-6.9Zm-28.958,15.79c0,7.927,5.753,13.233,12.913,13.233,17.579,0,17.579-26.4,0-26.4-7.16,0-12.913,5.243-12.913,13.17" transform="translate(-297.08 -89.643)" fill="#1d1d1b"/>
    <path id="Path_96" data-name="Path 96" d="M10028.975,1019.141H10012.8v-3.068h35.8v3.068h-16.173v41.616h-3.452Z" transform="translate(-345.461 -67.983)" fill="#1d1d1b"/>
    <path id="Path_97" data-name="Path 97" d="M9668.188,1015.208v44.748h-3.068v-15.47l-16.94,15.47h-3.964v-.191l17.835-16.493-15.98-14.767v-.128h4.154l14.9,13.808v-26.977Z" transform="translate(-113.255 -67.438)" fill="#1d1d1b"/>
    <path id="Path_98" data-name="Path 98" d="M9554.4,1050.146v6.9a14.325,14.325,0,0,1,12.913-7.288,15.691,15.691,0,0,1,16.045,16.174c0,9.653-7.224,16.3-16.045,16.3a14.763,14.763,0,0,1-12.913-7.224v6.712h-3.133v-31.58Zm12.913,2.621c-17.58,0-17.58,26.4,0,26.4,7.159,0,12.912-5.306,12.912-13.232s-5.753-13.17-12.912-13.17" transform="translate(-54.697 -89.207)" fill="#1d1d1b"/>
    <path id="Path_99" data-name="Path 99" d="M9484.071,1060.066h-3.452V1018.45h-16.174v-3.068h35.8v3.068h-16.174Z" transform="translate(0 -67.547)" fill="#1d1d1b"/>
    <path id="Path_100" data-name="Path 100" d="M9832.341,1055.536v30.083h3.132v-30.083a3.9,3.9,0,0,1-3.132,0" transform="translate(-231.772 -92.844)" fill="#1d1d1b"/>
    <path id="Path_101" data-name="Path 101" d="M9834.358,1015.909c-.589.265-1.154.466-1.665.761a1.147,1.147,0,0,0-.516,1.465c.3.943.7,1.862.942,2.82a5.535,5.535,0,0,1-1.737,5.763.39.39,0,0,1-.5.057,3.937,3.937,0,0,0-3.452-.025.538.538,0,0,1-.677-.116,6.387,6.387,0,0,1-1.937-3.873,6.14,6.14,0,0,1,.915-4.46,7.187,7.187,0,0,1,3.543-2.833,6.037,6.037,0,0,1,3.265-.34,4.369,4.369,0,0,1,1.821.781" transform="translate(-226.976 -67.33)" fill="#e00075"/>
    <path id="Path_102" data-name="Path 102" d="M9572.056,1057.971A13.2,13.2,0,1,1,9559,1071.16a13.076,13.076,0,0,1,13.058-13.189m-4.777,16.309c1.886.961,3.789,1.908,5.666,2.906a.6.6,0,0,0,.851-.151c1.344-1.38,2.689-2.758,4.056-4.115a.677.677,0,0,0,.172-.892c-.909-1.774-1.806-3.554-2.743-5.312a.783.783,0,0,0-.654-.3c-1.869.281-3.727.648-5.6.891-.589.077-.721.339-.794.825-.3,2-.619,4-.953,6.145m-.912-.5c.754-4.829,1.486-9.522,2.237-14.331-.467.159-.786.246-1.089.373a12.1,12.1,0,0,0-6.124,5.589,12.743,12.743,0,0,0-1.384,4.542.642.642,0,0,0,.407.78c.936.439,1.837.953,2.757,1.426,1.033.531,2.071,1.052,3.2,1.621m2.163-7.4,13.424-2.151c-.205-.3-.319-.48-.449-.65a11.809,11.809,0,0,0-6.365-4.254,10.931,10.931,0,0,0-4.9-.274c-.383.069-.6.19-.663.662-.151,1.227-.4,2.442-.593,3.664-.153.952-.289,1.907-.455,3m-8.407,5.331-.212.118a23.521,23.521,0,0,0,.559,2.823,12.152,12.152,0,0,0,7.271,7.908.68.68,0,0,0,.6-.049q2.038-2,4.016-4.066a.515.515,0,0,0-.1-.479,14.762,14.762,0,0,0-1.329-.735q-3.892-1.995-7.787-3.983-1.507-.77-3.018-1.537m21.94,6.2a3.709,3.709,0,0,0,.4-.592,32.526,32.526,0,0,0,1.284-3.361,11.6,11.6,0,0,0-.97-8.382c-.087-.177-.374-.4-.534-.373-2,.294-4,.63-6.088.972l5.9,11.736m-12.732,5.194c.571.065,1.042.126,1.515.173a11.607,11.607,0,0,0,10.261-4.09.808.808,0,0,0,.139-.706c-.806-1.653-1.654-3.285-2.478-4.9l-9.437,9.521" transform="translate(-59.568 -94.377)" fill="#1d1d1b"/>
  </g>
</svg>
