
<svg xmlns="http://www.w3.org/2000/svg" width="96.065" height="52.365" viewBox="0 0 96.065 52.365">
  <g id="Layer_2" data-name="Layer 2" transform="translate(0 0)">
    <g id="Layer_1" data-name="Layer 1" transform="translate(0 0)">
      <path id="Path_19" data-name="Path 19" d="M41.955,70.3c0,1.581-.405,1.961-1.431,1.961H36.348c-2.026,0-3.052-1.039-3.052-3.183V66.73H32.29V69.1q0,4.189,4.15,4.189h4.418c1.4,0,2.1-.85,2.1-2.536v-4H41.955Z" transform="translate(-11.188 -23.122)" fill="#fff"/>
      <rect id="Rectangle_20" data-name="Rectangle 20" width="1.019" height="1.222" transform="translate(26.918 42.386)" fill="#fff"/>
      <rect id="Rectangle_21" data-name="Rectangle 21" width="1.019" height="1.222" transform="translate(25.134 42.386)" fill="#fff"/>
      <rect id="Rectangle_22" data-name="Rectangle 22" width="1.019" height="1.222" transform="translate(49.653 51.143)" fill="#fff"/>
      <rect id="Rectangle_23" data-name="Rectangle 23" width="1.019" height="1.222" transform="translate(51.542 51.143)" fill="#fff"/>
      <rect id="Rectangle_24" data-name="Rectangle 24" width="1.019" height="1.222" transform="translate(56.26 41.367)" fill="#fff"/>
      <rect id="Rectangle_25" data-name="Rectangle 25" width="1.019" height="1.222" transform="translate(72.056 41.367)" fill="#fff"/>
      <rect id="Rectangle_26" data-name="Rectangle 26" width="1.019" height="1.222" transform="translate(73.944 41.367)" fill="#fff"/>
      <path id="Path_20" data-name="Path 20" d="M91.7,68.832a3.085,3.085,0,0,1-.216,1.379,1.235,1.235,0,0,1-1.229.608h-2.5v-.451a4.934,4.934,0,0,0-1.268-3.542,4.575,4.575,0,0,0-3.5-1.392H81.685L83.4,62.48h-1.17c-.948,1.7-1.686,3.013-2.2,3.921h2.967a3.326,3.326,0,0,1,2.764,1.17,4.143,4.143,0,0,1,.791,2.66c0,.176,0,.346,0,.523H74.784a3.659,3.659,0,0,0,.274-1.529V65.277H74.006v3.555a3.267,3.267,0,0,1-.216,1.4,1.248,1.248,0,0,1-1.222.588H70.026A3.555,3.555,0,0,0,70.3,69.29V65.277H69.288v3.555a3.267,3.267,0,0,1-.216,1.4,1.255,1.255,0,0,1-1.229.588H65.451v-.451a4.934,4.934,0,0,0-1.307-3.555,4.574,4.574,0,0,0-3.483-1.379H59.354l1.712-2.954H59.9c-.948,1.7-1.686,3.013-2.2,3.921h2.967a3.326,3.326,0,0,1,2.764,1.17,4.111,4.111,0,0,1,.791,2.66v.523H54.159a5.23,5.23,0,0,1-.8,0,1.072,1.072,0,0,1-.817-.444,2.686,2.686,0,0,1-.288-1.425V62.493H51.218v7.032a2.3,2.3,0,0,0,.654,1.738,1.784,1.784,0,0,0,1.307.549H90.625c1.412,0,2.117-.85,2.117-2.536v-4H91.735Z" transform="translate(-17.746 -21.649)" fill="#fff"/>
      <path id="Path_21" data-name="Path 21" d="M129.556,10.8V1.425h-9.567a.712.712,0,0,1-.7-.706A.7.7,0,0,1,120,0h9.8c.876,0,1.131.353,1.131,1.144v9.691a.706.706,0,0,1-.719.706.732.732,0,0,1-.653-.745" transform="translate(-41.333 0)" fill="#fff"/>
      <path id="Path_22" data-name="Path 22" d="M120.228,69.229h9.4V59.662a.706.706,0,0,1,1.405,0v9.8c0,.882-.353,1.137-1.144,1.137h-9.691a.706.706,0,0,1-.706-.752.732.732,0,0,1,.745-.653" transform="translate(-41.402 -20.451)" fill="#fff"/>
      <path id="Path_23" data-name="Path 23" d="M11.269,10.8V1.425h9.567a.712.712,0,0,0,.7-.706A.7.7,0,0,0,20.83,0h-9.8C10.145,0,9.89.353,9.89,1.144v9.691a.706.706,0,0,0,.725.706.732.732,0,0,0,.654-.745" transform="translate(-3.427 0)" fill="#fff"/>
      <path id="Path_24" data-name="Path 24" d="M20.652,69.229h-9.4V59.662a.706.706,0,0,0-1.405,0v9.8c0,.882.353,1.137,1.144,1.137h9.691a.706.706,0,0,0,.706-.752.732.732,0,0,0-.745-.653" transform="translate(-3.413 -20.451)" fill="#fff"/>
      <path id="Path_25" data-name="Path 25" d="M62.425,32.537V34.8a5.058,5.058,0,0,1,4.522-2.49c3.4,0,5.738,2.078,5.738,5.607v7.332H71.43V37.942c0-2.882-1.771-4.424-4.529-4.4a4.411,4.411,0,0,0-4.45,4.627v7.077H61.19V32.537Z" transform="translate(-21.202 -11.194)" fill="#fff"/>
      <path id="Path_26" data-name="Path 26" d="M92.505,24.55V35.4L98.5,29.85h1.673V29.9l-6.43,5.94,7.182,6.64v.078h-1.6l-6.816-6.228v6.228H91.27V24.55Z" transform="translate(-31.624 -8.506)" fill="#fff"/>
      <path id="Path_27" data-name="Path 27" d="M120.354,32.586V45.3h-1.261V42.61a5.94,5.94,0,0,1-5.228,2.908,6.359,6.359,0,0,1-6.457-6.535,6.319,6.319,0,0,1,6.457-6.535,5.783,5.783,0,0,1,5.228,2.934v-2.8ZM108.7,38.938a5.1,5.1,0,0,0,5.228,5.326c7.077,0,7.077-10.626,0-10.626a5.084,5.084,0,0,0-5.228,5.3" transform="translate(-37.215 -11.242)" fill="#fff"/>
      <path id="Path_28" data-name="Path 28" d="M131.459,25.825H124.95V24.59h14.41v1.235h-6.509V42.574h-1.392Z" transform="translate(-43.294 -8.52)" fill="#fff"/>
      <path id="Path_29" data-name="Path 29" d="M50.612,24.39V42.4H49.377V36.173L42.561,42.4h-1.6v-.078l7.182-6.64-6.431-5.94V29.69h1.666l6,5.561V24.39Z" transform="translate(-14.192 -8.451)" fill="#fff"/>
      <path id="Path_30" data-name="Path 30" d="M21.041,32.418V35.2a5.777,5.777,0,0,1,5.228-2.928A6.313,6.313,0,0,1,32.726,38.8a6.359,6.359,0,0,1-6.457,6.535,5.953,5.953,0,0,1-5.228-2.908v2.732H19.78V32.418Zm5.228,1.059c-7.077,0-7.077,10.626,0,10.626a5.11,5.11,0,0,0,5.2-5.326,5.084,5.084,0,0,0-5.2-5.3" transform="translate(-6.854 -11.179)" fill="#fff"/>
      <path id="Path_31" data-name="Path 31" d="M7.9,42.414H6.509V25.665H0V24.43H14.41v1.235H7.9Z" transform="translate(0 -8.465)" fill="#fff"/>
      <path id="Path_32" data-name="Path 32" d="M83.806,33.58V45.689h1.261V33.58a1.542,1.542,0,0,1-.653.131,1.568,1.568,0,0,1-.654-.131" transform="translate(-29.022 -11.635)" fill="#fff"/>
      <path id="Path_33" data-name="Path 33" d="M85.952,24.7a5.554,5.554,0,0,0-.654.307.451.451,0,0,0-.2.588c.118.379.281.752.379,1.137a2.242,2.242,0,0,1-.7,2.32.157.157,0,0,1-.2,0,1.582,1.582,0,0,0-1.392,0,.216.216,0,0,1-.274-.046,2.575,2.575,0,0,1-.778-1.562,2.483,2.483,0,0,1,.366-1.8,2.9,2.9,0,0,1,1.431-1.137,2.444,2.444,0,0,1,1.307-.137,1.745,1.745,0,0,1,.732.314" transform="translate(-28.444 -8.433)" fill="#fff"/>
      <path id="Path_34" data-name="Path 34" d="M26.818,34.14a5.313,5.313,0,1,1-5.228,5.306,5.228,5.228,0,0,1,5.228-5.306M24.9,40.675c.758.386,1.523.771,2.274,1.17a.248.248,0,0,0,.346-.059c.542-.555,1.085-1.111,1.634-1.66a.274.274,0,0,0,.065-.359c-.366-.712-.725-1.425-1.1-2.137a.314.314,0,0,0-.261-.118c-.752.111-1.5.261-2.255.359-.235,0-.288.137-.32.333-.118.8-.248,1.608-.379,2.47m-.372-.2c.307-1.961.6-3.83.9-5.764-.19.059-.314.1-.438.15a4.829,4.829,0,0,0-2.477,2.274,5.1,5.1,0,0,0-.555,1.823.255.255,0,0,0,.163.314c.372.183.738.386,1.111.575l1.307.654m.876-2.98,5.385-.856c-.078-.118-.124-.2-.176-.261a4.8,4.8,0,0,0-2.562-1.7,4.477,4.477,0,0,0-1.961-.111.268.268,0,0,0-.268.268c-.059.49-.157.98-.235,1.47-.065.386-.118.771-.183,1.209m-3.4,2.13-.085.046a9.449,9.449,0,0,0,.222,1.137,4.9,4.9,0,0,0,2.928,3.183.281.281,0,0,0,.242,0c.542-.536,1.085-1.085,1.614-1.64a.209.209,0,0,0-.039-.19,5.313,5.313,0,0,0-.536-.294l-3.13-1.627-1.216-.614m8.829,2.49a1.307,1.307,0,0,0,.163-.235c.176-.451.386-.889.516-1.353a4.653,4.653,0,0,0-.392-3.372c0-.072-.15-.163-.216-.15-.8.118-1.608.255-2.451.392l2.379,4.718M25.72,44.249l.608.072a4.666,4.666,0,0,0,4.13-1.647.32.32,0,0,0,.059-.281c-.327-.654-.654-1.307-1-1.961l-3.8,3.83" transform="translate(-7.48 -11.829)" fill="#fff"/>
    </g>
  </g>
</svg>
