<svg xmlns="http://www.w3.org/2000/svg" width="31" height="32" viewBox="0 0 31 32">
  <g id="Group_11498" data-name="Group 11498" transform="translate(-237.661 0.162)">
    <g id="Group_145" data-name="Group 145" transform="translate(237.661 -0.162)">
      <g id="Group_11479" data-name="Group 11479">
        <g id="Group_11490" data-name="Group 11490">
          <g id="Group_11489" data-name="Group 11489">
            <g id="Group_11488" data-name="Group 11488">
              <g id="Group_11492" data-name="Group 11492">
                <g id="Group_11491" data-name="Group 11491">
                  <g id="Group_11487" data-name="Group 11487">
                    <g id="Group_11486" data-name="Group 11486">
                      <g id="Group_11485" data-name="Group 11485">
                        <g id="Group_11484" data-name="Group 11484">
                          <g id="Group_11483" data-name="Group 11483">
                            <g id="Group_11482" data-name="Group 11482">
                              <g id="Group_96" data-name="Group 96">
                                <g id="Group_11480" data-name="Group 11480">
                                  <g id="Group_11478" data-name="Group 11478">
                                    <g id="Group_12" data-name="Group 12">
                                      <g id="Group_11467" data-name="Group 11467">
                                        <g id="Path_11771" data-name="Path 11771" transform="translate(0)" fill="none">
                                          <path d="M15.5,0A15.756,15.756,0,0,1,31,16,15.756,15.756,0,0,1,15.5,32,15.756,15.756,0,0,1,0,16,15.756,15.756,0,0,1,15.5,0Z" stroke="none"/>
                                          <path d="M 15.5 1 C 11.63293075561523 1 7.995609283447266 2.556249618530273 5.258089065551758 5.382089614868164 C 2.51222038269043 8.216529846191406 1 11.98737907409668 1 16 C 1 20.01261901855469 2.51222038269043 23.78347015380859 5.258089065551758 26.61791038513184 C 7.995609283447266 29.44375038146973 11.63293075561523 31 15.5 31 C 19.36706924438477 31 23.00439071655273 29.44375038146973 25.74190902709961 26.61791038513184 C 28.48777961730957 23.78347015380859 30 20.01261901855469 30 16 C 30 11.98737907409668 28.48777961730957 8.216529846191406 25.74190902709961 5.382089614868164 C 23.00439071655273 2.556249618530273 19.36706924438477 1 15.5 1 M 15.5 0 C 24.06040954589844 0 31 7.163440704345703 31 16 C 31 24.8365592956543 24.06040954589844 32 15.5 32 C 6.939590454101562 32 0 24.8365592956543 0 16 C 0 7.163440704345703 6.939590454101562 0 15.5 0 Z" stroke="none" fill="#349dd8"/>
                                        </g>
                                      </g>
                                    </g>
                                  </g>
                                </g>
                              </g>
                            </g>
                          </g>
                        </g>
                      </g>
                    </g>
                  </g>
                </g>
              </g>
            </g>
          </g>
        </g>
      </g>
      <g id="Group_11481" data-name="Group 11481">
        <path id="Icon_zocial-email" data-name="Icon zocial-email" d="M.072,17.912V5.413q0-.022.065-.412l7.356,6.293L.159,18.346a1.839,1.839,0,0,1-.087-.434ZM1.048,4.133a.935.935,0,0,1,.369-.065H21.228a1.229,1.229,0,0,1,.391.065l-7.378,6.314-.976.781-1.931,1.584L9.4,11.229l-.976-.781ZM1.07,19.192l7.4-7.1,2.864,2.322L14.2,12.1l7.4,7.1a1.042,1.042,0,0,1-.369.065H1.417a.983.983,0,0,1-.347-.065Zm14.1-7.9L22.509,5a1.3,1.3,0,0,1,.065.412v12.5a1.663,1.663,0,0,1-.065.434Z" transform="translate(3.988 4.487)" fill="#349dd8"/>
      </g>
    </g>
  </g>
</svg>
