<svg width="16" height="20" viewBox="0 0 16 20" fill="none" xmlns="http://www.w3.org/2000/svg">
<path d="M8.22443 20.0001C5.1003 20.0001 2.56763 17.1339 2.56763 13.5984V8.51673C2.56763 4.98118 5.1003 2.11499 8.22443 2.11499C11.3486 2.11499 13.8812 4.98118 13.8812 8.51673V13.5984C13.8812 17.1339 11.3486 20.0001 8.22443 20.0001Z" fill="#FEEAC7"/>
<path d="M1.99816 14.7888C2.85267 14.7888 3.54539 14.0049 3.54539 13.0379C3.54539 12.0708 2.85267 11.2869 1.99816 11.2869C1.14365 11.2869 0.450928 12.0708 0.450928 13.0379C0.450928 14.0049 1.14365 14.7888 1.99816 14.7888Z" fill="#FEEAC7"/>
<path d="M0.893217 13.151C0.83788 13.151 0.792969 13.1002 0.792969 13.0376C0.792969 12.2854 1.33371 11.6735 1.99815 11.6735C2.05349 11.6735 2.0984 11.7243 2.0984 11.7869C2.0984 11.8495 2.05349 11.9004 1.99815 11.9004C1.44418 11.9004 0.993465 12.4104 0.993465 13.0376C0.993465 13.1002 0.948754 13.151 0.893217 13.151Z" fill="#393941"/>
<path d="M14.4525 14.7888C15.307 14.7888 15.9997 14.0049 15.9997 13.0379C15.9997 12.0708 15.307 11.2869 14.4525 11.2869C13.598 11.2869 12.9053 12.0708 12.9053 13.0379C12.9053 14.0049 13.598 14.7888 14.4525 14.7888Z" fill="#FEEAC7"/>
<path d="M15.5577 13.151C15.5024 13.151 15.4575 13.1002 15.4575 13.0376C15.4575 12.4104 15.0068 11.9004 14.4528 11.9004C14.3975 11.9004 14.3525 11.8495 14.3525 11.7869C14.3525 11.7243 14.3975 11.6735 14.4528 11.6735C15.1172 11.6735 15.658 12.2854 15.658 13.0376C15.658 13.1002 15.6133 13.151 15.5577 13.151Z" fill="#393941"/>
<path d="M14.4525 4.33066C16.2102 3.72461 14.2572 1.3585 10.8832 1.66709C11.6644 -1.40445 3.39311 -0.0149182 2.47143 4.06269C2.14321 2.39997 0.0893315 3.5415 1.36709 4.93966C-0.483286 4.38489 -0.410505 7.04483 1.31436 6.67589C0.952868 8.84164 1.42604 11.2667 2.56746 11.453C3.84262 11.6613 3.54488 5.91533 3.54488 5.91533C3.54488 5.91533 7.15321 8.72729 8.99998 8.6869C10.8468 8.64651 10.2569 7.39108 10.2569 7.39108C10.2569 7.39108 11.5798 7.80063 12.9125 7.94086C12.9502 9.57294 13.1501 11.5776 13.9125 11.453C14.8914 11.2933 15.378 9.4874 15.2691 7.61026C15.8515 7.14512 15.8225 6.17785 14.4525 4.33066Z" fill="#393941"/>
</svg>
