<svg width="200" height="200" viewBox="0 0 200 200" fill="none" xmlns="http://www.w3.org/2000/svg">
<circle cx="99.1068" cy="106.25" r="62.6786" fill="#F2F9FD"/>
<circle cx="40.3568" cy="63.9284" r="3.92857" fill="#C2E1F5"/>
<circle cx="143.75" cy="38.3925" r="7.32143" fill="#C2E1F5"/>
<circle cx="41.6069" cy="146.607" r="6.96429" fill="#C2E1F5"/>
<circle cx="166.25" cy="139.821" r="6.96429" fill="#C2E1F5"/>
<circle cx="152.678" cy="147.678" r="3.39286" fill="#C2E1F5"/>
<path d="M169.521 118.332L170.614 123.499L175.708 124.608L170.614 125.718L169.521 130.885L168.427 125.718L163.334 124.608L168.427 123.499L169.521 118.332Z" fill="white"/>
<path d="M162.979 65.5794C163.059 65.2018 163.598 65.2018 163.678 65.5794L164.375 68.8698C164.404 69.0072 164.511 69.1149 164.648 69.1448L167.914 69.8562C168.289 69.9379 168.289 70.4725 167.914 70.5541L164.648 71.2656C164.511 71.2955 164.404 71.4031 164.375 71.5406L163.678 74.8309C163.598 75.2085 163.059 75.2085 162.979 74.8309L162.283 71.5406C162.254 71.4031 162.147 71.2955 162.01 71.2656L158.744 70.5541C158.369 70.4725 158.369 69.9379 158.744 69.8562L162.01 69.1448C162.147 69.1149 162.254 69.0072 162.283 68.8698L162.979 65.5794Z" fill="#8CCAED"/>
<path d="M33.2936 108.793C33.3735 108.416 33.9125 108.416 33.9924 108.793L35.1863 114.433C35.2154 114.571 35.3224 114.678 35.4597 114.708L41.0416 115.924C41.4165 116.006 41.4165 116.541 41.0416 116.622L35.4597 117.838C35.3224 117.868 35.2154 117.976 35.1863 118.113L33.9924 123.754C33.9125 124.131 33.3735 124.131 33.2936 123.754L32.0998 118.113C32.0707 117.976 31.9637 117.868 31.8264 117.838L26.2444 116.622C25.8696 116.541 25.8696 116.006 26.2444 115.924L31.8264 114.708C31.9637 114.678 32.0707 114.571 32.0998 114.433L33.2936 108.793Z" fill="#8CCAED"/>
<path d="M55.5445 48.763C55.3374 48.7189 55.3374 48.4234 55.5445 48.3794L58.6751 47.7136C58.7505 47.6976 58.8096 47.6388 58.8259 47.5634L59.5 44.4549C59.5446 44.2488 59.8385 44.2488 59.8832 44.4549L60.5573 47.5634C60.5736 47.6388 60.6327 47.6976 60.7081 47.7136L63.8387 48.3794C64.0458 48.4234 64.0458 48.7189 63.8387 48.763L60.7081 49.4287C60.6327 49.4447 60.5736 49.5035 60.5573 49.5789L59.8832 52.6875C59.8385 52.8935 59.5446 52.8935 59.5 52.6875L58.8259 49.5789C58.8096 49.5035 58.7505 49.4447 58.6751 49.4287L55.5445 48.763Z" fill="#8CCAED"/>
<circle cx="112.143" cy="83.2149" r="39.7035" fill="#E4F0FA" stroke="#4FADE1" stroke-width="1.30719"/>
<circle cx="112.143" cy="83.215" r="33.275" fill="#F2F9FD" stroke="#4FADE1" stroke-width="1.30719"/>
<path d="M60.4443 156.653L81.8702 126.895L82.8225 126.18L84.965 125.704H88.0599L89.7263 126.895L91.3928 127.609L92.8212 129.275L94.0115 131.894L75.4424 166.89L73.2999 168.08H70.6811L67.1102 166.89L64.2534 165.699L61.6347 162.128L60.4443 160.7V156.653Z" fill="#4FADE1"/>
<path d="M98.0583 120.467L92.6265 129.275" stroke="#4FADE1" stroke-width="1.30719"/>
<path d="M91.6744 117.61L86.437 125.466" stroke="#4FADE1" stroke-width="1.30719"/>
<path d="M83.2984 125.704L60.2061 157.367" stroke="#4FADE1" stroke-width="1.30719"/>
<path d="M93.7736 131.418L75.2045 167.366" stroke="#4FADE1" stroke-width="1.30719"/>
<path d="M82.8218 126.18L83.2137 125.962C84.071 125.485 85.0562 125.287 86.0312 125.398V125.398C86.4293 125.443 86.82 125.539 87.1939 125.683L87.8648 125.942L88.091 126.017C89.3513 126.438 90.4965 127.145 91.4358 128.085V128.085L92.1742 128.823C92.4744 129.123 92.7366 129.459 92.955 129.823V129.823C93.2106 130.249 93.4037 130.709 93.5285 131.19L93.7728 132.132" stroke="#4FADE1" stroke-width="1.30719"/>
<path d="M75.6806 166.889L74.6667 167.346C73.6844 167.787 72.625 168.032 71.5486 168.066V168.066C70.7125 168.092 69.8774 167.991 69.0719 167.765L68.3889 167.574L68.1599 167.497C66.136 166.81 64.2929 165.676 62.7674 164.179V164.179L61.8855 163.314C61.196 162.637 60.6792 161.805 60.3787 160.886V160.886C60.005 159.744 59.9812 158.517 60.3105 157.361L60.4445 156.891" stroke="#4FADE1" stroke-width="1.30719"/>
</svg>
