<svg xmlns="http://www.w3.org/2000/svg" width="19.015" height="19" viewBox="0 0 19.015 19">
  <g id="Group_726" data-name="Group 726" transform="translate(0.507 0.5)">
    <path id="Path_421" data-name="Path 421" d="M1512.275-3009.288h-12.014c-1.844,0-3.25-1.216-2.953-2.555l1.745-8.42a1.723,1.723,0,0,1,1.773-1.108h10.887a1.722,1.722,0,0,1,1.772,1.108l1.745,8.42C1515.526-3010.5,1514.12-3009.288,1512.275-3009.288Z" transform="translate(-1497.268 3027.288)" fill="none" stroke="#000" stroke-linecap="round" stroke-linejoin="round" stroke-width="1"/>
    <path id="Path_422" data-name="Path 422" d="M1506.006-3024.91v-2.147a3.769,3.769,0,0,1,3.769-3.769h0a3.769,3.769,0,0,1,3.769,3.769v2.147" transform="translate(-1500.64 3030.827)" fill="none" stroke="#000" stroke-linecap="round" stroke-linejoin="round" stroke-width="1"/>
  </g>
</svg>
