<svg width="20" height="20" viewBox="0 0 20 20" fill="none" xmlns="http://www.w3.org/2000/svg">
<path d="M8.7418 1.8583L4.58346 3.42497C3.62513 3.7833 2.8418 4.91663 2.8418 5.9333V12.125C2.8418 13.1083 3.4918 14.4 4.28346 14.9916L7.8668 17.6666C9.0418 18.55 10.9751 18.55 12.1501 17.6666L15.7335 14.9916C16.5251 14.4 17.1751 13.1083 17.1751 12.125V5.9333C17.1751 4.9083 16.3918 3.77497 15.4335 3.41663L11.2751 1.8583C10.5668 1.59997 9.43346 1.59997 8.7418 1.8583Z" stroke="#349DD7" stroke-width="1.25" stroke-linecap="round" stroke-linejoin="round"/>
<g opacity="0.4">
<path d="M10.0007 10.4168C10.9211 10.4168 11.6673 9.67064 11.6673 8.75016C11.6673 7.82969 10.9211 7.0835 10.0007 7.0835C9.08018 7.0835 8.33398 7.82969 8.33398 8.75016C8.33398 9.67064 9.08018 10.4168 10.0007 10.4168Z" stroke="#349DD7" stroke-width="1.25" stroke-miterlimit="10" stroke-linecap="round" stroke-linejoin="round"/>
<path d="M10.001 10.4167V12.9167" stroke="#349DD7" stroke-width="1.25" stroke-miterlimit="10" stroke-linecap="round" stroke-linejoin="round"/>
</g>
</svg>
