<?xml version="1.0" encoding="UTF-8"?>
<svg width="700pt" height="700pt" version="1.1" viewBox="0 0 700 700" xmlns="http://www.w3.org/2000/svg">
 <g>
  <path d="m466.67 93.332h-233.34c-18.562 0-36.367 7.375-49.496 20.504-13.129 13.129-20.504 30.934-20.504 49.496v233.34c0 18.562 7.375 36.367 20.504 49.496 13.129 13.129 30.934 20.504 49.496 20.504h233.34c18.562 0 36.367-7.375 49.496-20.504 13.129-13.129 20.504-30.934 20.504-49.496v-233.34c0-18.562-7.375-36.367-20.504-49.496-13.129-13.129-30.934-20.504-49.496-20.504zm-70 23.336v73.066l-33.727-22.48-12.941-8.6289-12.941 8.6289-33.727 22.48v-73.066zm116.67 280h-0.003907c-0.011719 12.371-4.9336 24.234-13.684 32.98-8.7461 8.75-20.609 13.672-32.98 13.684h-233.34c-12.371-0.011719-24.234-4.9336-32.98-13.684-8.75-8.7461-13.672-20.609-13.684-32.98v-233.34c0.011719-12.371 4.9336-24.234 13.684-32.98 8.7461-8.75 20.609-13.672 32.98-13.684h46.668v94.867c0 3.1016 1.2305 6.0781 3.4258 8.2695 2.1953 2.1914 5.1719 3.4219 8.2734 3.4141 2.2969-0.003906 4.5391-0.69141 6.4375-1.9766l51.863-34.574 51.863 34.574c1.8984 1.2852 4.1406 1.9727 6.4375 1.9766 3.1016 0.007812 6.0781-1.2227 8.2734-3.4141 2.1953-2.1914 3.4297-5.168 3.4258-8.2695v-94.867h46.668c12.371 0.011719 24.234 4.9336 32.98 13.684 8.75 8.7461 13.672 20.609 13.684 32.98z"/>
  <path d="m396.67 350h-93.336c-8.3359 0-16.039 4.4492-20.207 11.668s-4.168 16.113 0 23.332 11.871 11.668 20.207 11.668h93.336c8.3359 0 16.039-4.4492 20.207-11.668s4.168-16.113 0-23.332-11.871-11.668-20.207-11.668z"/>
 </g>
</svg>
