<svg xmlns="http://www.w3.org/2000/svg" xmlns:xlink="http://www.w3.org/1999/xlink" width="16" height="15" viewBox="0 0 16 15">
  <defs>
    <clipPath id="clip-path">
      <path id="Combined_Shape" data-name="Combined Shape" d="M6.113.168A6.912,6.912,0,0,0,1.09,4.544a.679.679,0,0,0,.424.87A.7.7,0,0,0,2.4,5,5.53,5.53,0,0,1,6.42,1.5,5.65,5.65,0,0,1,11.6,2.978l1.948,1.794H11.13a.682.682,0,1,0,0,1.364H15.3a.7.7,0,0,0,.645-.427l0-.009A.67.67,0,0,0,16,5.452V1.363a.7.7,0,0,0-1.392,0V3.877L12.568,2A7.062,7.062,0,0,0,6.113.168ZM.7,8.864a.7.7,0,0,0-.645.427l0,.009A.682.682,0,0,0,0,9.548v4.09a.688.688,0,0,0,.7.682.688.688,0,0,0,.7-.682V11.123L3.432,13a7.049,7.049,0,0,0,6.455,1.831,6.911,6.911,0,0,0,5.022-4.376.678.678,0,0,0-.424-.87A.7.7,0,0,0,13.6,10,5.528,5.528,0,0,1,9.58,13.5,5.648,5.648,0,0,1,4.4,12.022L2.452,10.228H4.87a.682.682,0,1,0,0-1.364Z" transform="translate(16 15) rotate(180)" fill="#006e6c"/>
    </clipPath>
  </defs>
  <g id="refresh-ccw" transform="translate(0 0)">
    <g id="Group_58" data-name="Group 58" transform="translate(0 0)">
      <path id="Combined_Shape-2" data-name="Combined Shape" d="M6.113.168A6.912,6.912,0,0,0,1.09,4.544a.679.679,0,0,0,.424.87A.7.7,0,0,0,2.4,5,5.53,5.53,0,0,1,6.42,1.5,5.65,5.65,0,0,1,11.6,2.978l1.948,1.794H11.13a.682.682,0,1,0,0,1.364H15.3a.7.7,0,0,0,.645-.427l0-.009A.67.67,0,0,0,16,5.452V1.363a.7.7,0,0,0-1.392,0V3.877L12.568,2A7.062,7.062,0,0,0,6.113.168ZM.7,8.864a.7.7,0,0,0-.645.427l0,.009A.682.682,0,0,0,0,9.548v4.09a.688.688,0,0,0,.7.682.688.688,0,0,0,.7-.682V11.123L3.432,13a7.049,7.049,0,0,0,6.455,1.831,6.911,6.911,0,0,0,5.022-4.376.678.678,0,0,0-.424-.87A.7.7,0,0,0,13.6,10,5.528,5.528,0,0,1,9.58,13.5,5.648,5.648,0,0,1,4.4,12.022L2.452,10.228H4.87a.682.682,0,1,0,0-1.364Z" transform="translate(16 15) rotate(180)" fill="#006e6c"/>
      <g id="Mask_Group_58" data-name="Mask Group 58" transform="translate(0 0)" clip-path="url(#clip-path)">
        <g id="COLOR_black" data-name="COLOR/ black" transform="translate(-0.696 -0.682)">
          <rect id="Rectangle" width="16.696" height="16.363" fill="#006e6c"/>
        </g>
      </g>
    </g>
  </g>
</svg>
