<svg width="252" height="252" viewBox="0 0 252 252" fill="none" xmlns="http://www.w3.org/2000/svg">
<circle cx="129.825" cy="133.875" r="78.975" fill="#F2F9FD"/>
<circle cx="55.8002" cy="80.55" r="4.95" fill="#C2E1F5"/>
<circle cx="91.5752" cy="48.825" r="9.225" fill="#C2E1F5"/>
<circle cx="57.3751" cy="184.725" r="8.775" fill="#C2E1F5"/>
<circle cx="214.425" cy="176.175" r="8.775" fill="#C2E1F5"/>
<circle cx="197.325" cy="186.075" r="4.275" fill="#C2E1F5"/>
<path d="M128.037 64.5917C127.776 64.5362 127.776 64.1638 128.037 64.1084L131.981 63.2696C132.076 63.2493 132.151 63.1752 132.171 63.0803L133.021 59.1635C133.077 58.9039 133.447 58.9039 133.503 59.1635L134.353 63.0803C134.373 63.1752 134.448 63.2493 134.543 63.2696L138.487 64.1084C138.748 64.1638 138.748 64.5362 138.487 64.5917L134.543 65.4305C134.448 65.4507 134.373 65.5248 134.353 65.6198L133.503 69.5366C133.447 69.7962 133.077 69.7962 133.021 69.5366L132.171 65.6198C132.151 65.5248 132.076 65.4507 131.981 65.4305L128.037 64.5917Z" fill="#8CCAED"/>
<path d="M37.0004 103.33C37.1011 102.854 37.7802 102.854 37.8809 103.33L39.3852 110.437C39.4218 110.61 39.5566 110.745 39.7296 110.783L46.7629 112.315C47.2352 112.418 47.2352 113.092 46.7629 113.195L39.7296 114.727C39.5566 114.764 39.4218 114.9 39.3852 115.073L37.8809 122.18C37.7802 122.656 37.1011 122.656 37.0004 122.18L35.4961 115.073C35.4595 114.9 35.3247 114.764 35.1517 114.727L28.1184 113.195C27.6461 113.092 27.6461 112.418 28.1184 112.315L35.1517 110.783C35.3247 110.745 35.4595 110.61 35.4961 110.437L37.0004 103.33Z" fill="#8CCAED"/>
<path d="M200.405 125.83C200.506 125.354 201.185 125.354 201.286 125.83L202.163 129.976C202.2 130.149 202.335 130.285 202.508 130.322L206.622 131.219C207.095 131.322 207.095 131.995 206.622 132.098L202.508 132.994C202.335 133.032 202.2 133.168 202.163 133.341L201.286 137.487C201.185 137.963 200.506 137.963 200.405 137.487L199.528 133.341C199.491 133.168 199.356 133.032 199.183 132.994L195.068 132.098C194.596 131.995 194.596 131.322 195.068 131.219L199.183 130.322C199.356 130.285 199.491 130.149 199.528 129.976L200.405 125.83Z" fill="#8CCAED"/>
<path d="M218.547 149.099L219.925 155.609L226.342 157.007L219.925 158.405L218.547 164.915L217.169 158.405L210.751 157.007L217.169 155.609L218.547 149.099Z" fill="white"/>
<path d="M189.675 69.75L95.3995 169.2L106.2 211.725L113.625 175.95L189.675 69.75Z" fill="#C2E1F5"/>
<path d="M94.9497 168.75L105.975 212.625L112.95 176.175" stroke="#4FADE1" stroke-width="1.8"/>
<path d="M105.75 211.725L134.1 184.95" stroke="#C4CBF5" stroke-width="1.8"/>
<path d="M189.675 69.75L113.4 175.725L173.25 202.5L189.675 69.75Z" fill="#E4F0FA" stroke="#4FADE1" stroke-width="1.8"/>
<path d="M189.675 68.85L48.5996 148.95L94.9496 168.75L189.675 68.85Z" fill="#E4F0FA" stroke="#4FADE1" stroke-width="1.8"/>
<path d="M135.45 185.859L113.718 176.4L105.75 212.85L135.45 185.859Z" fill="#4FADE1"/>
</svg>
