<svg width="24" height="24" viewBox="0 0 24 24" fill="none" xmlns="http://www.w3.org/2000/svg">
<g clip-path="url(#clip0_162_7588)">
<path d="M12 23.0625V17.4375C12 15.3664 13.6789 13.6875 15.75 13.6875H17.4375C18.473 13.6875 19.3125 14.527 19.3125 15.5625C19.3125 16.598 18.473 17.4375 17.4375 17.4375H15.75" stroke="#349DD7" stroke-width="1.875" stroke-miterlimit="10" stroke-linecap="round" stroke-linejoin="round"/>
<path d="M19.3125 15.5625V10.3125C19.3125 9.27698 20.152 8.4375 21.1875 8.4375C22.223 8.4375 23.0625 9.27698 23.0625 10.3125V17.4375C23.0625 19.5086 21.3836 21.1875 19.3125 21.1875H17.625C16.5895 21.1875 15.75 22.027 15.75 23.0625" stroke="#349DD7" stroke-width="1.875" stroke-miterlimit="10" stroke-linecap="round" stroke-linejoin="round"/>
<path d="M4.6875 15.5625V10.3125C4.6875 9.27698 3.84802 8.4375 2.8125 8.4375C1.77698 8.4375 0.9375 9.27698 0.9375 10.3125V17.4375C0.9375 19.5086 2.61642 21.1875 4.6875 21.1875H6.375C7.41047 21.1875 8.25 22.0269 8.25 23.0624V23.0625H12V17.4375C12 15.3664 10.3211 13.6875 8.25 13.6875H6.5625C5.52698 13.6875 4.6875 14.527 4.6875 15.5625ZM4.6875 15.5625C4.6875 16.598 5.52698 17.4375 6.5625 17.4375H8.25" stroke="#349DD7" stroke-width="1.875" stroke-miterlimit="10" stroke-linecap="round" stroke-linejoin="round"/>
<path d="M6.375 4.6875C7.41053 4.6875 8.25 3.84803 8.25 2.8125C8.25 1.77697 7.41053 0.9375 6.375 0.9375C5.33947 0.9375 4.5 1.77697 4.5 2.8125C4.5 3.84803 5.33947 4.6875 6.375 4.6875Z" stroke="#E00077" stroke-width="1.875" stroke-miterlimit="10" stroke-linecap="round" stroke-linejoin="round"/>
<path d="M12 10.3125C13.0355 10.3125 13.875 9.47303 13.875 8.4375C13.875 7.40197 13.0355 6.5625 12 6.5625C10.9645 6.5625 10.125 7.40197 10.125 8.4375C10.125 9.47303 10.9645 10.3125 12 10.3125Z" stroke="#E00077" stroke-width="1.875" stroke-miterlimit="10" stroke-linecap="round" stroke-linejoin="round"/>
<path d="M17.625 4.6875C18.6605 4.6875 19.5 3.84803 19.5 2.8125C19.5 1.77697 18.6605 0.9375 17.625 0.9375C16.5895 0.9375 15.75 1.77697 15.75 2.8125C15.75 3.84803 16.5895 4.6875 17.625 4.6875Z" stroke="#E00077" stroke-width="1.875" stroke-miterlimit="10" stroke-linecap="round" stroke-linejoin="round"/>
</g>
<defs>
<clipPath id="clip0_162_7588">
<rect width="24" height="24" fill="white"/>
</clipPath>
</defs>
</svg>
