<svg width="20" height="20" viewBox="0 0 20 20" fill="none" xmlns="http://www.w3.org/2000/svg">
<path d="M8.74179 1.8583L4.58346 3.41663C3.62513 3.77496 2.8418 4.90829 2.8418 5.93329V12.1249C2.8418 13.1083 3.49181 14.3999 4.28347 14.9916L7.8668 17.6666C9.0418 18.55 10.9751 18.55 12.1501 17.6666L15.7335 14.9916C16.5251 14.3999 17.1751 13.1083 17.1751 12.1249V5.93329C17.1751 4.90829 16.3918 3.77496 15.4335 3.41663L11.2751 1.8583C10.5668 1.59997 9.43345 1.59997 8.74179 1.8583Z" stroke="#349DD7" stroke-width="1.25" stroke-linecap="round" stroke-linejoin="round"/>
<path opacity="0.4" d="M10.0001 9.09985C9.96674 9.09985 9.92507 9.09985 9.89173 9.09985C9.1084 9.07485 8.4834 8.42485 8.4834 7.63318C8.4834 6.82485 9.14174 6.1665 9.95007 6.1665C10.7584 6.1665 11.4167 6.82485 11.4167 7.63318C11.4084 8.43318 10.7834 9.07485 10.0001 9.09985Z" stroke="#349DD7" stroke-width="1.25" stroke-linecap="round" stroke-linejoin="round"/>
<path opacity="0.4" d="M8.3417 11.4333C7.5417 11.9666 7.5417 12.8416 8.3417 13.375C9.25003 13.9833 10.7417 13.9833 11.65 13.375C12.45 12.8416 12.45 11.9666 11.65 11.4333C10.75 10.825 9.25837 10.825 8.3417 11.4333Z" stroke="#349DD7" stroke-width="1.25" stroke-linecap="round" stroke-linejoin="round"/>
</svg>
