<svg xmlns="http://www.w3.org/2000/svg" width="20.575" height="17.388" viewBox="0 0 20.575 17.388">
  <path id="Icon_ionic-ios-share-alt" data-name="Icon ionic-ios-share-alt" d="M23.6,13.493,16.523,6.87a.362.362,0,0,0-.281-.12c-.221.01-.5.166-.5.4v3.322a.214.214,0,0,1-.181.206C8.52,11.757,5.554,17.026,4.506,22.495c-.04.216.251.416.386.246a12.8,12.8,0,0,1,10.637-5.389.248.248,0,0,1,.211.241v3.261a.431.431,0,0,0,.728.266l7.13-6.739a.554.554,0,0,0,.176-.421A.672.672,0,0,0,23.6,13.493Z" transform="translate(-3.848 -6.099)" fill="none" stroke="#898e92" stroke-width="1.3"/>
</svg>
