<svg width="24" height="24" viewBox="0 0 24 24" fill="none" xmlns="http://www.w3.org/2000/svg">
<path d="M7.70062 11.9411C7.70062 10.4057 6.45598 9.16107 4.92062 9.16107C3.38527 9.16107 2.14062 10.4057 2.14062 11.9411C2.14062 13.4764 3.38527 14.7211 4.92062 14.7211C6.45598 14.7211 7.70062 13.4764 7.70062 11.9411Z" stroke="#2E2E34" stroke-width="1.5" stroke-linecap="round" stroke-linejoin="round"/>
<path d="M19.9194 18.1684C19.9194 16.6331 18.6747 15.3884 17.1394 15.3884C15.604 15.3884 14.3594 16.6331 14.3594 18.1684C14.3594 19.7038 15.604 20.9484 17.1394 20.9484C18.6747 20.9484 19.9194 19.7038 19.9194 18.1684Z" stroke="#2E2E34" stroke-width="1.5" stroke-linecap="round" stroke-linejoin="round"/>
<path d="M19.9194 5.82858C19.9194 4.29323 18.6747 3.04858 17.1394 3.04858C15.604 3.04858 14.3594 4.29323 14.3594 5.82858C14.3594 7.36393 15.604 8.60858 17.1394 8.60858C18.6747 8.60858 19.9194 7.36393 19.9194 5.82858Z" stroke="#2E2E34" stroke-width="1.5" stroke-linecap="round" stroke-linejoin="round"/>
<path opacity="0.34" d="M14.5 7L7.5 10.5" stroke="#2E2E34" stroke-width="1.5"/>
<path opacity="0.34" d="M14.5 17.4992L7.5 13.9992" stroke="#2E2E34" stroke-width="1.5"/>
</svg>
