<svg xmlns="http://www.w3.org/2000/svg" width="19" height="18" viewBox="0 0 19 18">
  <path id="star" d="M20.046,8.57a1.6,1.6,0,0,0-1.273-1.079l-4.588-.736L12.058,2.674a1.621,1.621,0,0,0-2.865,0L7.066,6.756l-4.588.736A1.605,1.605,0,0,0,1.2,8.57a1.577,1.577,0,0,0,.388,1.611l3.274,3.259-.709,4.536a1.581,1.581,0,0,0,.645,1.53,1.627,1.627,0,0,0,1.673.132l4.15-2.068,4.15,2.068a1.628,1.628,0,0,0,1.673-.133,1.582,1.582,0,0,0,.645-1.53l-.709-4.536,3.274-3.259a1.57,1.57,0,0,0,.388-1.612ZM18.759,9.3l-3.723,3.707.806,5.16a.337.337,0,0,1-.137.328.347.347,0,0,1-.358.028l-4.72-2.352-4.72,2.352a.347.347,0,0,1-.358-.028.337.337,0,0,1-.137-.328l.806-5.16L2.492,9.3a.337.337,0,0,1-.083-.344.343.343,0,0,1,.272-.231L7.9,7.889l2.419-4.643a.346.346,0,0,1,.612,0L13.35,7.889l5.219.838a.343.343,0,0,1,.272.231.337.337,0,0,1-.083.344Z" transform="translate(-1.126 -1.811)"/>
</svg>
