<svg width="168" height="148" viewBox="0 0 168 148" fill="none" xmlns="http://www.w3.org/2000/svg">
<path d="M32.8163 132.12L32.795 134.646C32.6666 133.789 32.6666 132.954 32.8163 132.12Z" fill="white"/>
<path d="M94.4926 139.351C90.4799 140.66 85.1876 141.457 79.2971 141.457C71.1089 141.457 64.4771 140.008 59.9759 138.157C57.3297 137.104 54.7687 135.596 53.5734 133.519C51.9516 130.702 54.7687 127.885 57.3867 126.491C64.0752 122.995 85.1452 121.092 96.4274 126.292C97.1103 126.605 97.7647 126.947 98.3906 127.316C105.574 131.687 102.697 136.661 94.4926 139.351Z" fill="#184462"/>
<path d="M76.0839 70.6845C76.3836 70.4065 77.0258 69.9997 77.6893 69.6143C78.2673 71.284 78.9095 72.9109 79.6159 74.4949C79.4661 74.5806 79.3376 74.6448 79.2092 74.6877C79.1663 74.7091 79.0593 74.6877 78.9523 74.602C77.7107 73.5317 76.7688 72.3328 76.1053 70.9202C76.0411 70.7917 76.0625 70.706 76.0839 70.6845Z" fill="#FCA8D7"/>
<path d="M100.874 102.408C100.202 104.759 99.1154 105.296 99.0113 109.001L96.4208 126.297L94.4939 139.355C90.4692 140.66 85.1811 141.452 79.2937 141.452C70.8959 141.452 64.1258 139.905 59.9828 138.156C60.4967 133.489 61.0319 128.587 61.4814 124.949C62.1484 118.286 63.6317 111.345 63.3226 106.711C63.13 103.671 62.081 99.454 60.2612 96.9281C58.0775 93.8672 54.9089 91.3628 53.7743 87.6168C51.4163 79.6158 59.6646 71.0884 65.6134 65.1407C68.3965 62.3149 71.2225 59.4892 74.0699 56.7278C74.8535 60.5299 75.9882 64.8777 77.3241 68.5867C76.5106 69.0362 75.7399 69.5287 75.3544 69.8928C74.969 70.2565 74.8835 70.8559 75.1404 71.3696C75.8683 72.9322 76.8959 74.2594 78.2661 75.4154C78.5444 75.6508 78.8655 75.7579 79.1652 75.7579C79.4868 75.7579 79.7767 75.6449 80.0644 75.5008C80.3642 76.1859 80.6639 76.8497 81.0064 77.5131C85.7378 87.3597 92.353 95.7509 100.874 102.408Z" fill="#C2E1F5"/>
<path d="M117.103 112.555C117.03 112.555 116.957 112.54 116.89 112.511C100.786 105.485 88.2871 93.8984 80.524 77.7452C80.4153 77.5173 80.4801 77.2456 80.6787 77.0909C83.0643 75.2325 85.2219 73.5518 85.7697 70.8969C86.3223 68.1825 84.8279 66.0959 81.8245 66.3148C80.3317 66.4485 78.6926 66.8437 76.9552 67.4833C76.6678 67.5922 76.3514 67.4306 76.2611 67.1468C75.1948 63.8648 74.2812 60.3947 73.5453 56.8368C71.6741 48.0132 70.8357 38.2635 71.0531 27.8616C71.0782 26.2436 72.1758 24.8284 73.7878 24.3434C88.5044 19.9933 102.215 12.1333 114.538 0.974647C115.987 -0.32348 118.174 -0.325594 119.623 0.972581C131.88 12.1124 145.591 19.9745 160.373 24.3414C161.985 24.8263 163.084 26.2415 163.112 27.8616C164.105 69.1954 148.272 98.4676 117.325 112.507C117.254 112.538 117.178 112.555 117.103 112.555ZM81.6781 77.6699C88.8683 92.4231 100.537 104.146 117.099 111.434C147.481 97.5456 163.022 68.6624 162.041 27.8846C162.041 27.8825 162.041 27.8825 162.041 27.8804C162.022 26.7265 161.228 25.7168 160.065 25.3677C145.131 20.9549 131.282 13.0134 118.905 1.76693C117.868 0.838795 116.296 0.834616 115.255 1.77111C102.813 13.0343 88.9642 20.9758 74.0951 25.3699C72.9326 25.7169 72.1403 26.7265 72.1235 27.8805C71.9082 38.2029 72.7382 47.8711 74.5927 56.6174C75.2826 59.9516 76.1273 63.2022 77.1099 66.2919C78.7427 65.7295 80.2941 65.3784 81.7304 65.2488C85.2474 64.9449 87.5506 67.516 86.8192 71.1124C86.2108 74.0494 83.9361 75.9057 81.6781 77.6699Z" fill="#184462"/>
<path d="M146.519 34.3587C136.135 31.2335 126.972 25.7963 118.858 18.5185C117.852 17.598 116.31 17.598 115.304 18.5185C107.19 25.7963 98.0487 31.2335 87.644 34.3587C86.5521 34.6798 85.7386 35.6861 85.7386 36.8419C85.2675 64.2627 95.2227 84.9622 117.081 94.5094C138.876 84.6196 149.023 64.2412 148.445 36.8204C148.424 35.6861 147.632 34.6798 146.519 34.3587ZM117.081 71.3267C108.475 71.3267 101.453 64.3269 101.453 55.7003C101.453 47.0739 108.475 40.0528 117.081 40.0528C125.709 40.0528 132.71 47.074 132.71 55.7003C132.71 64.3269 125.709 71.3267 117.081 71.3267ZM117.081 41.123C109.053 41.123 102.523 47.6516 102.523 55.7003C102.523 63.7275 109.053 70.2564 117.081 70.2564C125.11 70.2564 131.639 63.7274 131.639 55.7003C131.639 47.6516 125.11 41.123 117.081 41.123ZM125.837 51.1839C121.855 53.7097 118.537 57.4557 116.503 61.7369C116.313 62.1169 115.747 62.1504 115.54 61.7369C114.341 59.1683 112.585 56.792 110.53 54.8657C110.316 54.6515 110.295 54.3091 110.487 54.0948C110.701 53.8811 111.044 53.8811 111.258 54.0734C113.163 55.8503 114.79 57.9909 116.011 60.3029C118.152 56.2569 121.406 52.7251 125.281 50.2848C125.861 49.9162 126.462 50.8191 125.837 51.1839Z" fill="#165E8E"/>
<path d="M116.605 94.7336C116.482 94.464 116.601 94.1462 116.871 94.025C124.64 90.4984 131.065 85.5295 135.967 79.2583C136.149 79.0263 136.484 78.9866 136.72 79.1663C136.952 79.3482 136.994 79.6847 136.812 79.9189C131.801 86.326 125.24 91.3994 117.314 94.9992C117.056 95.1206 116.731 95.008 116.605 94.7336Z" fill="#184462"/>
<path d="M88.1504 61.5525C85.9886 54.0542 84.9976 45.5316 85.2046 36.2229C85.2255 35.207 85.9322 34.2935 86.9231 34.005C97.2617 30.9948 106.856 25.497 115.443 17.6601C116.383 16.8072 117.786 16.8114 118.719 17.6601C127.657 25.8169 137.686 31.438 148.524 34.3667C149.207 34.5525 148.928 35.5885 148.244 35.3993C137.24 32.4267 127.063 26.7241 117.995 18.4502C117.477 17.9757 116.684 17.9715 116.166 18.4502C107.456 26.398 97.7196 31.9774 87.2242 35.0335C86.6765 35.1924 86.2876 35.692 86.2751 36.2459C86.0701 45.448 87.0465 53.8619 89.1791 61.2557C89.2606 61.54 89.0975 61.8368 88.8132 61.9184C88.535 61.9994 88.2324 61.8397 88.1504 61.5525Z" fill="#184462"/>
<path d="M78.9524 74.6019C77.7108 73.5316 76.7689 72.3327 76.1054 70.9201C76.0411 70.7915 76.0625 70.7058 76.0839 70.6844C76.6931 70.1193 78.8897 68.8862 79.7444 68.6296C80.5578 68.3727 81.7137 68.5653 82.3987 69.443C82.8696 70.0424 83.0622 70.9416 82.891 71.8404C82.7197 72.7395 80.9645 73.8953 79.6159 74.4947C79.4661 74.5804 79.3377 74.6447 79.2092 74.6876C79.1664 74.709 79.0593 74.6876 78.9524 74.6019Z" fill="#F9F8FF"/>
<path d="M86.2521 90.8918C85.3101 88.8155 83.9613 86.9103 82.3128 85.3263C81.9062 84.9197 77.0677 81.1094 76.7251 81.6446C79.2197 77.6956 85.2784 75.9054 86.295 71.0059C86.9372 67.8376 85.0104 65.5045 81.7776 65.7828C77.9998 66.1215 72.3067 68.3893 68.3329 71.6908C67.5193 72.3757 66.8342 73.168 66.0421 73.8525C65.8281 74.0454 65.5283 74.1954 65.3143 74.4091C65.0145 74.6876 64.9075 75.18 64.5434 75.3939C45.8114 86.4096 80.4909 103.414 80.7072 103.414C83.0627 103.414 86.539 100.923 87.6438 97.0567C88.1575 95.1944 87.0442 92.5827 86.2521 90.8918ZM75.3549 69.8928C76.1384 69.1529 78.5034 67.895 79.4226 67.6022C80.5574 67.2385 82.2272 67.4737 83.2548 68.7796C83.9184 69.6356 84.154 70.8345 83.9399 72.0334C83.6403 73.5531 81.3495 74.9016 80.0649 75.5008C79.8937 75.5865 79.7224 75.6508 79.594 75.6937C79.1872 75.8294 78.6775 75.7629 78.2666 75.4154C76.8965 74.2594 75.8689 72.9322 75.1409 71.3696C74.884 70.8559 74.9695 70.2565 75.3549 69.8928Z" fill="#C2E1F5"/>
<path d="M87.3042 96.843C86.7837 90.461 82.4517 84.5513 76.5224 82.139C76.22 82.0181 76.0911 81.6421 76.2737 81.3572C78.8142 77.3353 84.8138 75.5299 85.7697 70.8968C86.3224 68.1823 84.8279 66.0958 81.8245 66.3146C77.3702 66.7138 70.5272 69.6828 66.1839 74.509C65.9863 74.7285 65.6486 74.7473 65.427 74.5488C65.2075 74.3523 65.1897 74.0136 65.3873 73.7941C69.8698 68.8129 76.8778 65.689 81.7304 65.2485C85.2474 64.9446 87.5506 67.5157 86.8192 71.1121C86.1899 74.1537 83.7751 76.0351 81.4398 77.8558C81.4377 77.8558 81.3332 77.9374 81.3311 77.9374C80.0202 78.9408 78.5525 80.0612 77.5364 81.4095C83.5158 84.1187 87.8373 90.2018 88.3705 96.7553C88.4307 97.4632 87.3626 97.5543 87.3042 96.843Z" fill="#184462"/>
<path d="M62.0516 123.227C62.8836 117.355 63.0424 111.38 62.525 105.471C62.4648 104.796 63.5254 104.632 63.5911 105.379C64.1158 111.37 63.9549 117.424 63.1114 123.377C63.0125 124.08 61.9516 123.926 62.0516 123.227Z" fill="#184462"/>
<path d="M94.063 108.134C93.3879 108.022 93.4954 107.001 94.2343 107.076C95.8691 107.343 97.5874 106.936 98.9357 105.96C99.1719 105.784 99.5064 105.838 99.682 106.079C99.8555 106.317 99.8032 106.652 99.5629 106.825C97.9617 107.987 95.9404 108.44 94.063 108.134Z" fill="#184462"/>
<path d="M75.8001 83.1656C75.5722 82.9754 75.5429 82.6389 75.7311 82.411L76.4565 81.5414C76.6488 81.3177 76.9874 81.2884 77.2111 81.4766C77.4369 81.6668 77.4661 82.0034 77.2759 82.2312L76.5547 83.0967C76.3633 83.3257 76.0239 83.3522 75.8001 83.1656Z" fill="#184462"/>
<path d="M133.593 94.153C133.125 94.153 132.879 93.5877 133.206 93.2478C140.684 85.4631 146.563 76.4575 150.678 66.4779C150.791 66.2061 151.109 66.0765 151.378 66.1873C151.65 66.3002 151.782 66.6137 151.669 66.8876C147.5 76.9885 141.55 86.1069 133.979 93.9877C133.873 94.0986 133.733 94.153 133.593 94.153Z" fill="#184462"/>
<path d="M86.7414 26.9188C86.6724 26.6303 86.8502 26.3419 87.1366 26.2729C92.6561 24.9454 98.0167 22.5038 102.639 19.2156C102.876 19.0442 103.212 19.0985 103.386 19.3431C103.557 19.5835 103.501 19.918 103.258 20.0894C98.5268 23.4549 93.0387 25.953 87.3875 27.3138C87.1108 27.3831 86.8118 27.2128 86.7414 26.9188Z" fill="#184462"/>
<path d="M38.291 33.3427C38.2242 30.6557 39.8623 28.3499 44.2067 27.7299C48.9328 27.0505 53.7707 28.2755 58.0399 29.3562C58.3264 29.4273 58.4999 29.72 58.4267 30.0064C58.3546 30.2907 58.0692 30.4767 57.7765 30.3931C53.6055 29.3374 48.8753 28.1459 44.3593 28.7877C41.5313 29.1962 39.2897 30.4488 39.3604 33.3155C39.4589 37.3071 44.1582 38.1368 46.1992 35.8679C46.3988 35.6484 46.7365 35.6359 46.955 35.8261C47.1745 36.0247 47.1933 36.3634 46.9957 36.5829C44.3251 39.557 38.4118 38.3502 38.291 33.3427Z" fill="#184462"/>
<path d="M59.7612 25.2486L49.987 20.9256C49.7163 20.8065 49.594 20.4908 49.7142 20.2191C49.8323 19.9494 50.1522 19.8261 50.4198 19.9473L60.1939 24.2703C60.4647 24.3894 60.587 24.7051 60.4668 24.9769C60.3449 25.2494 60.0262 25.3673 59.7612 25.2486Z" fill="#184462"/>
<path d="M63.6038 19.4329C57.8462 17.854 54.0076 12.9261 53.7503 10.5319C53.5286 8.48107 55.1977 6.99954 57.3296 7.78087C58.0812 8.05892 58.7126 8.55851 59.2687 8.99959C59.5008 9.18353 59.5394 9.52013 59.3555 9.75216C59.1715 9.98418 58.8349 10.0218 58.6039 9.83997C58.0854 9.42814 57.5491 9.00382 56.9585 8.78429C55.59 8.28152 54.6773 9.14765 54.8144 10.419C55.031 12.4221 58.6118 16.9533 63.886 18.4002C64.5695 18.5905 64.2877 19.6152 63.6038 19.4329Z" fill="#184462"/>
<path d="M138.172 115.249C137.847 114.618 138.801 114.126 139.121 114.756C140.997 118.375 145.906 120.097 149.629 118.442C152.692 117.083 154.599 113.596 154.386 110.278C152.549 110.152 149.522 109.257 149.079 107.473C148.916 106.81 149.128 106.123 149.663 105.588C151.352 103.899 154.538 104.834 155.327 109.2C158.925 109.07 162.531 106.838 164.423 103.93C166.892 100.136 167.563 94.799 166.32 88.8998C166.171 88.2177 167.216 87.9731 167.365 88.6782C168.672 94.8554 167.944 100.481 165.322 104.515C163.271 107.663 159.42 110.136 155.454 110.293C155.646 114.014 153.497 117.896 150.064 119.42C145.858 121.29 140.296 119.35 138.172 115.249ZM150.119 107.216C150.401 108.356 152.979 109.064 154.233 109.173C153.947 107.85 153.182 106.216 151.868 105.895C151.069 105.682 149.922 106.421 150.119 107.216Z" fill="#184462"/>
<path d="M17.9111 142.182C14.7008 140.322 12.9384 136.204 13.8133 132.6C14.5973 129.364 17.4606 126.732 20.7189 126.094C17.6613 122.649 17.1668 116.926 19.66 112.271C21.8061 108.263 25.9217 104.967 31.5614 102.736C31.8374 102.63 32.1478 102.761 32.2555 103.037C32.3642 103.311 32.2293 103.622 31.9544 103.731C28.1891 105.219 23.163 107.998 20.6029 112.776C18.5038 116.694 18.3606 122.693 22.2274 126.09C22.5867 126.401 22.3807 127.004 21.9002 127.027C18.6491 127.186 15.6197 129.69 14.8545 132.851C14.0861 136.011 15.6312 139.626 18.4484 141.254C19.0581 141.609 18.529 142.533 17.9111 142.182Z" fill="#184462"/>
<path d="M1.77181 125.933C-1.17885 122.447 -0.400766 116.971 3.78205 114.547C1.5732 112.883 0.931367 109.639 1.64848 107.132C2.34364 104.703 4.03294 102.523 6.96309 100.267C7.19514 100.083 7.53174 100.129 7.71364 100.366C7.89342 100.6 7.84951 100.936 7.61539 101.116C4.8755 103.225 3.30641 105.23 2.67712 107.427C1.9945 109.812 2.7231 112.965 5.12221 114.114C5.54159 114.316 5.52156 114.919 5.09189 115.093C1.03851 116.735 -0.239146 121.902 2.58929 125.244C3.04677 125.784 2.22795 126.475 1.77181 125.933Z" fill="#184462"/>
<path d="M79.2964 141.992C73.202 141.992 67.6156 141.219 62.6909 139.693C59.3337 138.672 54.8688 136.843 53.1092 133.787C51.369 130.757 54.039 127.669 57.1349 126.019C58.3935 125.361 59.811 124.83 61.3508 124.437C62.0559 124.275 62.29 125.301 61.6163 125.473C60.156 125.846 58.8158 126.347 57.6346 126.966C55.1934 128.264 52.628 130.809 54.0375 133.252C55.624 136.012 59.9465 137.743 63.0046 138.668C67.83 140.163 73.3108 140.922 79.2965 140.922C84.8787 140.922 90.2163 140.184 94.3267 138.844C99.5618 137.125 102.324 134.665 101.901 132.096C101.791 131.399 102.844 131.221 102.959 131.925C103.474 135.069 100.448 137.96 94.6591 139.86C90.4441 141.235 84.9874 141.992 79.2964 141.992Z" fill="#165E8E"/>
<path d="M99.3898 144.241C98.6952 144.222 98.7062 143.171 99.4065 143.171C99.4107 143.171 99.417 143.171 99.4233 143.171C103.408 143.315 107.347 142.07 110.556 139.735C112.076 138.631 113.009 137.521 113.412 136.342C114.496 133.169 112.149 128.357 104.807 127.01C104.516 126.956 104.324 126.678 104.376 126.387C104.431 126.097 104.717 125.904 104.999 125.957C112.994 127.421 115.724 132.882 114.424 136.689C113.947 138.083 112.89 139.362 111.188 140.6C107.653 143.17 103.385 144.375 99.3898 144.241Z" fill="#184462"/>
<path d="M64.4875 148C64.4425 148 64.3955 147.994 64.3495 147.981C56.8001 145.971 48.6886 143.652 44.1417 136.965C43.9755 136.72 44.0382 136.388 44.2828 136.221C44.5254 136.058 44.8599 136.118 45.0261 136.363C49.3892 142.777 57.3569 145.009 64.6255 146.949C64.9109 147.024 65.0813 147.316 65.0049 147.603C64.9412 147.841 64.7248 148 64.4875 148Z" fill="#184462"/>
<path d="M45.3882 127.027C48.9601 123.597 53.8472 121.491 59.1482 121.103C59.4252 121.061 59.6991 121.301 59.721 121.596C59.7419 121.891 59.5214 122.148 59.2256 122.169C54.1733 122.541 49.5226 124.539 46.1304 127.8C45.6115 128.288 44.8809 127.514 45.3882 127.027Z" fill="#184462"/>
</svg>
