<svg id="translate" xmlns="http://www.w3.org/2000/svg" width="18" height="16" viewBox="0 0 18 16">
  <g id="Group_9285" data-name="Group 9285" transform="translate(0 0)">
    <g id="Group_9284" data-name="Group 9284">
      <path id="Path_11544" data-name="Path 11544" d="M10.077,31.727h0l-2.156-2,.025-.024a13.725,13.725,0,0,0,3.15-5.191h2.487V22.923H7.641v-1.59h-1.7v1.59H0V24.5H9.483a12.41,12.41,0,0,1-2.691,4.261A12.546,12.546,0,0,1,4.83,26.1h-1.7a13.908,13.908,0,0,0,2.53,3.625L1.346,33.722l1.2,1.125,4.245-3.975,2.64,2.472Z" transform="translate(0 -21.333)"/>
      <path id="Path_11545" data-name="Path 11545" d="M240.184,192h-1.7l-3.82,10.187h1.7l.955-2.547h4.033l.955,2.547H244Zm-2.228,5.943,1.38-3.68,1.38,3.68Z" transform="translate(-226.004 -186.187)"/>
    </g>
  </g>
</svg>
