<svg xmlns="http://www.w3.org/2000/svg" width="32" height="32" viewBox="0 0 32 32">
  <g id="Group_11500" data-name="Group 11500" transform="translate(-47.661 0.162)">
    <g id="Group_142" data-name="Group 142" transform="translate(48.115 -0.162)">
      <g id="Group_11474" data-name="Group 11474">
        <g id="Group_14" data-name="Group 14">
          <g id="Group_12" data-name="Group 12">
            <g id="Group_11473" data-name="Group 11473">
              <g id="Path_11773" data-name="Path 11773" transform="translate(-0.454)" fill="none">
                <path d="M16,0A16,16,0,1,1,0,16,16,16,0,0,1,16,0Z" stroke="none"/>
                <path d="M 16 1 C 11.99334907531738 1 8.226520538330078 2.560270309448242 5.393400192260742 5.393400192260742 C 2.560270309448242 8.226520538330078 1 11.99334907531738 1 16 C 1 20.00664901733398 2.560270309448242 23.77347946166992 5.393400192260742 26.60659980773926 C 8.226520538330078 29.43972969055176 11.99334907531738 31 16 31 C 20.00664901733398 31 23.77347946166992 29.43972969055176 26.60659980773926 26.60659980773926 C 29.43972969055176 23.77347946166992 31 20.00664901733398 31 16 C 31 11.99334907531738 29.43972969055176 8.226520538330078 26.60659980773926 5.393400192260742 C 23.77347946166992 2.560270309448242 20.00664901733398 1 16 1 M 16 0 C 24.8365592956543 0 32 7.163440704345703 32 16 C 32 24.8365592956543 24.8365592956543 32 16 32 C 7.163440704345703 32 0 24.8365592956543 0 16 C 0 7.163440704345703 7.163440704345703 0 16 0 Z" stroke="none" fill="#349dd8"/>
              </g>
            </g>
          </g>
        </g>
      </g>
      <path id="Icon_awesome-twitter-square" data-name="Icon awesome-twitter-square" d="M16.683,2.25H2a2,2,0,0,0-2,2V18.933a2,2,0,0,0,2,2H16.683a2,2,0,0,0,2-2V4.252A2,2,0,0,0,16.683,2.25Zm-2.04,6.623c.008.117.008.238.008.355A7.73,7.73,0,0,1,6.869,17.01a7.747,7.747,0,0,1-4.2-1.226,5.763,5.763,0,0,0,.659.033,5.484,5.484,0,0,0,3.4-1.168,2.739,2.739,0,0,1-2.557-1.9A2.948,2.948,0,0,0,5.4,12.7a2.736,2.736,0,0,1-2.19-2.686V9.983a2.734,2.734,0,0,0,1.235.346A2.73,2.73,0,0,1,3.228,8.052,2.7,2.7,0,0,1,3.6,6.671,7.767,7.767,0,0,0,9.238,9.532a2.741,2.741,0,0,1,4.667-2.5,5.36,5.36,0,0,0,1.735-.659,2.728,2.728,0,0,1-1.2,1.506,5.444,5.444,0,0,0,1.577-.425A5.758,5.758,0,0,1,14.644,8.873Z" transform="translate(6.273 4.496)" fill="#349dd8"/>
    </g>
  </g>
</svg>
