<svg id="user" xmlns="http://www.w3.org/2000/svg" xmlns:xlink="http://www.w3.org/1999/xlink" width="24" height="24" viewBox="0 0 24 24">
  <defs>
    <clipPath id="clip-path">
      <path id="Combined_Shape" data-name="Combined Shape" d="M17,20a1,1,0,0,1-1-1V17a3,3,0,0,0-3-3H5a3,3,0,0,0-3,3v2a1,1,0,0,1-2,0V17a5.006,5.006,0,0,1,5-5h8a5.006,5.006,0,0,1,5,5v2A1,1,0,0,1,17,20ZM9,10a5,5,0,1,1,5-5A5.006,5.006,0,0,1,9,10ZM9,2a3,3,0,1,0,3,3A3,3,0,0,0,9,2Z" transform="translate(0 0)" fill="#c2c2c2"/>
    </clipPath>
  </defs>
  <g id="Group_86" data-name="Group 86" transform="translate(3 2)">
    <path id="Combined_Shape-2" data-name="Combined Shape" d="M17,20a1,1,0,0,1-1-1V17a3,3,0,0,0-3-3H5a3,3,0,0,0-3,3v2a1,1,0,0,1-2,0V17a5.006,5.006,0,0,1,5-5h8a5.006,5.006,0,0,1,5,5v2A1,1,0,0,1,17,20ZM9,10a5,5,0,1,1,5-5A5.006,5.006,0,0,1,9,10ZM9,2a3,3,0,1,0,3,3A3,3,0,0,0,9,2Z" transform="translate(0 0)" fill="#c2c2c2"/>
    <g id="Mask_Group_86" data-name="Mask Group 86" clip-path="url(#clip-path)">
      <g id="COLOR_black" data-name="COLOR/ black" transform="translate(-3 -2)">
        <rect id="Rectangle" width="24" height="24" fill="#c2c2c2"/>
      </g>
    </g>
  </g>
</svg>
