<svg width="24" height="24" viewBox="0 0 24 24" fill="none" xmlns="http://www.w3.org/2000/svg">
<g clip-path="url(#clip0_162_7606)">
<path d="M4.6875 9.1875V5.4375C4.6875 4.40198 5.52698 3.5625 6.5625 3.5625H8.4375" stroke="#349DD7" stroke-width="1.875" stroke-miterlimit="10" stroke-linecap="round" stroke-linejoin="round"/>
<path d="M17.8125 5.4375H14.0625C13.027 5.4375 12.1875 4.59802 12.1875 3.5625C12.1875 2.52698 13.027 1.6875 14.0625 1.6875H17.8125C18.848 1.6875 19.6875 2.52698 19.6875 3.5625C19.6875 4.59802 18.848 5.4375 17.8125 5.4375Z" stroke="#E00077" stroke-width="1.875" stroke-miterlimit="10" stroke-linecap="round" stroke-linejoin="round"/>
<path d="M17.4375 13.875L21.6219 11.2088C21.7672 11.1162 21.9398 11.0625 22.125 11.0625C22.6428 11.0625 23.0625 11.4822 23.0625 12V19.5C23.0625 20.0178 22.6428 20.4375 22.125 20.4375C21.9398 20.4375 21.7672 20.3838 21.6219 20.2912L17.4375 17.625V19.5C17.4375 21.0533 16.1783 22.3125 14.625 22.3125H3.75C2.1967 22.3125 0.9375 21.0533 0.9375 19.5V12C0.9375 10.4467 2.1967 9.1875 3.75 9.1875H14.625C16.1783 9.1875 17.4375 10.4467 17.4375 12V13.875Z" stroke="#349DD7" stroke-width="1.875" stroke-miterlimit="10" stroke-linecap="round" stroke-linejoin="round"/>
<path d="M8.4375 16.6875H6.5625C5.52698 16.6875 4.6875 15.848 4.6875 14.8125C4.6875 13.777 5.52698 12.9375 6.5625 12.9375H8.4375C9.47302 12.9375 10.3125 13.777 10.3125 14.8125C10.3125 15.848 9.47302 16.6875 8.4375 16.6875Z" stroke="#E00077" stroke-width="1.875" stroke-miterlimit="10" stroke-linecap="round" stroke-linejoin="round"/>
<circle cx="13.6875" cy="18.5625" r="0.9375" fill="#E00077"/>
</g>
<defs>
<clipPath id="clip0_162_7606">
<rect width="24" height="24" fill="white"/>
</clipPath>
</defs>
</svg>
