<svg id="vuesax_linear_warning-2" data-name="vuesax/linear/warning-2" xmlns="http://www.w3.org/2000/svg" width="24" height="24" viewBox="0 0 24 24">
  <g id="warning-2">
    <path id="Vector" d="M0,0V5.25" transform="translate(12 7.75)" fill="none" stroke="#76787b" stroke-linecap="round" stroke-linejoin="round" stroke-width="1.5"/>
    <path id="Vector-2" data-name="Vector" d="M0,6.58v6.84a3.174,3.174,0,0,0,1.57,2.73l5.94,3.43a3.163,3.163,0,0,0,3.15,0l5.94-3.43a3.15,3.15,0,0,0,1.57-2.73V6.58A3.174,3.174,0,0,0,16.6,3.85L10.66.42a3.163,3.163,0,0,0-3.15,0L1.57,3.85A3.162,3.162,0,0,0,0,6.58Z" transform="translate(2.92 2)" fill="none" stroke="#76787b" stroke-linecap="round" stroke-linejoin="round" stroke-width="1.5"/>
    <path id="Vector-3" data-name="Vector" d="M24,0H0V24H24Z" fill="none" opacity="0"/>
    <path id="Vector-4" data-name="Vector" d="M0,0V.1" transform="translate(12 16.2)" fill="none" stroke="#76787b" stroke-linecap="round" stroke-linejoin="round" stroke-width="2"/>
  </g>
</svg>
