<svg xmlns="http://www.w3.org/2000/svg" width="24" height="24" viewBox="0 0 24 24">
  <g id="Group_11244" data-name="Group 11244" transform="translate(-218.5 -948.5)">
    <path id="Path_54" data-name="Path 54" d="M11.486,23h0A11.486,11.486,0,0,1,0,11.486H0A11.486,11.486,0,0,1,11.486,0h0A11.486,11.486,0,0,1,23,11.486h0A11.486,11.486,0,0,1,11.486,23Z" transform="translate(219 949)" fill="none" stroke="#349dd8" stroke-width="1"/>
    <path id="Path_55" data-name="Path 55" d="M20.022,13.375a6.182,6.182,0,0,0-12.357-.112v.272a6.078,6.078,0,0,0,.85,3.185L7.4,20.01l3.457-1.059a6.2,6.2,0,0,0,9.172-5.374A1.234,1.234,0,0,0,20.022,13.375ZM13.84,18.693a5.165,5.165,0,0,1-2.858-.857l-2,.641L9.63,16.56a5.116,5.116,0,0,1-.99-3.025,3.966,3.966,0,0,1,0-.5,5.2,5.2,0,0,1,10.357.1,3.826,3.826,0,0,1,0,.4,5.185,5.185,0,0,1-5.158,5.172Z" transform="translate(216.758 946.777)" fill="#349dd8" fill-rule="evenodd"/>
    <path id="Path_56" data-name="Path 56" d="M18.17,16.25c-.153-.07-.9-.439-1.038-.488s-.237-.077-.342.077a6.37,6.37,0,0,1-.481.585c-.091.1-.174.118-.328.042a4.063,4.063,0,0,1-1.22-.746,4.635,4.635,0,0,1-.843-1.045c-.084-.146,0-.23.07-.307s.146-.174.23-.258l.049-.077a1.394,1.394,0,0,0,.1-.181.244.244,0,0,0,0-.258c-.035-.077-.342-.822-.467-1.122s-.251-.244-.342-.244h-.286a.585.585,0,0,0-.411.188,1.694,1.694,0,0,0-.53,1.262,1.77,1.77,0,0,0,.084.509,3.547,3.547,0,0,0,.537,1.045A6.273,6.273,0,0,0,15.543,17.5c1.54.6,1.54.4,1.819.376a1.526,1.526,0,0,0,1.025-.7,1.3,1.3,0,0,0,.091-.7A.941.941,0,0,0,18.17,16.25Z" transform="translate(215.264 945.296)" fill="#349dd8" fill-rule="evenodd"/>
  </g>
</svg>
